<svg xmlns="http://www.w3.org/2000/svg" viewBox="0 0 148.31 62.14"><defs><style>.cls-1{fill:#093;stroke:#000;stroke-miterlimit:10;stroke-width:0.75px;}</style></defs><title>Engins_de_debarquement_amphibie_rapide_EDA-R_vert</title><g id="Calque_2" data-name="Calque 2"><g id="EDA-R"><polygon class="cls-1" points="3.45 61.76 3.45 58.2 8.31 58.2 0.38 55.28 0.38 37.47 2.32 37.47 2.48 28.4 5.56 28.4 5.23 36.49 7.34 35.85 7.18 32.28 61.44 32.61 61.44 38.44 68.73 38.76 68.73 32.28 80.88 32.45 80.88 0.38 82.01 0.38 82.01 12.52 82.01 16.41 88.17 16.25 88.17 18.19 83.63 20.14 83.47 32.45 118.29 32.77 118.29 27.75 129.31 27.91 129.31 32.45 140.97 33.26 145.5 33.26 145.5 37.95 147.93 38.12 147.93 57.39 145.99 58.69 134.98 58.69 125.26 61.76 3.45 61.76"/></g></g></svg>
