<svg xmlns="http://www.w3.org/2000/svg" viewBox="0 0 352.21 439.44"><defs><style>.cls-1{fill:#fff;stroke:#17201c;stroke-miterlimit:10;stroke-width:2.5px;}</style></defs><title>Ajout_Texte_2</title><g id="Calque_2" data-name="Calque 2"><g id="Calque_5" data-name="Calque 5"><path class="cls-1" d="M176.11,438.18H82.22v-21.9s30.32-1.51,46.94-7.23c.06,0,20-4.54,18.4-32.93-.2,0,0-350.58,0-350.58H98.8l-16.58,2S47.41,40.26,21.73,119.25H1.25V1.25H176.11"/><path class="cls-1" d="M176.11,438.18H270v-21.9s-30.32-1.51-46.94-7.23c-.06,0-20-4.54-18.4-32.93.2,0,0-350.58,0-350.58h48.76l16.58,2s34.81,12.68,60.49,91.66H351V1.25H176.11"/></g></g></svg>
