<?xml version="1.0" encoding="utf-8"?>
<!-- Generator: Adobe Illustrator 21.1.0, SVG Export Plug-In . SVG Version: 6.00 Build 0)  -->
<svg version="1.1" id="Calque_1" xmlns="http://www.w3.org/2000/svg" xmlns:xlink="http://www.w3.org/1999/xlink" x="0px" y="0px"
	 viewBox="0 0 24 30" style="enable-background:new 0 0 24 30;" xml:space="preserve">
<style type="text/css">
	.st0{fill:#FFFFFF;}
</style>
<title>business_026-handshake-partner-work-ally</title>
<desc>Created with Sketch.</desc>
<g>
	<g transform="translate(-285.000000, -141.000000)">
		<g transform="translate(285.000000, 144.000000)">
			<path class="st0" d="M19.6,10.1c-0.1,0.1-1.1,1.5-1.4,1.8c-0.4,0.5-0.8,0.9-1.1,1.1L11,17.6c-0.3,0.2-0.8,0.2-1-0.1
				c-0.2-0.3-0.2-0.8,0.1-1l4.6-3.4l-0.6-0.8l-4.6,3.4c-0.7,0.6-0.9,1.6-0.4,2.4c0.6,0.8,1.6,0.9,2.4,0.4l6.2-4.6
				c0.4-0.3,0.8-0.7,1.3-1.3c0.3-0.4,1.3-1.7,1.4-1.8c0.8-1,1.4-1.7,2.1-2.3L22,7.6C21.2,8.2,20.5,9,19.6,10.1z"/>
			<path class="st0" d="M13.4,12.9l-5.1,3.8c-0.3,0.2-0.8,0.2-1-0.1c-0.2-0.3-0.2-0.8,0.2-1l5.1-3.8c0.2-0.2,0.3-0.5,0.1-0.7
				c-0.2-0.2-0.5-0.3-0.7-0.1l-5.1,3.8c-0.8,0.6-0.9,1.6-0.4,2.4C7,17.9,8.1,18,8.9,17.5l5.1-3.8c0.6-0.5,0.6-0.5,0.8-0.6
				c0.2-0.2,0.3-0.5,0.1-0.7c-0.2-0.2-0.5-0.3-0.7-0.1C14,12.4,14,12.4,13.4,12.9z"/>
			<path class="st0" d="M11.1,11.6l-5.5,4.1c-0.3,0.2-0.7,0.2-1-0.1c-0.2-0.3-0.2-0.7,0.1-1l6.3-4.6c0.2-0.2,0.3-0.5,0.1-0.7
				S10.7,8.9,10.5,9l-6.3,4.6c-0.8,0.6-0.9,1.6-0.4,2.4c0.6,0.8,1.6,0.9,2.4,0.4l5.5-4.1c0.6-0.5,0.6-0.5,0.8-0.6
				c0.2-0.2,0.3-0.5,0.1-0.7c-0.2-0.2-0.5-0.3-0.7-0.1C11.7,11.1,11.7,11.1,11.1,11.6z"/>
			<path class="st0" d="M9.7,9.6l-4.2,3.2c-0.3,0.2-0.7,0.2-1-0.1c-0.2-0.3-0.2-0.8,0.1-1l5-3.8c0.1,0,0.2-0.1,0.3-0.2
				c0.3-0.2,0.5-0.3,0.8-0.5c0.5-0.2,0.9-0.4,1.3-0.6c0.3-0.1,0.7-0.1,0.9-0.1c0,0,0,0,0.1,0c0.4,0,0.8,0.1,1.2,0.1
				c0.4,0,0.9,0.1,1.3,0.1c0.2,0,0.4,0,0.5,0.1C17,6.9,17.9,6.2,18,5.3l0,0c0.1-1.1-0.7-2.1-1.8-2.2c-0.1,0-0.2,0-0.4,0
				c-0.3,0-0.6,0-0.9-0.1c-0.3,0-0.6-0.1-0.9-0.1c-0.3,0-0.4-0.1-1.4-0.4c-0.1,0-0.2-0.1-0.3-0.1C11.5,2,11,1.9,10.5,1.9
				c-0.3,0-1.1-0.1-2.1-0.1c-0.2,0-0.2,0-0.4,0c-0.4,0-0.9-0.1-1.4-0.1c-0.3,0-0.5,0-0.6-0.1C5.8,1.5,5.6,1.7,5.6,2
				c0,0.3,0.2,0.5,0.5,0.5c0.1,0,0.3,0,0.6,0.1c0.5,0,0.9,0.1,1.4,0.1c0.2,0,0.2,0,0.4,0c1,0.1,1.8,0.1,2.2,0.1
				c0.3,0,0.8,0.1,1.4,0.4c0.1,0,0.2,0.1,0.3,0.1c1.1,0.4,1.2,0.4,1.5,0.5c0.2,0,0.6,0.1,0.9,0.1c0.3,0,0.6,0.1,1,0.1
				c0.2,0,0.4,0,0.4,0c0.5,0,0.9,0.5,0.8,1l0,0c0,0.4-0.4,0.7-0.8,0.6c-0.1,0-0.3,0-0.5-0.1c-0.4,0-0.8-0.1-1.3-0.1
				c-0.4,0-0.9-0.1-1.3-0.1c0,0,0,0-0.1,0c-0.4,0-0.8,0-1.3,0.2c-0.5,0.1-1,0.4-1.5,0.6C10,6.5,9.7,6.7,9.4,6.9
				C9.3,7,9.1,7.1,9.1,7.1l-5,3.8c-0.7,0.6-0.9,1.6-0.3,2.4c0.6,0.8,1.6,0.9,2.4,0.3l4.2-3.2c0.6-0.5,0.6-0.5,0.8-0.6
				c0.2-0.2,0.3-0.5,0.1-0.7C11,8.9,10.7,8.9,10.5,9C10.3,9.2,10.3,9.2,9.7,9.6z"/>
			<path class="st0" d="M1.4,8.4c0.9,0.7,1.5,1.4,2.7,3l0.8-0.6C3.7,9.1,3,8.4,2,7.6L1.4,8.4L1.4,8.4z M12.4,18.5
				c0.8,0.6,1.8,0.4,2.4-0.4c0.6-0.8,0.4-1.8-0.4-2.4l-0.3-0.2l-0.6,0.8l0.3,0.2c0.3,0.2,0.4,0.7,0.2,1c-0.2,0.3-0.7,0.4-1,0.2
				l-0.8-0.6l-0.6,0.8L12.4,18.5z"/>
			<path class="st0" d="M15.1,17.5c0.8,0.6,1.8,0.4,2.4-0.4c0.6-0.8,0.4-1.8-0.4-2.4l-0.8-0.6L15.8,15l0.8,0.6
				c0.3,0.2,0.4,0.7,0.1,1c-0.2,0.3-0.7,0.4-1,0.1l-1.5-1.1l-0.6,0.8L15.1,17.5z"/>
			<path class="st0" d="M17.7,16.4c0.8,0.6,1.8,0.4,2.4-0.4c0.6-0.8,0.4-1.8-0.4-2.4l-1.5-1.1l-0.6,0.8l1.5,1.1
				c0.3,0.2,0.4,0.7,0.1,1c-0.2,0.3-0.7,0.4-1,0.1l-2-1.5l-0.6,0.8L17.7,16.4z"/>
			<path class="st0" d="M17.9,13.7c0.7,0.6,1.8,0.4,2.4-0.3c0.6-0.8,0.4-1.8-0.3-2.4l-0.3-0.3L19,11.5l0.3,0.3
				c0.3,0.2,0.4,0.7,0.1,1c-0.2,0.3-0.7,0.4-1,0.1l-0.3-0.2l-0.6,0.8L17.9,13.7z M13.4,2.9c0.4,0,1.1-0.1,2.2-0.1c0.2,0,0.2,0,0.4,0
				c0.5,0,0.9-0.1,1.4-0.1c0.3,0,0.5,0,0.6-0.1l-0.1-1c-0.1,0-0.3,0-0.6,0.1c-0.5,0-0.9,0.1-1.4,0.1c-0.2,0-0.2,0-0.4,0
				c-1,0.1-1.8,0.1-2.1,0.1c-0.4,0-0.9,0.1-1.6,0.4l0.3,0.9C12.7,3,13.2,2.9,13.4,2.9z"/>
			<path class="st0" d="M18,0.9l5.3,7.2c0.2,0.2,0.1,0.5-0.1,0.7C23.1,9,22.7,9,22.6,8.7l-5.3-7.2c-0.2-0.2-0.1-0.5,0.1-0.7
				C17.6,0.6,17.9,0.7,18,0.9z"/>
			<path class="st0" d="M5.9,0.9L0.6,8.1C0.4,8.4,0.5,8.7,0.7,8.8C0.9,9,1.2,9,1.4,8.7l5.3-7.2C6.9,1.3,6.8,1,6.6,0.8
				C6.4,0.6,6.1,0.7,5.9,0.9z"/>
		</g>
	</g>
</g>
</svg>
