<?xml version="1.0" encoding="utf-8"?>
<!-- Generator: Adobe Illustrator 21.1.0, SVG Export Plug-In . SVG Version: 6.00 Build 0)  -->
<svg version="1.1" id="Calque_9" xmlns="http://www.w3.org/2000/svg" xmlns:xlink="http://www.w3.org/1999/xlink" x="0px" y="0px"
	 viewBox="0 0 171.4 57.8" style="enable-background:new 0 0 171.4 57.8;" xml:space="preserve">
<style type="text/css">
	.st0{fill:#003399;stroke:#000000;stroke-width:0.5;stroke-miterlimit:10;}
</style>
<title>ALOUETTE_III</title>
<path class="st0" d="M125.4,22.4c0,0,66.1,5.8,33.1,29.8c-0.2,1,0.1,8.8-6.4,3.6c-1.3-0.4-2.7-0.5-4-0.3v-3.2l-20.8-0.7l-17.5-2.1
	c0,0-6.9,6.9-8-1.1c0.2-0.3-12.1-6.7-12.1-6.7s-54.6-16-62.2-16c-1.5-0.1-11.7-3.3-11.7-3.3l-2.3,10.5h-2V19.7l0.9-0.9l-12-9.6
	l1.4-2l11.3,7.3l1.7,0.2l11.8-6.1l1.8,2.6L20.9,16l63.2,9.5c0,0,4.4-1-6.1-3.1c0.3,0.1,0.1-7.1,0.1-7.1l7,0.4v1.7l28.1,0.4v3.1
	l-4.9,0.5v2.7l8.9-2.3l1-9.9L40.3,3.3l0.5-3l76.7,8.4l0.9-1.8l8.2,0.5v1.8l44.6,5.8l-0.2,1.6l-45.2-4.4L125.4,22.4z"/>
</svg>
