<svg xmlns="http://www.w3.org/2000/svg" viewBox="0 0 164.78 45.2"><title>Asset 1</title><g id="Layer_2" data-name="Layer 2"><g id="Layer_1-2" data-name="Layer 1"><path d="M164.78,28.37a3.35,3.35,0,0,0-.06-.68,1.08,1.08,0,0,0-1-.92,4.94,4.94,0,0,0-.56,0c-.79,0-1.57.15-2.36.13q-2.9,0-5.79,0c-.91,0-1.82.11-2.73.19a4.76,4.76,0,0,1-1.18,0,3,3,0,0,0-.74,0,5.25,5.25,0,0,1-2.16,0,9.14,9.14,0,0,0-1.69-.36,2.75,2.75,0,0,0-1.59.15,5.08,5.08,0,0,1-.84.24,1,1,0,0,1-1.09-.25c-.12-.12-.27-.27-.42-.24a12,12,0,0,0-2.3.26l-.05,0a1.31,1.31,0,0,1-1.36.14,5.33,5.33,0,0,0-2.58-.21,1.93,1.93,0,0,1-.85-.07,1.22,1.22,0,0,0-1.08,0,3.11,3.11,0,0,1-2,.34,13.52,13.52,0,0,0-3.35,0,3.66,3.66,0,0,1-.93,0c-.84-.11-1.69.08-2.54-.08a1.85,1.85,0,0,0-.49,0,1.87,1.87,0,0,1-.49,0A9.48,9.48,0,0,0,122.9,27c-.75,0-.91-.2-.78-1a1.13,1.13,0,0,0-.52-1.33.78.78,0,0,1-.37-1,2.66,2.66,0,0,0,.05-.87.72.72,0,0,0-.56-.67,1.49,1.49,0,0,0-.74,0,.8.8,0,0,0-.64,1.24c.08.17.18.33.25.5a.46.46,0,0,1-.13.57.91.91,0,0,1-.89.1c-.24-.08-.26-.3-.22-.52a2.21,2.21,0,0,0,.05-.43c0-.36-.19-.51-.53-.38a1.66,1.66,0,0,1-1.09,0,.76.76,0,0,0-.86.16c-.21.25,0,.46.13.67s0,.39-.2.48a.79.79,0,0,1-1.14-.73c0-.77,0-1.53,0-2.3a1.28,1.28,0,0,1,.58-1.11,1.85,1.85,0,0,0,.78-1,6.32,6.32,0,0,0-.75-5.25.8.8,0,0,0-.37-.33A2.22,2.22,0,0,1,114,13a1,1,0,0,0-.57-.46,2.24,2.24,0,0,1-1.2-.75,1.1,1.1,0,0,0-.94-.39,3.45,3.45,0,0,1-1.11-.11.65.65,0,0,1-.52-.55c0-.14-.06-.28-.08-.43-.12-.72.06-1,.77-1.15a5.82,5.82,0,0,0,.73-.17c.27-.1.32-.31.15-.55a.79.79,0,0,0-.86-.36,3.55,3.55,0,0,1-1.42,0c-.91-.15-1.12,0-1.32.93a10.3,10.3,0,0,0-.09,1.61c0,.53-.14.65-.64.74l-.19,0a.55.55,0,0,0-.5.72,1.18,1.18,0,0,0,.5.83,1.25,1.25,0,0,1,.49.55.66.66,0,0,1-.54,1,3.64,3.64,0,0,1-1.24.11,28.66,28.66,0,0,0-3.79-.09,1.75,1.75,0,0,0-.43.05c-.93.22-1.2.6-1.11,1.56s-.14,1.11-1,1.12c-1.41,0-2.83,0-4.24,0a9.22,9.22,0,0,1-1.24-.13c-.39-.06-.53-.21-.56-.62,0-.23,0-.46,0-.69a21.8,21.8,0,0,0,0-2.24c-.11-.93,0-1.87-.19-2.79a1,1,0,0,1,0-.37A5.11,5.11,0,0,0,93,8.34c-.09-.48.11-.68.59-.77a2,2,0,0,0,.71-.21c.32-.2.32-.48,0-.68a3.21,3.21,0,0,1-.54-.3.75.75,0,0,0-1-.1.63.63,0,0,1-1-.69,12.72,12.72,0,0,0,.07-2.42A8,8,0,0,1,92,1.37a3,3,0,0,0,0-.74c0-.4-.2-.62-.47-.62S91,.21,91,.6a2.83,2.83,0,0,0,0,.68,30.56,30.56,0,0,1,.12,3.54,4.85,4.85,0,0,1-.21,2.26,1.61,1.61,0,0,0,0,.49c-.09,1.07-.24,2.14-.26,3.22a.55.55,0,0,1-.33.56.52.52,0,0,1-.61-.2,14.7,14.7,0,0,0-1.22-1.06c-.38-.34-1.06-.45-1.32-.15s-.84.61-1.19,1a2.78,2.78,0,0,1-1.14.73A2.92,2.92,0,0,0,84,12a.66.66,0,0,0-.15,1.06c.09.11.2.21.28.33a.8.8,0,0,1,.12.82c-.14.29-.42.31-.69.31-.46,0-.91,0-1.37,0A1.11,1.11,0,0,0,81,15.66c0,.27,0,.54,0,.81a1,1,0,0,1-.08.49.44.44,0,0,1-.51.27.43.43,0,0,1-.37-.44,1,1,0,0,1,.06-.37,3.4,3.4,0,0,0,.15-1.23A1.2,1.2,0,0,0,79,13.83a1.23,1.23,0,0,0-1.3,1c-.05.24-.09.49-.15.73s-.22.32-.47.25c-.74-.19-.87-.13-1,.63a1.19,1.19,0,0,1-.94,1c-.18.05-.36.1-.53.17a.27.27,0,0,0-.2.29.31.31,0,0,0,.23.26,2.68,2.68,0,0,0,.49.07c.66.05,1,.36.89,1a3.36,3.36,0,0,0,.21,1.94c.27.63,0,1-.7,1h-.19c-.77,0-1.07.37-1,1.15a4.54,4.54,0,0,1,.06.55c0,.43-.31.59-.68.39a.89.89,0,0,1-.21-.14,1.3,1.3,0,0,0-1.22-.28,8.34,8.34,0,0,1-1.73.19,7,7,0,0,0-1.66.19,9.31,9.31,0,0,1-3.33.22c-1.06-.17-2.13-.31-3.2-.38a6.12,6.12,0,0,1-.81-.07c-.66-.13-.83-.46-.59-1.08.06-.15.14-.3.19-.46a.79.79,0,0,0-.06-.66,2.14,2.14,0,0,0-1.58-.71,1.17,1.17,0,0,0-1,1.26,5.18,5.18,0,0,0,.09.74.73.73,0,0,1-.32.81,1,1,0,0,0-.45,1.23,1.92,1.92,0,0,1-.09,1.22c-.1.23-.25.43-.51.38a4.86,4.86,0,0,0-1.36,0c-.43,0-.65-.16-.71-.6a2.4,2.4,0,0,1,.09-1.17,2,2,0,0,0,0-1.28,3.44,3.44,0,0,1,.06-2.2c.21-.55.06-.86-.52-1a3.9,3.9,0,0,0-1.23-.18,2.94,2.94,0,0,1-1.28-.24,8.64,8.64,0,0,0-3.77-.55c-.87,0-1.72.07-2.58.16a5.26,5.26,0,0,0-.92.16.92.92,0,0,0-.64.55,2.61,2.61,0,0,0-.28,1.57,1.09,1.09,0,0,1-.17.89,1.93,1.93,0,0,0-.28,1.19c0,.64,0,1.29,0,1.93,0,.82-.34,1.1-1.13,1a7.26,7.26,0,0,0-.93-.05c-.6,0-1.2,0-1.8-.09a15.32,15.32,0,0,0-2.35-.09,8.72,8.72,0,0,1-2.42,0,3.46,3.46,0,0,0-1.24,0,8.76,8.76,0,0,1-1.43.09H23.91a5.15,5.15,0,0,0-.68,0,11.51,11.51,0,0,1-3.16,0,1.93,1.93,0,0,0-.62,0,5.46,5.46,0,0,1-1.12.08c-4-.06-7.93.13-11.89-.11-1.78-.11-3.57.08-5.35.13-.67,0-1,.32-1,1,0,.18,0,.37,0,.56-.06.87.11,1.74.11,2.61q0,6.26,0,12.53c0,.17,0,.33,0,.5,0,.57.22.78.76.88a7,7,0,0,0,1.36.12c6.83-.07,13.66-.05,20.49-.08,22.12-.09,44.24,0,66.36,0h67.18a1,1,0,0,0,.86-.42,6.61,6.61,0,0,0,.77-1.2A10.9,10.9,0,0,1,159,41.6c.51-.73.9-1.53,1.43-2.24.4-.53.68-1.15,1.08-1.66.53-.67.87-1.45,1.37-2.13s.74-1.21,1.16-1.76a3.29,3.29,0,0,0,.69-2.13C164.78,30.57,164.78,29.47,164.78,28.37ZM54.59,25.85c0,.84-.34,1.16-1.19,1.16H46.8c-.93,0-1.05-.12-1.06-1s0-1.74,0-2.62a1.8,1.8,0,0,0-.19-.9,1.65,1.65,0,0,1-.19-1c0-.38.23-.59.6-.58a2,2,0,0,1,1.19.29,1.8,1.8,0,0,0,1.48.28,23.5,23.5,0,0,1,3.73-.08,12.19,12.19,0,0,1,1.4.28.82.82,0,0,1,.65.69,4.06,4.06,0,0,1,.17,1C54.6,24.23,54.61,25,54.59,25.85Zm55.25-11.26c-.23,0-.26-.23-.26-.42s0-.41.28-.39.3.24.31.46S110.09,14.62,109.84,14.59Zm7.42,10c-.29,0-.47-.17-.43-.41a.4.4,0,0,1,.41-.38.57.57,0,0,1,.48.51C117.69,24.59,117.49,24.62,117.27,24.62Z" style="fill:#2a3d98"/></g></g></svg>