<svg xmlns="http://www.w3.org/2000/svg" viewBox="0 0 167.58 124.33"><defs><style>.cls-1{fill:#0c1eb0;}</style></defs><title>atl2_allie</title><g id="Calque_2" data-name="Calque 2"><g id="ATL2"><polygon class="cls-1" points="60.97 2.03 72.76 0 74.99 3.46 104.26 48.87 128.44 48.87 126 41.46 127.11 41.28 130.39 48.87 131.51 48.87 131.51 45.84 132.39 45.84 132.39 42.16 133.76 42.16 133.76 48.87 132.72 48.87 132.72 50.73 135.84 50.73 135.84 51.77 133.84 51.77 133.84 55.22 154.79 55.22 167.58 62.9 167.58 67.94 158.04 74.25 143.81 74.25 143.81 77.85 148.13 77.85 148.13 75.87 149.17 75.87 149.17 78.23 150.29 78.23 150.29 80.47 151.09 80.47 151.09 76.23 152.45 76.23 152.45 80.47 154.61 80.47 154.61 82.71 152.37 82.71 155.89 92.31 154.29 92.31 151.09 85.59 150.05 85.83 149.09 91.35 147.09 91.35 147.97 86.15 131.96 91.27 149.17 121.13 152.37 121.13 152.29 124.33 139.97 124.33 139.97 121.2 101.63 81.59 53.98 81.66 53.98 86.11 46.97 86.11 40.37 79.51 27.22 76.15 0 76.15 0 72.92 23.84 69.54 26.41 64.33 26.41 59.79 25.09 59.79 20.76 45.48 29.2 45.48 30.67 48.56 32.94 48.56 32.8 45.63 41.89 41.15 43.51 41.15 48.2 60.59 87.66 60.59 63.91 4.87 61.42 5.18 60.97 2.03"/></g></g></svg>
