<svg xmlns="http://www.w3.org/2000/svg" viewBox="0 0 72.5 72.5"><title>layers</title><g id="Layer_2" data-name="Layer 2"><g id="Layer_1-2" data-name="Layer 1"><path d="M0,36.25A36.25,36.25,0,1,1,36.25,72.5,36.25,36.25,0,0,1,0,36.25Z" style="fill:#ceeef2"/><path d="M36.25,0a36.25,36.25,0,0,1,0,72.5Z" style="fill:#334d5c"/><path d="M0,36.25A36.25,36.25,0,0,1,36.25,0V72.5A36.25,36.25,0,0,1,0,36.25Z" style="fill:#ceeef2"/><path d="M17.53,36.25A18.72,18.72,0,1,1,36.25,55,18.72,18.72,0,0,1,17.53,36.25Z" style="fill:#f7e38f"/><path d="M17.53,36.25A18.72,18.72,0,0,1,36.25,17.53V55A18.71,18.71,0,0,1,17.53,36.25Z" style="fill:#edc92f"/><path d="M9,31.12l7.07,1.5c.07-.44.18-.86.28-1.29l-7.09-1.5A.66.66,0,0,0,9,31.12Z" style="fill:#edc92f"/><path d="M20.29,58.93a.65.65,0,0,0,.18.91.66.66,0,0,0,.5.1.68.68,0,0,0,.42-.28l4-6-1.1-.73Z" style="fill:#edc92f"/><path d="M12.64,50.79a.65.65,0,0,0-.19.91.67.67,0,0,0,.69.29.76.76,0,0,0,.23-.09L19.45,48c-.25-.37-.48-.73-.72-1.1Z" style="fill:#edc92f"/><path d="M29.84,63.22a.65.65,0,0,0,.51.77.79.79,0,0,0,.26,0,.66.66,0,0,0,.51-.51l1.5-7.09c-.44-.07-.86-.18-1.29-.28Z" style="fill:#edc92f"/><path d="M20.81,12.45a.65.65,0,0,0-.19.91l3.94,6.08,1.1-.72-3.94-6.08A.65.65,0,0,0,20.81,12.45Z" style="fill:#edc92f"/><path d="M12.67,20.47a.65.65,0,0,0,.18.91l6,4c.23-.37.48-.73.73-1.1l-6-4A.66.66,0,0,0,12.67,20.47Z" style="fill:#edc92f"/><path d="M16.15,40.24c0-.22-.09-.44-.12-.64L8.93,41a.66.66,0,1,0,.26,1.29l7.1-1.4C16.25,40.66,16.19,40.46,16.15,40.24Z" style="fill:#edc92f"/><path d="M31.62,16.29l.64-.15L32.9,16l-1.4-7.1a.66.66,0,0,0-1.29.26Z" style="fill:#edc92f"/></g></g></svg>
