<?xml version="1.0" encoding="utf-8"?>
<!-- Generator: Adobe Illustrator 21.1.0, SVG Export Plug-In . SVG Version: 6.00 Build 0)  -->
<svg version="1.1" id="Calque_1" xmlns="http://www.w3.org/2000/svg" xmlns:xlink="http://www.w3.org/1999/xlink" x="0px" y="0px"
	 viewBox="0 0 100 125" style="enable-background:new 0 0 100 125;" xml:space="preserve">
<style type="text/css">
	.st0{fill:none;}
	.st1{opacity:0.49;enable-background:new    ;}
	.st2{fill:#FFFFFF;}
</style>
<path d="M40.6,54.4"/>
<path class="st0" d="M36.9,42.3"/>
<path d="M33.5,47.2"/>
<path d="M27.4,49.6"/>
<path class="st1" d="M87.5,22.7"/>
<path class="st1" d="M82,21.3"/>
<path class="st1" d="M84,26.8"/>
<path class="st1" d="M84,26.8"/>
<path d="M84,19"/>
<path class="st2" d="M47,54.2v-0.9h-9.4v-3.7h-3.2v-4.5h3.2v-0.5h-3.2v-1.8h2.1v-0.5h-2.1v-3.5h-1.3v3.5h-2.3v0.5h2.3v1.8h-3.4v0.5
	h3.4v4.5h-6v2.3h-3v2.5L2.6,54.5L7,63.8h77.5l4.2-9.6H47z M27.6,50.3H37v1.1h-9.4V50.3z M24.7,52.4h12.1v1.2h9.6v0.8h-9.6h-0.1H24.7
	V52.4z M83,62.8L8.3,62.7l-3.7-7.2h82L83,62.8z"/>
</svg>
