<svg id="Calque_1" data-name="Calque 1" xmlns="http://www.w3.org/2000/svg" viewBox="0 0 92.08 92.08"><defs><style>.cls-1,.cls-4{fill:none;}.cls-2{opacity:0.49;isolation:isolate;}.cls-3{fill:#fff;}.cls-4{stroke:#446e58;stroke-miterlimit:10;stroke-width:1.5px;}</style></defs><title>bateau_2</title><path d="M40.6,54.4" transform="translate(-4.96 -10.81)"/><path class="cls-1" d="M36.9,42.3" transform="translate(-4.96 -10.81)"/><path d="M33.5,47.2" transform="translate(-4.96 -10.81)"/><path d="M27.4,49.6" transform="translate(-4.96 -10.81)"/><path class="cls-2" d="M87.5,22.7" transform="translate(-4.96 -10.81)"/><path class="cls-2" d="M82,21.3" transform="translate(-4.96 -10.81)"/><path class="cls-2" d="M84,26.8" transform="translate(-4.96 -10.81)"/><path class="cls-2" d="M84,26.8" transform="translate(-4.96 -10.81)"/><path d="M84,19" transform="translate(-4.96 -10.81)"/><path class="cls-3" d="M52.56,55.75v-.9h-9.4v-3.7H40v-4.5h3.2v-.5H40v-1.8h2.1v-.5H40v-3.5h-1.3v3.5h-2.3v.5h2.3v1.8h-3.4v.5h3.4v4.5h-6v2.3h-3v2.5L8.16,56l4.4,9.3h77.5l4.2-9.6Zm-19.4-3.9h9.4v1.1h-9.4Zm-2.9,2.1h12.1v1.2H52v.8H30.26Zm58.3,10.4-74.7-.1L10.16,57h82Z" transform="translate(-4.96 -10.81)"/><circle class="cls-4" cx="46.04" cy="46.04" r="45.29"/></svg>