<svg xmlns="http://www.w3.org/2000/svg" viewBox="0 0 785.45 263.58"><defs><style>.cls-1{fill:#1c9547;}</style></defs><title>batiments_hydrographiques_neutre</title><g id="Calque_2" data-name="Calque 2"><g id="Calque_1-2" data-name="Calque 1"><polygon class="cls-1" points="10.33 263.58 716.84 263.58 716.57 247.95 721.34 247.95 722.13 243.18 779.62 190.2 785.45 189.94 784.65 184.11 706.77 184.64 705.97 105.17 696.17 105.7 695.64 174.31 700.67 174.31 700.15 184.9 674.72 184.64 674.45 179.61 653.52 179.61 653.52 175.1 643.19 174.31 642.4 169.01 626.77 169.01 626.77 158.68 621.73 158.68 621.73 153.65 616.43 153.38 616.17 147.29 611.4 147.29 611.4 143.05 558.69 143.05 558.69 158.94 563.45 158.15 563.45 163.71 568.75 163.71 568.75 174.04 558.69 174.84 558.42 163.18 553.12 163.18 553.65 147.82 521.86 148.08 521.33 137.22 515.77 137.22 515.51 131.13 511.27 131.92 511.27 127.42 489.55 127.42 489.55 122.12 500.14 111.53 495.11 110.73 494.58 74.17 489.55 74.17 490.07 99.87 490.07 110.73 484.25 110.73 484.78 100.4 479.48 100.4 479.48 110.73 473.92 111 473.92 73.64 469.15 73.91 469.68 110.73 463.06 110.73 463.06 100.4 458.29 100.4 458.29 110.47 452.99 110.47 452.99 95.63 458.02 95.63 458.29 83.71 452.46 83.97 452.46 79.21 447.43 79.74 447.43 83.71 442.39 84.5 442.39 79.74 437.36 79.47 437.09 63.58 426.5 63.58 426.5 53.25 420.94 52.98 421.73 64.37 415.9 63.58 415.9 0 410.87 0 410.6 52.98 405.83 52.98 405.83 63.84 399.48 63.84 405.04 74.44 405.04 84.77 400.54 84.5 400.27 111 363.45 111 363.45 89.27 368.48 89.27 368.48 84.77 363.19 84.77 363.19 79.47 357.89 79.47 357.89 85.03 353.38 85.03 353.12 89.8 358.15 89.8 358.42 111.26 342.26 110.73 341.99 100.4 337.23 100.4 337.75 110.73 332.46 111 331.93 100.66 326.63 100.66 326.89 111 321.6 111 321.6 100.93 316.03 100.93 316.03 111 306.23 110.73 305.7 95.1 300.4 95.1 300.4 89.27 284.51 90.07 279.21 95.63 279.74 111.53 263.05 111.53 263.05 98.55 258.81 98.28 258.55 121.86 263.58 121.86 263.85 216.43 241.59 216.43 242.65 168.75 252.46 169.01 252.72 153.65 196.03 153.12 184.11 153.38 184.11 148.88 178.28 148.61 177.75 153.38 152.06 153.65 152.06 158.15 146.76 158.15 147.29 163.98 157.88 163.45 157.88 169.28 147.29 169.28 147.29 179.08 152.85 179.08 152.85 174.04 157.62 174.04 173.25 164.24 189.67 163.98 189.67 174.31 179.08 174.57 179.34 200.8 189.14 200.8 189.67 216.43 152.06 216.16 152.06 205.3 157.35 205.3 162.92 200.8 163.18 195.5 146.76 189.94 131.39 189.67 131.13 163.71 125.83 163.71 126.36 190.47 121.06 189.94 121.06 196.03 104.9 195.76 105.17 200.53 98.81 200.8 99.61 205.57 104.9 205.57 104.9 210.87 20.4 211.13 57.48 163.71 67.82 163.45 68.35 158.68 62.78 158.41 63.05 153.38 58.54 153.12 58.54 158.15 52.19 158.15 52.19 163.45 47.15 163.45 47.15 168.75 42.12 169.28 0 216.69 0 232.06 4.77 237.35 5.3 248.22 10.6 253.51 10.33 263.58"/></g></g></svg>
