<svg xmlns="http://www.w3.org/2000/svg" viewBox="0 0 782.51 159.32"><defs><style>.cls-1{fill:#ef3a24;}</style></defs><title>batiments_d_experimentations_d_essais_et_de_mesures_ennemi</title><g id="Calque_2" data-name="Calque 2"><g id="Calque_1-2" data-name="Calque 1"><polygon class="cls-1" points="12.82 158.75 762.15 159.32 779.64 127.16 779.38 123.2 782.51 122.99 782.3 120.27 765.8 120.06 765.8 123.2 733.85 123.2 724.03 123.2 723.82 119.86 716.93 119.86 716.93 122.78 714.22 122.78 714.22 120.48 713.97 116.35 704.18 116.91 694.59 122.56 688.76 122.93 688.38 126.32 630.62 126.32 630.43 122.93 623.66 122.93 624.03 87.37 620.46 87.37 620.46 81.35 591.86 81.17 591.48 74.02 588.28 74.02 588.28 71.38 578.69 71.19 575.11 75.33 575.3 81.17 572.29 81.17 571.91 55.01 569.28 55.01 569.09 81.54 556.11 80.98 555.92 74.58 546.7 74.96 546.7 81.35 543.32 81.35 543.32 77.97 536.92 78.16 536.54 81.17 533.53 81.35 533.53 87.75 536.36 87.75 536.54 93.39 539.74 93.96 539.93 103.93 527.14 104.12 526.38 93.77 523.56 93.58 523.56 90.39 527.14 90.39 527.14 87.75 520.93 87.56 520.74 78.16 517.16 77.97 516.98 74.39 514.15 74.58 514.15 71.38 510.95 71.57 510.77 87.94 507.19 87.94 507.19 90.57 510.95 90.57 513.78 90.76 513.78 101.67 510.77 101.48 510.77 103.18 492.33 103.74 491.76 100.55 488.19 100.55 488.19 97.53 481.42 97.72 481.79 104.31 465.61 103.74 465.61 100.17 462.22 100.17 462.22 96.97 459.21 97.16 459.03 84.18 469.37 74.96 474.45 74.58 475.21 67.81 467.23 68.11 466.56 65.22 460.77 65.22 443.19 64.78 443.19 68.11 446.3 68.11 446.3 71.68 449.2 71.68 449.42 77.46 452.09 77.46 452.54 81.25 448.75 81.03 449.64 91.71 452.76 91.26 452.54 93.94 452.76 100.17 449.64 100.17 449.64 103.73 432.5 103.73 432.06 97.27 420.93 97.72 420.93 103.51 404.46 104.17 403.56 97.27 400.89 97.27 400.67 81.47 404.23 81.47 404.01 78.13 410.47 77.46 410.24 74.12 413.81 74.35 417.37 69.23 409.8 68.34 409.8 64.78 384.64 65 384.64 68.11 391.32 77.46 393.99 77.46 393.99 80.58 390.21 80.58 391.1 93.49 394.44 93.71 394.44 97.27 390.21 97.27 387.98 103.28 342.8 103.73 339.24 103.95 339.24 84.14 336.12 84.14 336.12 71.23 339.9 70.78 339.46 67.89 342.35 67.89 346.36 65.22 350.59 65.22 355.26 61.88 359.05 61.44 358.6 54.98 355.71 54.98 339.46 46.3 335.9 45.85 335.9 49.19 312.97 48.3 312.97 51.42 326.32 62.77 330.78 62.33 330.55 65.67 326.55 65.44 326.55 67.22 319.65 67.22 319.87 77.46 322.99 77.46 323.21 87.26 326.1 87.26 326.1 95.49 326.77 103.28 300.95 104.17 300.5 93.94 287.82 94.38 287.82 103.06 274.9 103.51 274.9 86.59 271.79 84.81 271.79 77.69 278.24 77.46 278.02 71.23 272.01 71.45 271.79 75.02 268.67 75.02 268.67 77.91 265.33 78.13 265.33 81.25 265.33 87.7 265.11 103.73 249.53 103.73 248.86 100.39 245.75 100.61 245.52 94.16 222.82 93.94 223.26 84.14 226.38 84.14 226.38 71.23 213.47 71.23 213.69 94.38 197.44 93.94 197.44 87.92 194.1 87.48 194.1 80.8 190.99 80.58 190.54 75.24 186.98 74.57 187.2 67.89 184.31 67.89 184.31 55.2 180.08 54.98 180.53 45.63 193.88 45.41 193.66 38.51 190.99 38.51 190.76 33.17 187.43 33.17 187.43 39.62 174.51 39.84 174.51 26.27 180.53 25.6 180.75 22.7 191.21 22.93 190.99 20.03 187.65 19.81 187.2 10.02 184.31 10.02 184.31 19.37 164.94 20.03 164.94 16.03 161.83 16.03 161.83 0.45 145.58 0 145.58 4.01 155.37 4.01 155.37 20.26 148.03 20.26 148.03 22.48 158.49 23.15 158.71 25.82 164.72 26.04 165.17 94.16 142.46 94.16 142.02 87.92 138.23 87.7 138.23 83.25 129.1 83.25 129.1 87.92 132.89 87.7 132.89 91.04 135.78 91.04 135.78 97.5 132.89 97.5 132.67 100.17 116.19 100.61 116.86 129.77 112.63 133.11 0 132.67 0 139.79 12.82 158.75"/></g></g></svg>
