<svg xmlns="http://www.w3.org/2000/svg" viewBox="0 0 735 160.34"><defs><style>.cls-1{fill:#1c9547;}</style></defs><title>batral_neutre</title><g id="Calque_2" data-name="Calque 2"><g id="Calque_1-2" data-name="Calque 1"><polygon class="cls-1" points="0 118.34 14 127.34 25 160.34 697 160.34 735 121.34 733 105.34 726 108.34 654 107.34 653.64 103.79 660.53 103.79 660.15 100.34 643.3 100.72 643.3 103.41 649.04 103.41 649.04 107.62 594.28 107.23 594.28 110.68 600.79 120.64 601.17 124.47 596.57 128.3 541.04 127.92 524.57 142.47 509.64 142.47 509.64 138.26 513.47 138.26 512.7 131.36 495.85 132.13 495.85 138.26 500.06 138.64 500.06 142.09 479.76 142.09 481.68 138.26 481.68 132.13 467.51 132.13 467.89 138.26 471.34 138.64 471.34 142.09 450.27 142.09 449.89 139.02 452.95 139.02 452.19 132.13 435.72 132.13 435.72 138.26 441.47 138.26 441.47 142.09 417.34 142.09 417.34 137.49 421.93 137.49 421.55 131.75 403.55 131.75 404.7 138.26 410.83 138.26 410.83 141.7 389.38 142.47 400.1 129.06 400.87 121.41 320.44 121.41 320.06 110.68 274.87 111.45 299 121.02 274.87 121.02 271.42 110.3 267.59 103.02 267.59 99.96 287.89 100.34 301.29 103.41 322.36 100.72 333.08 100.34 349.93 96.89 359.51 96.51 363.72 110.3 366.4 110.68 366.02 93.83 275.63 94.21 275.63 89.62 270.66 89.23 270.66 93.45 261.08 93.83 261.08 120.64 258.02 121.02 254.95 111.06 256.1 20.68 254.19 14.17 263.76 17.62 266.83 19.53 271.42 19.15 271.42 12.64 262.23 2.3 253.8 1.92 249.97 0 246.53 2.68 236.19 2.3 243.08 9.96 247.68 10.72 246.91 16.47 235.8 16.47 243.08 23.75 246.91 23.36 247.29 47.11 219.34 48.26 219.34 58.6 214.74 58.6 214.74 47.49 197.51 47.87 197.51 36.38 187.55 26.81 177.97 33.7 174.14 33.7 173.38 41.36 175.29 47.11 166.87 51.7 166.48 71.23 155.76 72.38 155.76 109.53 149.25 111.06 148.48 116.81 28.61 107.23 1.8 107.23 0 118.34"/></g></g></svg>
