<svg xmlns="http://www.w3.org/2000/svg" viewBox="0 0 489 489"><defs><style>.cls-1{fill:#446e58;}.cls-2{fill:none;stroke:#fff;stroke-miterlimit:10;stroke-width:5px;}</style></defs><title>BCR</title><g id="Calque_2" data-name="Calque 2"><g id="Calque_1-2" data-name="Calque 1"><path class="cls-1" d="M244.5,8a236.56,236.56,0,0,1,92.05,454.42A236.56,236.56,0,0,1,152.45,26.58,235,235,0,0,1,244.5,8m0-8C109.47,0,0,109.47,0,244.5S109.47,489,244.5,489,489,379.53,489,244.5,379.53,0,244.5,0Z"/></g><g id="BATIMENT_DE_COMMANDEMENT"><g id="Calque_2-2" data-name="Calque 2"><g id="Calque_1-2-2" data-name="Calque 1-2"><g id="Calque_2-2-2" data-name="Calque 2-2"><g id="Calque_1-2-2-2" data-name="Calque 1-2-2"><polygon class="cls-2" points="20.5 270.42 20.5 266.71 36.87 266.71 36.87 259.59 109.46 259.59 109.46 246.07 99.65 246.07 99.25 241.8 112.09 241.8 122.98 241.8 122.98 246.77 127.25 246.41 127.25 240.38 130.81 240.38 130.81 236.82 132.95 236.82 132.95 223.29 156.44 223.29 156.44 243.04 164.97 242.65 164.97 253.19 168.7 253.19 170.19 246.78 173.52 246.78 173.52 253.19 177.07 253.19 177.07 246.78 182.06 246.78 182.06 252.83 185.61 252.45 185.61 237.53 189.17 237.53 189.17 216.18 199.14 216.18 199.14 209.06 202.69 209.06 202.69 221.53 194.9 220.75 195.69 252.87 211.24 252.12 211.24 240.38 214.41 240.38 218.35 239.72 218.35 253.9 239.37 253.9 237.11 248.53 257.5 248.89 257.5 252.47 291.66 252.86 291.66 222.27 283.83 221.52 283.83 209.06 291.66 209.06 291.66 215.47 297.35 215.86 297.35 254.03 299.63 236.64 303.05 236.26 303.05 251.76 311.58 251.76 311.58 247.23 320.68 245.32 340.76 245.71 340.76 248.84 336.52 252.32 354.29 252.72 354.29 245.49 347.03 245.87 338.71 243.22 327.76 240.12 316.05 239.46 311.9 240.12 310.38 231.89 360.69 229.62 360.69 202.65 363.54 202.65 363.54 210.26 374.21 209.89 374.21 219.02 364.62 219.02 365.37 226.97 368.41 231.88 380.62 231.51 380.62 225.45 389.38 225.06 385.95 228.47 394.7 229.24 392.81 240.12 418.34 237.94 418.34 240.12 408.42 242.1 406.91 250.82 409.56 253.09 469 250.43 463.67 258 457.96 267.08 455.67 275.03 455.28 281.48 456.81 284.5 20.5 284.5 20.5 270.42"/></g></g></g></g></g></g></svg>