<svg xmlns="http://www.w3.org/2000/svg" viewBox="0 0 164.78 45.2"><title>Asset 2</title><g id="Layer_2" data-name="Layer 2"><g id="Layer_1-2" data-name="Layer 1"><path d="M89.12,45.09c-22.12,0-44.24-.06-66.36,0-6.83,0-13.66,0-20.49.08A7,7,0,0,1,.9,45.08c-.55-.1-.73-.31-.76-.88,0-.17,0-.33,0-.5q0-6.26,0-12.53c0-.87-.17-1.74-.11-2.61,0-.19,0-.38,0-.56.08-.68.38-1,1-1,1.78,0,3.57-.23,5.35-.12,4,.24,7.93.05,11.89.11a5.46,5.46,0,0,0,1.12-.08,1.93,1.93,0,0,1,.62,0,11.51,11.51,0,0,0,3.16,0,5.16,5.16,0,0,1,.68,0h8.41a8.75,8.75,0,0,0,1.43-.09,3.46,3.46,0,0,1,1.24,0,8.72,8.72,0,0,0,2.42,0,15.32,15.32,0,0,1,2.35.09c.6,0,1.2.08,1.8.09a7.26,7.26,0,0,1,.93.05c.79.11,1.11-.17,1.13-1,0-.64,0-1.29,0-1.93A1.93,1.93,0,0,1,43.91,23a1.09,1.09,0,0,0,.17-.89,2.61,2.61,0,0,1,.28-1.57.92.92,0,0,1,.64-.55,5.26,5.26,0,0,1,.92-.16c.86-.09,1.72-.14,2.58-.16a8.64,8.64,0,0,1,3.77.55,2.94,2.94,0,0,0,1.28.24,3.9,3.9,0,0,1,1.23.18c.58.17.73.48.52,1a3.44,3.44,0,0,0-.06,2.2,2,2,0,0,1,0,1.28,2.4,2.4,0,0,0-.09,1.17c.06.45.28.64.71.6a4.86,4.86,0,0,1,1.36,0c.25,0,.41-.16.51-.38a1.92,1.92,0,0,0,.09-1.22A1,1,0,0,1,58.24,24a.73.73,0,0,0,.32-.81,5.18,5.18,0,0,1-.09-.74,1.17,1.17,0,0,1,1-1.26,2.14,2.14,0,0,1,1.58.71.79.79,0,0,1,.06.66c0,.16-.13.31-.19.46-.24.61-.07.95.59,1.08a6.12,6.12,0,0,0,.81.07c1.07.07,2.14.21,3.2.38a9.31,9.31,0,0,0,3.33-.22,7,7,0,0,1,1.66-.19,8.34,8.34,0,0,0,1.73-.19,1.3,1.3,0,0,1,1.22.28.89.89,0,0,0,.21.14c.37.19.66,0,.68-.39a4.54,4.54,0,0,0-.06-.55c-.06-.78.23-1.11,1-1.15h.19c.68-.06,1-.42.7-1A3.36,3.36,0,0,1,76,19.27c.1-.63-.22-.94-.89-1a2.68,2.68,0,0,1-.49-.07.31.31,0,0,1-.23-.26.27.27,0,0,1,.2-.29c.17-.07.35-.12.53-.17a1.19,1.19,0,0,0,.94-1c.11-.76.23-.82,1-.63.25.07.41,0,.47-.25s.1-.49.15-.73a1.23,1.23,0,0,1,1.3-1,1.2,1.2,0,0,1,1.32,1.37,3.4,3.4,0,0,1-.15,1.23,1,1,0,0,0-.06.37.43.43,0,0,0,.37.44.44.44,0,0,0,.51-.27,1,1,0,0,0,.08-.49c0-.27,0-.54,0-.81a1.11,1.11,0,0,1,1.17-1.12c.46,0,.91,0,1.37,0,.28,0,.55,0,.69-.31a.8.8,0,0,0-.12-.82c-.08-.12-.19-.22-.28-.33A.66.66,0,0,1,84,12a2.92,2.92,0,0,1,.79-.36,2.78,2.78,0,0,0,1.14-.73c.35-.38.83-.59,1.19-1s.94-.19,1.32.15a14.69,14.69,0,0,1,1.22,1.06.52.52,0,0,0,.61.2.55.55,0,0,0,.33-.56c0-1.08.17-2.15.26-3.22a1.61,1.61,0,0,1,0-.49,4.85,4.85,0,0,0,.21-2.26A30.56,30.56,0,0,0,91,1.28,2.83,2.83,0,0,1,91,.6c0-.39.22-.61.5-.6s.45.23.47.62a3,3,0,0,1,0,.75,8,8,0,0,0-.11,1.79,12.72,12.72,0,0,1-.07,2.42.63.63,0,0,0,1,.69.75.75,0,0,1,1,.1,3.21,3.21,0,0,0,.54.3c.32.2.33.48,0,.68a2,2,0,0,1-.71.21c-.48.09-.68.29-.59.77a5.12,5.12,0,0,1-.11,2.1,1,1,0,0,0,0,.37c.17.92.08,1.86.19,2.79a21.8,21.8,0,0,1,0,2.24c0,.23,0,.46,0,.69,0,.41.17.56.56.62a9.22,9.22,0,0,0,1.24.13c1.41,0,2.82,0,4.24,0,.83,0,1.06-.27,1-1.12s.18-1.34,1.11-1.56a1.75,1.75,0,0,1,.43-.05,28.65,28.65,0,0,1,3.79.09,3.64,3.64,0,0,0,1.24-.11.66.66,0,0,0,.54-1,1.25,1.25,0,0,0-.49-.55,1.18,1.18,0,0,1-.5-.83.55.55,0,0,1,.5-.72l.19,0c.51-.09.62-.21.64-.74a10.3,10.3,0,0,1,.09-1.61c.19-.93.4-1.09,1.32-.93a3.55,3.55,0,0,0,1.42,0,.79.79,0,0,1,.86.36c.17.23.12.45-.15.55a5.83,5.83,0,0,1-.73.17c-.71.16-.89.43-.77,1.15,0,.14.06.28.08.43a.65.65,0,0,0,.52.55,3.45,3.45,0,0,0,1.11.11,1.1,1.1,0,0,1,.94.39,2.24,2.24,0,0,0,1.2.75A1,1,0,0,1,114,13a2.22,2.22,0,0,0,.92.82.8.8,0,0,1,.37.33,6.32,6.32,0,0,1,.75,5.25,1.85,1.85,0,0,1-.78,1,1.28,1.28,0,0,0-.58,1.11c0,.77,0,1.53,0,2.3a.79.79,0,0,0,1.14.73c.23-.09.35-.24.2-.48s-.33-.42-.13-.67a.76.76,0,0,1,.86-.16,1.66,1.66,0,0,0,1.09,0c.34-.13.52,0,.53.38a2.21,2.21,0,0,1-.06.43c0,.22,0,.44.22.52a.91.91,0,0,0,.89-.1.46.46,0,0,0,.13-.57c-.07-.17-.17-.33-.25-.5a.8.8,0,0,1,.64-1.24,1.49,1.49,0,0,1,.74,0,.72.72,0,0,1,.56.67,2.66,2.66,0,0,1-.05.87.78.78,0,0,0,.37,1,1.13,1.13,0,0,1,.52,1.33c-.13.76,0,.95.78,1a9.47,9.47,0,0,1,1.61.09,1.87,1.87,0,0,0,.49,0,1.85,1.85,0,0,1,.49,0c.84.17,1.69,0,2.54.08a3.67,3.67,0,0,0,.93,0,13.52,13.52,0,0,1,3.35,0,3.11,3.11,0,0,0,2-.34,1.22,1.22,0,0,1,1.08,0,1.93,1.93,0,0,0,.85.07,5.33,5.33,0,0,1,2.58.21,1.31,1.31,0,0,0,1.36-.14l.05,0a12,12,0,0,1,2.3-.26c.15,0,.31.12.42.24a1,1,0,0,0,1.09.25,5.07,5.07,0,0,0,.84-.24,2.75,2.75,0,0,1,1.59-.15,9.13,9.13,0,0,1,1.69.36,5.25,5.25,0,0,0,2.16,0,3,3,0,0,1,.74,0,4.76,4.76,0,0,0,1.18,0c.91-.08,1.82-.18,2.73-.19q2.9,0,5.79,0c.79,0,1.57-.12,2.36-.13a4.93,4.93,0,0,1,.56,0,1.08,1.08,0,0,1,1,.92,3.35,3.35,0,0,1,.06.68c0,1.1,0,2.2,0,3.3a3.29,3.29,0,0,1-.69,2.13c-.42.55-.74,1.19-1.16,1.76s-.84,1.46-1.37,2.13c-.4.51-.68,1.13-1.08,1.66-.53.71-.92,1.51-1.43,2.24a10.91,10.91,0,0,0-1.13,1.85,6.61,6.61,0,0,1-.77,1.2,1,1,0,0,1-.86.42H89.12ZM50,27h3.36c.84,0,1.17-.32,1.19-1.16s0-1.62,0-2.43a4.06,4.06,0,0,0-.17-1,.82.82,0,0,0-.65-.69,12.18,12.18,0,0,0-1.4-.28,23.49,23.49,0,0,0-3.73.08,1.8,1.8,0,0,1-1.48-.28A2,2,0,0,0,46,20.92c-.37,0-.56.19-.6.58a1.65,1.65,0,0,0,.19,1,1.8,1.8,0,0,1,.19.9q0,1.31,0,2.62c0,.91.12,1,1.06,1Zm67.69-2.68a.57.57,0,0,0-.48-.51.4.4,0,0,0-.41.38c0,.24.14.4.43.41S117.69,24.59,117.73,24.33Zm-7.56-10.1c0-.22-.07-.44-.31-.46s-.27.2-.27.39,0,.39.26.42S110.14,14.43,110.17,14.24Z" style="fill:#2a3d98"/></g></g></svg>
