<svg xmlns="http://www.w3.org/2000/svg" viewBox="0 0 730.05 352.1"><defs><style>.cls-1{fill:#1c9547;}</style></defs><title>brs_neutre</title><g id="Calque_2" data-name="Calque 2"><g id="Calque_1-2" data-name="Calque 1"><polygon class="cls-1" points="1.05 352.1 680.05 352.1 730.05 266.1 729.05 258.1 712.02 258.1 712.02 153.67 707.5 153.67 707.5 258.1 697.32 258.48 696.94 253.2 672.06 253.2 672.06 263 658.11 263 658.11 267.53 632.85 268.28 621.92 268.28 621.54 262.63 617.77 262.63 617.77 253.2 622.67 253.2 622.3 243.4 617.77 243.4 617.77 238.88 592.14 238.5 587.99 245.28 592.14 252.82 592.51 263 587.61 263.38 587.61 271.67 567.63 272.81 567.63 267.9 563.11 267.9 563.11 257.73 557.08 257.73 556.7 242.65 506.94 184.21 502.79 183.83 502.79 191.75 547.28 243.4 547.65 248.3 534.84 248.3 534.08 277.33 524.28 276.95 523.52 269.04 528.43 269.04 528.43 253.96 516.74 252.82 512.97 229.45 509.58 229.45 508.71 199 503.77 193.53 503.72 228.36 493.73 248.23 483.96 253.51 479.12 258.48 479.12 267.78 488.88 272.97 494.37 272.97 493.92 278 468.45 277.54 468.91 248.27 459.45 238.51 459 224.17 463.88 223.41 463.88 214.11 478.21 213.35 478.67 204.04 473.94 203.74 473.48 198.71 454.88 183.76 444.18 183.43 444.18 168.79 488.91 168.94 488.75 163.75 443.55 163.59 424.18 163.43 424.18 159.34 413.85 159.34 413.41 168.81 435.38 169.67 440.11 189.48 401.36 188.19 389.73 193.36 378.96 193.36 359.58 192.93 359.58 167.95 369.06 168.81 379.39 159.34 388.44 153.74 388.44 147.71 352.26 148.57 349.68 121.01 342.36 97.75 342.36 80.96 355.28 73.21 354.85 68.9 334.18 69.33 334.18 49.09 329.87 43.92 329.44 29.71 329.87 24.98 353.99 24.12 353.56 18.95 324.27 18.52 324.27 5.17 330.73 4.31 329.87 1.29 307.48 0 308.34 10.34 316.09 10.77 315.23 30.57 320.4 30.14 320.83 50.38 323.84 53.4 325.13 74.5 329.44 76.65 330.3 107.23 334.61 107.23 335.04 132.21 339.34 131.78 340.2 163.21 335.04 163.21 335.47 180.01 329.44 179.15 316.52 200.25 279.49 198.96 235.56 209.72 244.17 212.74 244.17 224.36 225.22 251.92 222.21 278.19 204.98 278.19 204.12 237.71 185.18 239.44 178.28 227.81 131.78 228.24 131.34 233.41 149.43 233.41 151.16 237.71 173.98 238.57 176.56 254.51 171.4 254.51 171.4 249.77 156.32 249.34 156.32 252.78 152.02 252.78 151.59 263.98 155.46 263.98 157.18 267 170.1 267.43 170.96 263.12 176.99 263.12 176.99 276.9 155.89 277.76 156.75 303.17 120.58 301.88 121.01 293.7 145.99 291.97 150.72 285.51 145.99 279.05 121.01 273.03 89.14 276.9 76.65 277.76 70.19 260.11 81.82 257.95 81.39 248.91 76.22 248.91 50.81 226.95 41.34 226.95 13.78 274.75 12.92 332.02 7.75 332.02 6.89 232.54 0 232.54 1.05 352.1"/></g></g></svg>
