<?xml version="1.0" encoding="utf-8"?>
<!-- Generator: Adobe Illustrator 20.1.0, SVG Export Plug-In . SVG Version: 6.00 Build 0)  -->
<svg version="1.1" id="Btn_TUTORIEL" xmlns="http://www.w3.org/2000/svg" xmlns:xlink="http://www.w3.org/1999/xlink" x="0px"
	 y="0px" viewBox="0 0 465 465" style="enable-background:new 0 0 465 465;" xml:space="preserve">
<style type="text/css">
	.st0{fill:#4D4A76;}
	.st1{fill:#FFFFFF;}
</style>
<title>Btn_Tutoriel</title>
<circle class="st0" cx="232.5" cy="232.5" r="232.5"/>
<path class="st1" d="M42.3,203.7l202.6-84.8l177.7,103.5L344.4,252v-22.3c-1.6-6.3-6.6-11.3-12.9-12.9c-11.5-2.5-33.2-9.6-98.5-12.7
	c-2,0.1-65.3,1.1-94.9,12.8c-1,0.7-16.5,3.4-14.3,16.8c0-0.4-22.3-8-22.3-8v27.6c0,0,9.2-1.6,9,12.6c0,1-1.9,12.2-8.2,12.2
	c-0.4-0.4,14.7,27.1,14.7,27.1s-21.2,36.2-42.9,1c0-0.8,14.7-27.6,14.7-27.6s-12.3,1.2-10.7-13.2c0,0,0.3-13.2,10.5-12.8v-32.2
	L42.3,203.7z"/>
<path class="st1" d="M228.5,286.9h92.4c0,0,15.5,2,15.5-14.9v-38.6c0,0-2.5-9.4-11.8-11.3c-0.5-0.5-61-12.3-96.1-11.7"/>
<path class="st1" d="M237.4,286.9h-92.2c0,0-15.5,2-15.5-14.9v-38.6c0,0,2.4-9.4,11.7-11.3c0.5-0.5,60.8-12.3,96-11.7"/>
<text transform="matrix(1 0 0 1 66.4155 574.4912)" class="st1" style="font-family:'Helvetica-Bold'; font-size:95.2158px;">Tutoriel</text>
</svg>
