<svg xmlns="http://www.w3.org/2000/svg" viewBox="0 0 489 489"><defs><style>.cls-1{fill:#446e58;}.cls-2{fill:none;stroke:#fff;stroke-miterlimit:10;stroke-width:0.5px;}</style></defs><title>BTN_CAIMAN</title><g id="Calque_2" data-name="Calque 2"><g id="Calque_1-2" data-name="Calque 1"><path class="cls-1" d="M244.5,8a236.56,236.56,0,0,1,92.05,454.42A236.56,236.56,0,0,1,152.45,26.58,235,235,0,0,1,244.5,8m0-8C109.47,0,0,109.47,0,244.5S109.47,489,244.5,489,489,379.53,489,244.5,379.53,0,244.5,0Z"/></g><g id="CAIMAN"><g id="Calque_2-2" data-name="Calque 2"><g id="CAIMAN-2" data-name="CAIMAN"><path class="cls-2" d="M169.06,262.43s24.27,33.62,83.09,39.67c4.67,2.32,85.35,6.54,85.35,6.54v8.86h46v-6h33v8h10v-8h14V297.14s-50.12-55.46-106.26-57.33c2.31.93-20.74-8-20.74-8v-6.09l153,30.71v-3.38L317,221.5h-2.17l.24-6h-8.76l.13,3L150.5,204.86v3.65l151,17.18-.24,4.16s-67.27,8.26-78.33,12.23c-2.46.25-126.63-2.83-126.63-2.83L82.75,226.48l2.46-2.09,8,6,.48-7.81L65.5,204.86V198.5h3.86l16.92-27.08-7.11-2.66L60.07,199.5H53.81L26.74,178.59l-3.92,4.61,22.54,15.69,1.47,16L34,233.09l5.33,5.33,11.13-14.2V250.5H60.9l.29,5H93.5v6h4v-5.87Z"/></g></g></g></g></svg>