<?xml version="1.0" encoding="utf-8"?>
<!-- Generator: Adobe Illustrator 20.1.0, SVG Export Plug-In . SVG Version: 6.00 Build 0)  -->
<svg version="1.1" id="Btn_CHARGER" xmlns="http://www.w3.org/2000/svg" xmlns:xlink="http://www.w3.org/1999/xlink" x="0px"
	 y="0px" viewBox="0 0 465 465" style="enable-background:new 0 0 465 465;" xml:space="preserve">
<style type="text/css">
	.st0{fill:#4D4A76;}
	.st1{fill:#FFFFFF;}
	.st2{fill:#939393;}
</style>
<title>Btn_Load</title>
<circle class="st0" cx="232.5" cy="232.5" r="232.5"/>
<g id="Calque_6">
	<path class="st1" d="M74.8,115.4c0,0-1.5-16.2,11.8-16.2h83.1c0,0,13.1,1.1,23.7,32.5c-1.2,0.1,0,76.5,0,76.5H74.7"/>
</g>
<g id="Calque_7">
	<rect x="81.6" y="134.7" class="st2" width="111.8" height="24.5"/>
</g>
<g id="Calque_5">
	<path class="st1" d="M201.4,123.7c0.1,0.1,181.1,0,181.1,0s10-1.8,10,10v205.6c0,0,1.3,11.5-11.5,11.5H86.8c0,0-14.2,1.6-14.2-14.2
		c1.3-1.3,0-174,0-174s-2.1-15.2,15.1-15.2h82.9c0,0,7.7,0.3,21-18.3C191.5,129.2,193.8,125,201.4,123.7z"/>
</g>
<text transform="matrix(1 0 0 1 51.4155 574.4912)" class="st1" style="font-family:'Helvetica-Bold'; font-size:95.2158px;">Charger</text>
</svg>
