<svg id="Calque_1" data-name="Calque 1" xmlns="http://www.w3.org/2000/svg" viewBox="0 0 223.33 223.33"><defs><style>.cls-1{fill:#4d4a76;}.cls-2{fill:#fff;}</style></defs><title>Btn_Infos</title><circle class="cls-1" cx="111.67" cy="111.67" r="111.67"/><path class="cls-2" d="M100.29,183.94v-1.88q0-44.6,0-89.2c0-2.16,0-2.17,2.2-2.17,9.12,0,18.24,0,27.37,0,1.54,0,1.92.53,1.91,2q0,44.89,0,89.79c0,1,0,1.66-1.36,1.65-9.66-.06-19.33,0-29,0C101.11,184,100.82,184,100.29,183.94Z" transform="translate(-4.44 -4.44)"/><path class="cls-2" d="M133.24,59.46c-.08,7.43-3.18,11.82-8.45,15a17.45,17.45,0,0,1-12,2.07,17.18,17.18,0,0,1-11.62-7.38c-2.67-3.83-3-8.13-2.16-12.43s3.76-7.28,7.3-9.69a18.62,18.62,0,0,1,16.87-1.29A17.26,17.26,0,0,1,130,50.9C132.23,53.69,133.43,56.93,133.24,59.46Z" transform="translate(-4.44 -4.44)"/></svg>
