<svg xmlns="http://www.w3.org/2000/svg" viewBox="0 0 465 620.29"><title>Btn_Tutoriel</title><g id="Layer_2" data-name="Layer 2"><g id="Btn_TUTORIEL" data-name="Btn TUTORIEL"><circle cx="232.5" cy="232.5" r="232.5" style="fill:#4d4a76"/><path d="M42.3,203.7l202.6-84.8L422.6,222.4,344.4,252V229.7a17.94,17.94,0,0,0-12.9-12.9c-11.5-2.5-33.2-9.6-98.5-12.7-2,.1-65.3,1.1-94.9,12.8-1,.7-16.5,3.4-14.3,16.8,0-.4-22.3-8-22.3-8v27.6s9.2-1.6,9,12.6c0,1-1.9,12.2-8.2,12.2-.4-.4,14.7,27.1,14.7,27.1s-21.2,36.2-42.9,1c0-.8,14.7-27.6,14.7-27.6s-12.3,1.2-10.7-13.2c0,0,.3-13.2,10.5-12.8V220.4Z" style="fill:#fff"/><path d="M228.5,286.9h92.4s15.5,2,15.5-14.9V233.4s-2.5-9.4-11.8-11.3c-.5-.5-61-12.3-96.1-11.7" style="fill:#fff"/><path d="M237.4,286.9H145.2s-15.5,2-15.5-14.9V233.4s2.4-9.4,11.7-11.3c.5-.5,60.8-12.3,96-11.7" style="fill:#fff"/><text transform="translate(66.42 574.49)" style="isolation:isolate;font-size:95.2157974243164px;fill:#fff;font-family:Helvetica-Bold, Helvetica;font-weight:700"><tspan style="letter-spacing:-0.07373259482577298em">T</tspan><tspan x="51.14" y="0">utoriel</tspan></text></g></g></svg>
