<svg xmlns="http://www.w3.org/2000/svg" viewBox="0 0 489 489"><defs><style>.cls-1{fill:#446e58;}.cls-2{fill:none;stroke:#fff;stroke-miterlimit:10;stroke-width:0.5px;}</style></defs><title>BTN_CAP10</title><g id="Calque_2" data-name="Calque 2"><g id="Calque_1-2" data-name="Calque 1"><path class="cls-1" d="M244.5,8a236.56,236.56,0,0,1,92.05,454.42A236.56,236.56,0,0,1,152.45,26.58,235,235,0,0,1,244.5,8m0-8C109.47,0,0,109.47,0,244.5S109.47,489,244.5,489,489,379.53,489,244.5,379.53,0,244.5,0Z"/></g><g id="CAP10"><g id="Calque_2-2" data-name="Calque 2"><g id="CAP_10_M" data-name="CAP 10 M"><path class="cls-2" d="M122.14,214.74l112.12-10.17S335.89,153,363.39,209.64c4.71,3.51,78.48,5.07,78.48,5.07s-6.19-58.19,7.12-54.43c-1.43.28,12.47-4.32,9.05,54.43.84,1,33.08,10.59.53,22.28.87,0,6,43.62-2,51.78-.28,2.26-19,2.79-8.77-50.95,0-1.11-2.8,38.86-74.78,28.16-2,1.7,9.92,19.14,9.92,19.14s22.65.84,16.43,12.12c2-1.7-20.69,33.2-32.29,2.79-1.43-2-28.34-2.79-28.34-2.79s-4-7.33,20.41-11c2.55.56-5.38-19.69-5.38-19.69H324.46s18.34,37.85,20.88,37.85,13.26,12.44,0,14c.56,1.12-12.42,23.73-27.08,1.43-.56-1.71-34.51-5.09-34.51-5.09v-9.9l30-3.35-6.2-35.62-205.12-3.69-2.26-11-15.52-1.12v10.48s-34.84,5.21-39.07-30.2c.28-1.39-20.1-3-20.1-3v-3.93L47,223.1s14.58-53.82,40.76-63C90.85,159.75,121.41,156.85,122.14,214.74Z"/></g></g></g></g></svg>