<svg xmlns="http://www.w3.org/2000/svg" viewBox="0 0 489 489"><defs><style>.cls-1{fill:#446e58;}.cls-2{fill:none;stroke:#fff;stroke-miterlimit:10;stroke-width:0.5px;}</style></defs><title>BTN_ATLII</title><g id="Calque_2" data-name="Calque 2"><g id="Calque_1-2" data-name="Calque 1"><path class="cls-1" d="M244.5,8a236.56,236.56,0,0,1,92.05,454.42A236.56,236.56,0,0,1,152.45,26.58,235,235,0,0,1,244.5,8m0-8C109.47,0,0,109.47,0,244.5S109.47,489,244.5,489,489,379.53,489,244.5,379.53,0,244.5,0Z"/></g><g id="ATLII"><g id="Calque_2-2" data-name="Calque 2"><g id="Calque_1-2-2" data-name="Calque 1-2"><polygon class="cls-2" points="178.39 87.21 207.94 82.13 213.53 90.77 286.9 205.21 348.33 205.21 342.74 185.42 345.28 184.94 352.79 205.21 355.35 205.21 355.35 197.16 357.37 197.16 357.37 188.09 360.39 188.09 360.39 205.21 358.38 205.21 358.38 209.24 366.43 209.24 366.43 211.26 361.4 211.26 361.4 220.32 414.03 220.32 446 239.41 446 251.97 422.15 267.66 386.58 267.66 386.58 277.73 396.65 277.73 396.65 272.69 399.67 272.69 399.67 278.74 402.69 278.74 402.69 283.77 404.71 283.77 404.71 272.69 407.73 272.69 407.73 283.77 412.76 283.77 412.76 289.81 407.36 289.81 415.85 312.98 412.31 312.98 404.29 296.7 401.68 297.27 399.28 310.97 394.24 310.97 396.45 297.95 356.37 310.77 399.45 385.5 407.5 385.5 407.3 393.56 376.5 393.56 376.5 385.74 280.4 286.79 160.97 286.99 160.97 297.87 143.31 297.87 126.69 281.18 93.56 272.69 25 272.69 25 265.7 85 257.18 91.47 243.94 91.47 232.41 88.15 232.41 77.25 196.15 98.91 196.15 102.28 203.2 108.41 203.2 108.06 196.04 130.28 185.07 134.68 185.07 146.33 233.41 245.29 233.41 185.76 94.31 179.52 95.11 178.39 87.21"/></g></g></g></g></svg>