<svg xmlns="http://www.w3.org/2000/svg" viewBox="0 0 489 489"><defs><style>.cls-1{fill:#446e58;}.cls-2{fill:none;stroke:#fff;stroke-miterlimit:10;stroke-width:0.5px;}</style></defs><title>BTN_HAWKEYE</title><g id="Calque_2" data-name="Calque 2"><g id="Calque_1-2" data-name="Calque 1"><path class="cls-1" d="M244.5,8a236.56,236.56,0,0,1,92.05,454.42A236.56,236.56,0,0,1,152.45,26.58,235,235,0,0,1,244.5,8m0-8C109.47,0,0,109.47,0,244.5S109.47,489,244.5,489,489,379.53,489,244.5,379.53,0,244.5,0Z"/></g><g id="HAWKEYE"><g id="Calque_2-2" data-name="Calque 2"><g id="Calque_8" data-name="Calque 8"><path class="cls-2" d="M14.78,280.81l14.78-4.5V207.63h18l9.18,32,17-.71V198.23h14l12.19,38.54h7.23l35.16-17.89L137,200.2l-16.87-3.81-.34-7.18s122.75-39.44,184.64-21.55c1.41,2.39-3.51,14.18-73.87,24.21-.71.34-6.33,15.93,13.71,33.91-1,.69,2.12-22.82,2.12-22.82l8.45.34,2.43,25.94,86.87-23.95s3.16-13.48,12-6.56c1.41,3.11,26.37-6.92,26.37-6.92l4.87-11.42h6v7.18l51.35-21.1,1.75,9-111.6,51.61,5.28,9.34s32.72-6.92,47.84,3.81c2.12,2.39.71,11.76,36.23,28.38,2.82,2.08,10.54,17.29-36.93,28.38-1-.34-120.63-.69-128.72-4.5.71-4.14.71,23.18.71,23.18s-4.87,8.31-13.37,0c-2.12-1.72.71-23.52.71-23.52S219.14,303.71,215.63,303s-35.52-13.48-38-15.57-19.36-.34-19.36-.34S142.11,275,139.65,276.34a52.59,52.59,0,0,0-5.62,4.79l-7-8.55L47.4,283.93l-2.12,5.89Z"/><polygon class="cls-2" points="142.36 237.88 176.2 217.05 176.2 243.04 142.36 241.76 142.36 237.88"/><path class="cls-2" d="M156.79,199.82l5.86,10.63h7.91V198.7A96.32,96.32,0,0,0,156.79,199.82Z"/><polygon class="cls-2" points="200.64 220.07 200.64 243.35 217.56 243.35 217.56 229.12 200.64 220.07"/><polygon class="cls-2" points="223.2 229.65 223.2 241.47 228.84 241.47 228.84 232.59 223.2 229.65"/><polygon class="cls-2" points="233.28 227.55 241.19 237.94 243.67 235.94 234.18 224.78 233.28 227.55"/></g></g></g></g></svg>