<svg id="Btn_TUTORIEL" xmlns="http://www.w3.org/2000/svg" viewBox="0 0 465 465"><defs><style>.cls-1{fill:#4d4a76;}.cls-2{fill:#fff;}</style></defs><title>Btn_Tutoriel</title><circle class="cls-1" cx="232.5" cy="232.5" r="232.5"/><path class="cls-2" d="M59.84,221.23l202.59-84.84L440.16,239.88,361.9,269.5V247.19A17.75,17.75,0,0,0,349,234.34c-11.46-2.46-33.17-9.64-98.47-12.74-2,.06-65.3,1.1-94.92,12.8-1,.72-16.52,3.38-14.26,16.82,0-.37-22.31-8-22.31-8v27.59s9.16-1.61,9,12.63c0,1-1.9,12.23-8.21,12.21-.42-.42,14.73,27.15,14.73,27.15S113.35,359,91.67,323.8c0-.84,14.73-27.57,14.73-27.57S94.14,297.38,95.67,283c0,0,.3-13.25,10.52-12.84v-32.2Z" transform="translate(-17.5 -17.5)"/><path class="cls-2" d="M246,304.42h92.39s15.52,2,15.52-14.87V251s-2.46-9.41-11.76-11.27c-.49-.46-61-12.31-96.15-11.74" transform="translate(-17.5 -17.5)"/><path class="cls-2" d="M254.9,304.42H162.69s-15.49,2-15.49-14.87V251s2.45-9.41,11.74-11.27c.48-.46,60.83-12.31,96-11.74" transform="translate(-17.5 -17.5)"/></svg>
