<svg xmlns="http://www.w3.org/2000/svg" viewBox="0 0 489 489"><defs><style>.cls-1{fill:#446e58;}.cls-2{fill:none;stroke:#fff;stroke-miterlimit:10;stroke-width:0.5px;}</style></defs><title>BTN_DAUPHIN_SP</title><g id="Calque_2" data-name="Calque 2"><g id="Calque_1-2" data-name="Calque 1"><path class="cls-1" d="M244.5,8a236.56,236.56,0,0,1,92.05,454.42A236.56,236.56,0,0,1,152.45,26.58,235,235,0,0,1,244.5,8m0-8C109.47,0,0,109.47,0,244.5S109.47,489,244.5,489,489,379.53,489,244.5,379.53,0,244.5,0Z"/></g><g id="DAUPHIN_SP"><g id="Calque_2-2" data-name="Calque 2"><g id="DAUPHIN_SP-2" data-name="DAUPHIN SP"><path class="cls-2" d="M32.52,154.93l29.07,3.77,31,70.55s15.21-3.11,13.8,8.62c-.33-.2,69.09,4,69.09,4l60.64-14A48.56,48.56,0,0,1,284,212.47a8.45,8.45,0,0,0,2.82-2.87L103.54,177.83l.33-4,181,29.76s9.3-12.3,18.9.57c-.28.57,156.21,21.74,156.21,21.74v6.39L301,213.69l-1.52,5.36s15.79,3.67,13,12.12c-.85-.85,20.85,10.71,22.26,14.09s0,9.29,0,9.29h6.42V242h6.25v9.46s35.24,11.88,49.06,38.21c.85-.86,51.88,25.75,5.08,29.48h-8.45l-4.52,14.59h-5.93l4-13.45S269,314,257.47,308.89c1.69-.57-5.08,3.73-5.08,3.73l-28.77-5.45.28-6.86-28.24-8-1.13,8-25.31-9.68.56-6.28-38.63-13.23-8.69,13.45-18.1-9.35-2.54-12-9-.57-13.17,7.72S43,265.66,30.22,239.93c-.24-3.17,15.51-23.48,15.51-23.48Z"/></g></g></g></g></svg>