<svg xmlns="http://www.w3.org/2000/svg" viewBox="0 0 489 489"><defs><style>.cls-1{fill:#446e58;}.cls-2{fill:none;stroke:#fff;stroke-miterlimit:10;}</style></defs><title>BTN_ALOUETTEIII</title><g id="Calque_2" data-name="Calque 2"><g id="Calque_1-2" data-name="Calque 1"><path class="cls-1" d="M244.5,8a236.56,236.56,0,0,1,92.05,454.42A236.56,236.56,0,0,1,152.45,26.58,235,235,0,0,1,244.5,8m0-8C109.47,0,0,109.47,0,244.5S109.47,489,244.5,489,489,379.53,489,244.5,379.53,0,244.5,0Z"/></g><g id="ALOUETTE_III"><g id="Calque_2-2" data-name="Calque 2"><g id="Calque_9" data-name="Calque 9"><path class="cls-2" d="M346,227.16S515,242,430.66,303.19c-.54,2.55.38,22.46-16.25,9.15a27.24,27.24,0,0,0-10.58-.77v-8.17L351,301.6l-44.76-5.36s-17.52,17.58-20.44-2.71c.41-.84-30.94-16.94-30.94-16.94s-139.53-40.87-159-40.87c-3.93-.26-29.79-8.48-29.79-8.48l-5.88,27.18H54.71V220.53l2.23-2.22L26.22,193.74l3.71-5.1,28.85,18.68,4.43.48L93.6,192.31l4.68,6.58-19.53,12.3,161.68,24.34s11.19-2.55-15.69-7.86c.74.26.26-18.19.26-18.19l17.92,1v4.41l71.52,1v7.84L302.2,225v6.59l22.71-6,2.56-25.42L128.17,178.3l1.28-7.69,196.48,21.48,2.31-4.48,21,1.38v4.66L463,208.46l-.61,4L346.84,201.33Z"/></g></g></g></g></svg>