<svg xmlns="http://www.w3.org/2000/svg" viewBox="0 0 489 489"><defs><style>.cls-1{fill:#446e58;}.cls-2{fill:none;stroke:#fff;stroke-miterlimit:10;stroke-width:0.5px;}</style></defs><title>BTN_PANTHER</title><g id="Calque_2" data-name="Calque 2"><g id="Calque_1-2" data-name="Calque 1"><path class="cls-1" d="M244.5,8a236.56,236.56,0,0,1,92.05,454.42A236.56,236.56,0,0,1,152.45,26.58,235,235,0,0,1,244.5,8m0-8C109.47,0,0,109.47,0,244.5S109.47,489,244.5,489,489,379.53,489,244.5,379.53,0,244.5,0Z"/></g><g id="PANTHER"><g id="Calque_2-2" data-name="Calque 2"><g id="PANTHER-2" data-name="PANTHER"><path class="cls-2" d="M51.18,180.68H68.26l28.24,70.2L148.65,249l35.81-19.9s-3.7-10.16,12.92-5.53c-5.07-1.39,20.3-18.51,20.3-18.51s2.31-6,30.46-.46c.93.93,2.31-6,2.31-6L30,164.53V159L245,192.58s16.62-8.31,18,1.85c1.39-1.39,198,31,198,31L459.61,231,257,199.52l-2.31,5.3,15.37,4.26,1.5,7.8s35,9.26,25.46,23.14c-2.31,2.11,37.45,3.59,44.65,4.79,3-.3,16.78,35.63,71.62,47.32-.3-.6,16.78,21.57-48.61,17.08,0,.9-2.31-.62-2.31-.62l-.69,17.29s-10.3,6.94-13.59-4.12c-.14-1.78-.69-8.91,8.8-8.24,1.09,0,.3-4.74.3-4.74S233.58,312.9,213,300c0-2.31-.6,6.73-.6,6.73s5,14.83-6,15.11c0,.37-10.32,0-7.2-8.89-.44-.53-.81-5.74,7.82-5.83,1.44,0,.44-6.94.44-6.94l-21.64-4.63-2,6-10.9-.21-.53-12-9.4-.39-.79,13.19-6.27-1,.25-15.8s-15.67,7.84-20.3-7.57c-.39-1.83-35.67-6.46-35.67-6.46s-6.27,11.06-22.34,7.52c-1.67-.42-2.31,7.73-2.31,7.73l-11.43-.21.21-6.69s-36.67-18.84-4-50.14C62.61,227.59,51.18,180.68,51.18,180.68Z"/></g></g></g></g></svg>