<svg xmlns="http://www.w3.org/2000/svg" viewBox="0 0 489 489"><defs><style>.cls-1{fill:#446e58;}.cls-2{fill:none;stroke:#fff;stroke-miterlimit:10;stroke-width:0.5px;}</style></defs><title>BTN_RAFALE</title><g id="Calque_2" data-name="Calque 2"><g id="Calque_1-2" data-name="Calque 1"><path class="cls-1" d="M244.5,8a236.56,236.56,0,0,1,92.05,454.42A236.56,236.56,0,0,1,152.45,26.58,235,235,0,0,1,244.5,8m0-8C109.47,0,0,109.47,0,244.5S109.47,489,244.5,489,489,379.53,489,244.5,379.53,0,244.5,0Z"/></g><g id="RAFALE"><g id="Calque_2-2" data-name="Calque 2"><g id="Calque_2-2-2" data-name="Calque 2-2"><path class="cls-2" d="M20.92,177.52H52.66L83.48,197V151.9H94.15v-4.27H165.7v9.61l-32.27-.45,106.53,56h21.93l-16.1-17.33v-4h17.72l30.3,21.66s1.78-15.47,41.44,0L440,236.88l-54.82,13.26H302.39v4l-21.86,13.06H251.1l-98.49,53.39h22.7V334.5H110.17v-4.27h-6.41V326H93.09v-6.41h9.29L90.46,263H64.25v-4.27H48.34L45,255.5V237.32H38.62V223.44H42.9v-8.37Z"/></g></g></g></g></svg>