<svg xmlns="http://www.w3.org/2000/svg" viewBox="0 0 489 489"><defs><style>.cls-1{fill:#446e58;}.cls-2{fill:none;stroke:#fff;stroke-miterlimit:10;stroke-width:0.5px;}</style></defs><title>BTN_FALCON50M</title><g id="Calque_2" data-name="Calque 2"><g id="Calque_1-2" data-name="Calque 1"><path class="cls-1" d="M244.5,8a236.56,236.56,0,0,1,92.05,454.42A236.56,236.56,0,0,1,152.45,26.58,235,235,0,0,1,244.5,8m0-8C109.47,0,0,109.47,0,244.5S109.47,489,244.5,489,489,379.53,489,244.5,379.53,0,244.5,0Z"/></g><g id="FALCON50M"><g id="Calque_2-2" data-name="Calque 2"><g id="FALCON_50_M" data-name="FALCON 50 M"><path class="cls-2" d="M27.6,180.5H60.87l76,44.82h72v22.41H398.37S418.77,263.89,430,266c4.3,1.55,47.76,6.78,41.32,14.06-1.08,1.05-52.6,14.58-183.55,22.94-5.9-1.05-168.53-7.8-168.53-7.8v-4.74h38.07s-84-17.19-84.62-20.9c-.64,0,9-16.63,9-16.63Z"/></g></g></g></g></svg>