<svg xmlns="http://www.w3.org/2000/svg" viewBox="0 0 489 489"><defs><style>.cls-1{fill:#446e58;}.cls-2{fill:none;stroke:#fff;stroke-miterlimit:10;stroke-width:0.5px;}</style></defs><title>BTN_FALCON10</title><g id="Calque_2" data-name="Calque 2"><g id="Calque_1-2" data-name="Calque 1"><path class="cls-1" d="M244.5,8a236.56,236.56,0,0,1,92.05,454.42A236.56,236.56,0,0,1,152.45,26.58,235,235,0,0,1,244.5,8m0-8C109.47,0,0,109.47,0,244.5S109.47,489,244.5,489,489,379.53,489,244.5,379.53,0,244.5,0Z"/></g><g id="FALCON10"><g id="Calque_2-2" data-name="Calque 2"><g id="FALCON_10" data-name="FALCON 10"><path class="cls-2" d="M26.77,187.56H58.21l75.31,47.7h77.25v17.89h194.7s16.72,18.13,66.24,30.11a64.39,64.39,0,0,1,0,12s-235.54,14-313.11,0c-2,.68-75.61-13.4-91-22.08-2-2,13.4-11.38,13.4-11.38Z"/></g></g></g></g></svg>