<svg xmlns="http://www.w3.org/2000/svg" viewBox="0 0 489 489"><defs><style>.cls-1{fill:#446e58;}.cls-2{fill:none;stroke:#fff;stroke-miterlimit:10;stroke-width:0.5px;}</style></defs><title>BTN_XINGU</title><g id="Calque_2" data-name="Calque 2"><g id="Calque_1-2" data-name="Calque 1"><path class="cls-1" d="M244.5,8a236.56,236.56,0,0,1,92.05,454.42A236.56,236.56,0,0,1,152.45,26.58,235,235,0,0,1,244.5,8m0-8C109.47,0,0,109.47,0,244.5S109.47,489,244.5,489,489,379.53,489,244.5,379.53,0,244.5,0Z"/></g><g id="XINGU"><g id="Calque_2-2" data-name="Calque 2"><g id="XINGU-2" data-name="XINGU"><path class="cls-2" d="M29,164.15l58.08,7.13,56.25,53.95L256,234V219.15h8.68v14.76H351l30.11,11.25V231.31h4.34v7.62l4.34.56v11.29c-.25,0,68.93,11.18,79.8,28a78.57,78.57,0,0,1,0,8.13s-9.8,7-73.37,7.8H386.11L385.58,319h-3.7l-1.18-20.84h-10v4.34H341.13v4.34h-33V302.5h-13v4.34H206.56c0-.14-104.51-46.06-129.84-48.87C76,258.51,29,164.15,29,164.15Z"/></g></g></g></g></svg>