<svg xmlns="http://www.w3.org/2000/svg" viewBox="0 0 489 489"><defs><style>.cls-1{fill:#446e58;}.cls-2{fill:none;stroke:#fff;stroke-miterlimit:10;stroke-width:0.5px;}</style></defs><title>BTN_SEM</title><g id="Calque_2" data-name="Calque 2"><g id="Calque_1-2" data-name="Calque 1"><path class="cls-1" d="M244.5,8a236.56,236.56,0,0,1,92.05,454.42A236.56,236.56,0,0,1,152.45,26.58,235,235,0,0,1,244.5,8m0-8C109.47,0,0,109.47,0,244.5S109.47,489,244.5,489,489,379.53,489,244.5,379.53,0,244.5,0Z"/></g><g id="SEM"><g id="Calque_2-2" data-name="Calque 2"><g id="SEM-2" data-name="SEM"><path class="cls-2" d="M26.5,171.5H53.37L183.75,232H400.31S448,261.53,478,265.14v9l-158,2.7v5.29l9.65,8.29L306.56,307H222.41l-11,13.34h-7.55l-5.15-19.13-23.92,1.91-1.44,10h-6.72l-1.89-9.24H98.14l.92-4.63,60.14-20.36-.47-5.55L71.3,263.62,69.91,246l8.79-1.84,2.79-8.34L30.6,234.42V230H59.29l10.47-11.13-43.26-43Z"/></g></g></g></g></svg>