<svg xmlns="http://www.w3.org/2000/svg" viewBox="0 0 465 620.29"><title>Btn_Load</title>
	<g id="Layer_2" data-name="Layer 2">
		<g id="Btn_CHARGER" data-name="Btn CHARGER">
			<circle cx="232.5" cy="232.5" r="232.5" style="fill:#4d4a76"/>
			<g id="Calque_6" data-name="Calque 6">
				<path d="M74.8,115.4S73.3,99.2,86.6,99.2h83.1s13.1,1.1,23.7,32.5c-1.2.1,0,76.5,0,76.5H74.7" style="fill:#fff"/>
			</g>
			<g id="Calque_7" data-name="Calque 7">
				<rect x="81.6" y="134.7" width="111.8" height="24.5" style="fill:#939393"/>
			</g>
			<g id="Calque_5" data-name="Calque 5">
				<path d="M201.4,123.7c.1.1,181.1,0,181.1,0s10-1.8,10,10V339.3s1.3,11.5-11.5,11.5H86.8s-14.2,1.6-14.2-14.2c1.3-1.3,0-174,0-174s-2.1-15.2,15.1-15.2h82.9s7.7.3,21-18.3C191.5,129.2,193.8,125,201.4,123.7Z" style="fill:#fff"/>
			</g>
			<text transform="translate(51.42 574.49)" style="isolation:isolate;font-size:95.2157974243164px;fill:#fff;font-family:Helvetica-Bold, Helvetica;font-weight:700">Charger</text>
		</g>
	</g>
</svg>
