<svg xmlns="http://www.w3.org/2000/svg" viewBox="0 0 489 489"><defs><style>.cls-1{fill:#446e58;}.cls-2{fill:none;stroke:#fff;stroke-miterlimit:10;stroke-width:0.5px;}</style></defs><title>BTN_EC225</title><g id="Calque_2" data-name="Calque 2"><g id="Calque_1-2" data-name="Calque 1"><path class="cls-1" d="M244.5,8a236.56,236.56,0,0,1,92.05,454.42A236.56,236.56,0,0,1,152.45,26.58,235,235,0,0,1,244.5,8m0-8C109.47,0,0,109.47,0,244.5S109.47,489,244.5,489,489,379.53,489,244.5,379.53,0,244.5,0Z"/></g><g id="EC225"><g id="Calque_2-2" data-name="Calque 2"><g id="Calque_11" data-name="Calque 11"><path class="cls-2" d="M96.58,234H241l19.94-19.26h40.14v-13.3L111.43,189.12v-6l189.66,10.18v-6.54h21.18v7.64L471.5,208.61v8.21l-149.23-11.2v11h12.52v6.74h52.87s9.4,7.19,17.93,15.31c4,3.6,16.59,31.06,49.29,47.24-1.79,1.8.45,6.74.45,6.74a175.55,175.55,0,0,1-33.15,14c0-2.7-1.79,6.29-1.79,6.29h-7.61v-5.78h-9.49l-.21,3.85h3V323.5H394.48V308.1H378.11v-3.85h-82l-.27-3.85H269.32v2.89h-2.89v8.66H251v-7.7h3.85v-8.66H244.31l-49.17-29.85H155.71v-3.85H136.46V259H110.17L98.49,270.55H87.36V266.7H73.88v-4.81H65.72l-7.82,7.7h-10V266.7H56.1l12-12.07V247.5l-19.1-23-4,.18-11.08,15L26,234.18l12-13.69h3.22v-7.7H38.26v-2.89H34.4v-8.66h7.7v-2.87L19,190v-5.25l26.24,9.74H56.55V163.68h4.81v32.73H76.17L96.25,190l1.46,2.94L66.56,205.48Z"/></g></g></g></g></svg>