<svg id="Btn_CHARGER" xmlns="http://www.w3.org/2000/svg" viewBox="0 0 465 465"><defs><style>.cls-1{fill:#4d4a76;}.cls-2{fill:#fff;}.cls-3{fill:#939393;}</style></defs><title>Btn_Load</title><circle class="cls-1" cx="232.5" cy="232.5" r="232.5"/><g id="Calque_6" data-name="Calque 6"><path class="cls-2" d="M92.25,132.89s-1.46-16.2,11.83-16.2h83.1s13.08,1.06,23.73,32.51c-1.24.1,0,76.52,0,76.52H92.2" transform="translate(-17.5 -17.5)"/></g><g id="Calque_7" data-name="Calque 7"><rect class="cls-3" x="81.6" y="134.73" width="111.82" height="24.49"/></g><g id="Calque_5" data-name="Calque 5"><path class="cls-2" d="M218.94,141.23c.1.13,181.12,0,181.12,0s10-1.75,10,10V356.85s1.28,11.54-11.54,11.54H104.25S90,370,90,354.16c1.27-1.27,0-174,0-174S87.86,165,105.14,165H188s7.73.29,21-18.26C209,146.74,211.29,142.46,218.94,141.23Z" transform="translate(-17.5 -17.5)"/></g></svg>
