<svg xmlns="http://www.w3.org/2000/svg" viewBox="0 0 489 489"><defs><style>.cls-1{fill:#446e58;}.cls-2{fill:none;stroke:#fff;stroke-miterlimit:10;stroke-width:0.5px;}</style></defs><title>BTN_LYNX</title><g id="Calque_2" data-name="Calque 2"><g id="Calque_1-2" data-name="Calque 1"><path class="cls-1" d="M244.5,8a236.56,236.56,0,0,1,92.05,454.42A236.56,236.56,0,0,1,152.45,26.58,235,235,0,0,1,244.5,8m0-8C109.47,0,0,109.47,0,244.5S109.47,489,244.5,489,489,379.53,489,244.5,379.53,0,244.5,0Z"/></g><g id="LYNX"><g id="Calque_2-2" data-name="Calque 2"><g id="LYNX-2" data-name="LYNX"><path class="cls-2" d="M64.47,251.42h107l33.73,29.28,5.38,1.48v11l-7.39,3.67v10.84h10.15V285.54l19.39.41v3.47L254,290v11.23h-7.05l.61,10.15h14.75V301.27h-2.77V293H318.6v12h-7.39V322.5H326V307.73h-2.77V293.88h47.69s51.77-12.67,0-26c7.31,2.05-37.75-35.56-43.84-38.21,2.84,1,130.93,7.57,130.93,7.57v-4.61l-135.74-9.78-17.9-3.65,65.27-1.5-2.77-4.61L291.36,215l-16.43-5.31-.3-10.89H262.29v6.9l-77.11-29.51-3.11,4.51,70.27,25.86L92.23,180.45l-.94,6.09L239.9,210s-36.37,7.33-51.29,17c1.54-1.51-109.12,0-109.12,0l-4.61-1.6v-7.24H87.81V207.1H69.35V184.95h5.54V167.41H53.66V184h5.54v17.54H49.68L31.5,183.31v16.31l18.4,18.48-8,16,8,8,2.75-14.78Z"/></g></g></g></g></svg>