<svg xmlns="http://www.w3.org/2000/svg" viewBox="0 0 166.42 56.91"><defs><style>.cls-1{fill:#0c1eb0;}</style></defs><title>caiman_allie</title><g id="Calque_2" data-name="Calque 2"><g id="CAIMAN"><path class="cls-1" d="M55,35s9.1,12.6,31.15,14.87c1.75.87,32,2.45,32,2.45v3.32h17.5v-2.1h12.25v3.32h3.85V53.76h5.07V48.33s-18.9-20.82-40.07-21.52c.87.35-7.82-3-7.82-3V21.19l57.51,11.58V31.45L110.18,19.6H109l.09-2.12h-3.27l.05,1.06L47.73,13.7V15l56.37,6.07L104,22.53s-25.11,2.94-29.24,4.32c-.92.09-47.27-1-47.27-1l-5.06-4.51.92-.74,3,2.12L26.58,20,16,13.7V11h1.47L23.82,1,21.15,0,14,11.5H11.59L1.47,3.68,0,5.43l8.46,5.89.55,6-4.78,6.9,2,2,4-5.33v9.84h3.51l.1,1.73h12.7v2.23h1.52V32.45Z"/></g></g></svg>
