<?xml version="1.0" encoding="utf-8"?>
<!-- Generator: Adobe Illustrator 21.1.0, SVG Export Plug-In . SVG Version: 6.00 Build 0)  -->
<svg version="1.1" id="CAP_10_M" xmlns="http://www.w3.org/2000/svg" xmlns:xlink="http://www.w3.org/1999/xlink" x="0px" y="0px"
	 viewBox="0 0 160.3 61.3" style="enable-background:new 0 0 160.3 61.3;" xml:space="preserve">
<style type="text/css">
	.st0{fill:#FF3300;stroke:#000000;stroke-width:0.5;stroke-miterlimit:10;}
</style>
<title>CAP_10M</title>
<path class="st0" d="M34.8,19.9l40-3.7c0,0,36.3-18.5,46.1,1.8c1.7,1.3,28,1.8,28,1.8S146.6-1,151.4,0.3c-0.5,0.1,4.4-1.6,3.2,19.5
	c0.3,0.4,11.8,3.8,0.2,8c0.3,0,2.1,15.7-0.7,18.6c-0.1,0.8-6.8,1-3.1-18.3c0-0.4-1,13.9-26.7,10.1c-0.7,0.6,3.5,6.9,3.5,6.9
	s8.1,0.3,5.9,4.3c0.7-0.6-7.4,11.9-11.5,1c-0.5-0.7-10.1-1-10.1-1s-1.4-2.6,7.3-3.9c0.9,0.2-1.9-7.1-1.9-7.1h-10.1
	c0,0,6.6,13.5,7.5,13.5s4.8,4.4,0,5c0.2,0.4-4.4,8.5-9.7,0.5c-0.2-0.6-12.4-1.8-12.4-1.8v-3.5l10.7-1.2l-2.2-12.7l-73.5-1.3L26.9,33
	l-5.6-0.4v3.7c0,0-12.4,1.9-13.9-10.8c0.1-0.5-7.2-1.1-7.2-1.1V23l7.7-0.1c0,0,5.2-19.3,14.5-22.6C23.6,0.2,34.5-0.9,34.8,19.9z"/>
</svg>
