<svg xmlns="http://www.w3.org/2000/svg" viewBox="0 0 159.78 60.81"><defs><style>.cls-1{fill:#ff3001;}</style></defs><title>cap_10_m_ennemi</title><g id="Calque_2" data-name="Calque 2"><g id="CAP_10_M" data-name="CAP 10 M"><path class="cls-1" d="M34.5,19.65l40-3.65s36.26-18.51,46.07,1.82c1.68,1.26,28,1.82,28,1.82S146.43-1.2,151.18.11c-.51.1,4.45-1.55,3.23,19.54.3.37,11.8,3.8.19,8,.31,0,2.13,15.66-.7,18.59-.1.81-6.79,1-3.13-18.29,0-.4-1,13.95-26.68,10.11-.71.61,3.54,6.87,3.54,6.87s8.08.3,5.86,4.35c.71-.61-7.38,11.92-11.52,1-.51-.71-10.11-1-10.11-1s-1.41-2.63,7.28-3.94c.91.2-1.92-7.07-1.92-7.07H107s6.57,13.54,7.48,13.54,4.75,4.45,0,5c.2.4-4.45,8.49-9.7.51-.2-.61-12.36-1.82-12.36-1.82V52l10.74-1.21L101,38,27.49,36.69l-.81-3.94-5.56-.4v3.74S8.69,38,7.17,25.25C7.28,24.77,0,24.16,0,24.16V22.75l7.68-.1S12.93,3.33,22.23.05C23.34-.09,34.24-1.13,34.5,19.65Z"/></g></g></svg>
