<?xml version="1.0" encoding="utf-8"?>
<!-- Generator: Adobe Illustrator 21.1.0, SVG Export Plug-In . SVG Version: 6.00 Build 0)  -->
<svg version="1.1" id="CAIMAN" xmlns="http://www.w3.org/2000/svg" xmlns:xlink="http://www.w3.org/1999/xlink" x="0px" y="0px"
	 viewBox="0 0 167 57.5" style="enable-background:new 0 0 167 57.5;" xml:space="preserve">
<style type="text/css">
	.st0{fill:#009933;stroke:#000000;stroke-width:0.5;stroke-miterlimit:10;}
</style>
<title>CAÏMAN</title>
<path class="st0" d="M55.3,35.3c0,0,9.1,12.6,31.2,14.9c1.8,0.9,32,2.4,32,2.4V56H136v-2.1h12.3v3.3h3.9v-3.1h5.1v-5.4
	c0,0-18.9-20.8-40.1-21.5c0.9,0.3-7.8-3-7.8-3v-2.6l57.5,11.6v-1.3l-56.2-11.8h-1.2l0.1-2.1h-3.3l0.1,1.1L48.1,14v1.3l56.4,6.1
	l-0.1,1.5c0,0-25.1,2.9-29.2,4.3c-0.9,0.1-47.3-1-47.3-1l-5.1-4.5l0.9-0.7l3,2.1l0.2-2.8L16.4,14v-2.7h1.5l6.3-10l-2.7-1l-7.2,11.4
	H12L1.8,4L0.4,5.8l8.5,5.9l0.5,6l-4.8,6.8l2,2l4-5.3V31h3.6l0.1,1.7H27V35h1.5v-2.2L55.3,35.3z"/>
</svg>
