<svg xmlns="http://www.w3.org/2000/svg" viewBox="0 0 755.87 214.29"><defs><style>.cls-1{fill:#1c9547;}</style></defs><title>chasseur_mine_neutre</title><g id="Calque_2" data-name="Calque 2"><g id="Calque_1-2" data-name="Calque 1"><polygon class="cls-1" points="42.5 208.98 723.63 208.98 722.92 202.96 755.87 144.16 755.87 138.85 692.11 139.56 692.11 144.51 659.52 144.51 659.52 134.24 653.86 134.24 643.58 134.24 643.58 144.16 621.62 144.16 621.62 139.56 616.31 139.56 616.31 143.45 600.02 144.16 600.02 128.57 606.75 128.57 606.75 122.91 583.72 123.26 583.72 128.22 594.35 128.93 594.7 138.85 584.79 139.56 579.47 149.83 574.16 149.83 568.49 133.53 567.78 118.3 562.47 117.95 562.47 112.28 513.95 112.64 514.65 91.74 520.32 90.68 519.61 85.01 513.24 80.4 502.97 80.4 502.97 70.13 513.59 69.78 519.61 68.72 520.68 15.94 515.36 15.94 515.01 58.8 481.36 58.8 481.71 69.78 493.4 69.42 493.4 79.34 466.48 79.69 466.48 21.61 471.44 20.9 471.44 16.65 466.13 16.65 465.77 0 455.86 0 456.21 15.94 439.92 15.94 439.56 9.92 433.54 10.63 435.67 22.32 450.19 20.9 450.19 26.57 460.46 27.27 461.52 92.09 439.56 113.34 439.56 117.59 428.58 117.59 428.58 110.86 413 111.57 412.64 118.66 402.73 118.3 402.73 111.93 385.37 112.28 385.37 117.95 354.56 117.95 353.85 90.32 348.53 90.32 348.89 64.47 337.91 63.76 337.91 69.78 319.14 70.13 312.41 75.44 305.32 75.44 305.32 86.42 300.01 86.07 300.01 117.24 273.09 117.24 273.09 105.2 268.13 105.2 268.13 102.36 262.82 102.36 262.46 112.64 256.8 112.28 256.09 118.3 208.98 117.95 208.98 144.87 197.29 143.81 198.71 133.18 204.37 133.53 204.73 122.91 197.29 122.91 197.29 117.95 183.48 117.95 182.77 123.62 177.81 122.91 177.81 133.89 182.06 133.89 182.06 143.1 178.16 143.1 177.81 148.76 139.91 149.83 139.56 176.39 80.4 177.46 80.4 172.14 69.78 171.43 107.68 122.55 106.97 107.32 68.72 69.42 58.44 69.78 58.44 75.09 91.03 102.36 91.38 112.64 59.86 161.52 59.86 171.08 21.96 171.43 21.61 165.77 16.29 166.83 16.29 171.79 11.33 182.06 6.02 182.77 5.67 198.71 0 198.35 0.71 214.29 5.31 214.29 4.96 203.67 10.98 202.96 10.63 187.37 17 187.02 17 193.04 22.32 193.04 22.67 204.02 27.98 204.02 42.5 208.98"/></g></g></svg>
