<?xml version="1.0" encoding="utf-8"?>
<!-- Generator: Adobe Illustrator 21.0.0, SVG Export Plug-In . SVG Version: 6.00 Build 0)  -->
<svg version="1.1" id="Capa_1" xmlns="http://www.w3.org/2000/svg" xmlns:xlink="http://www.w3.org/1999/xlink" x="0px" y="0px"
	 viewBox="0 0 55 55" style="enable-background:new 0 0 55 55;" xml:space="preserve">
<style type="text/css">
	.st0{fill:#17201C;}
	.st1{fill:#298251;}
	.st2{fill:none;stroke:#446E58;stroke-miterlimit:10;}
</style>
<g>
	<g>
		<path class="st0" d="M27.5,53.9c-14.6,0-26.4-11.8-26.4-26.4S12.9,1.1,27.5,1.1c14.6,0,26.4,11.8,26.4,26.4S42.1,53.9,27.5,53.9z"
			/>
		<path class="st1" d="M27.5,1.6c14.3,0,25.9,11.6,25.9,25.9S41.8,53.4,27.5,53.4S1.6,41.8,1.6,27.5S13.2,1.6,27.5,1.6 M27.5,0.6
			c-14.9,0-26.9,12-26.9,26.9s12,26.9,26.9,26.9s26.9-12,26.9-26.9S42.4,0.6,27.5,0.6L27.5,0.6z"/>
	</g>
	<polyline class="st2" points="41.5,16.7 24.3,36.1 13.5,27.5 	"/>
</g>
</svg>
