<svg xmlns:dc="http://purl.org/dc/elements/1.1/" xmlns:cc="http://creativecommons.org/ns#" xmlns:rdf="http://www.w3.org/1999/02/22-rdf-syntax-ns#" xmlns:svg="http://www.w3.org/2000/svg" xmlns="http://www.w3.org/2000/svg" xmlns:sodipodi="http://sodipodi.sourceforge.net/DTD/sodipodi-0.dtd" xmlns:inkscape="http://www.inkscape.org/namespaces/inkscape" version="1.1" x="0px" y="0px" viewBox="0 0 100 125"><g transform="translate(0,-952.36218)"><path style="text-indent:0;text-transform:none;direction:ltr;block-progression:tb;baseline-shift:baseline;color:#000000;enable-background:accumulate;" d="m 60.085946,963.00511 a 2.0002,2.0002 0 0 0 -1.001452,0.85068 L 23.574522,1025.361 a 2.0002,2.0002 0 0 0 -0.26036,1.202 l 1.455522,13.5215 a 2.0002,2.0002 0 0 0 2.794011,1.6132 l 12.429541,-5.5305 a 2.0002,2.0002 0 0 0 0.919019,-0.7963 l 35.510082,-61.50514 a 2.0002,2.0002 0 0 0 -0.736016,-2.74685 l -13.855023,-7.99912 a 2.0002,2.0002 0 0 0 -1.745352,-0.11468 z m 1.456911,4.59189 10.380098,6.01851 -2.474874,4.28661 -10.402243,-5.98023 2.497019,-4.32489 z m -4.507806,7.80775 10.380098,6.01851 -29.654306,51.36274 -9.307123,4.1438 -1.073072,-10.1623 29.654403,-51.36275 z" fill="#000000" fill-opacity="1" stroke="none" marker="none" visibility="visible" display="inline" overflow="visible"/></g><text x="0" y="115" fill="#000000" font-size="5px" font-weight="bold" font-family="'Helvetica Neue', Helvetica, Arial-Unicode, Arial, Sans-serif">Created by iconsphere</text><text x="0" y="120" fill="#000000" font-size="5px" font-weight="bold" font-family="'Helvetica Neue', Helvetica, Arial-Unicode, Arial, Sans-serif">from the Noun Project</text></svg>
