<svg xmlns="http://www.w3.org/2000/svg" viewBox="0 0 724.5 231.17"><defs><style>.cls-1{fill:#ef3a24;}</style></defs><title>ctm_ennemi</title><g id="Calque_2" data-name="Calque 2"><g id="Calque_1-2" data-name="Calque 1"><polygon class="cls-1" points="0 230.28 647.3 231.17 724.5 158.82 724.5 153.76 719.65 153.97 719.65 158.82 706.57 168.11 657.85 168.53 618.83 168.53 546.7 169.16 448.19 173.38 376.27 173.59 257.94 178.65 116.62 178.23 116.62 144.69 101.65 144.69 101.86 120.02 87.52 120.44 87.52 115.8 59.04 115.16 58.83 81.84 53.98 81.84 54.19 115.8 49.97 115.38 48.7 0 44.7 0.21 44.28 183.08 0.83 183.5 0 230.28"/><polygon class="cls-1" points="637.18 144.06 652.16 163.68 656.8 164.1 657.85 168.53 647.73 168.53 633.17 148.91 618.41 149.33 618.83 168.53 614.07 168.72 613.97 149.28 585.17 149.28 585.07 171.16 579.68 171.06 580.18 149.07 551.18 149.28 551.18 169.94 546.5 169.94 546.29 149.18 512.51 149.38 512.51 171.26 507.73 171.46 507.83 149.38 478.62 149.28 478.72 172.99 474.14 172.79 473.84 149.38 444.88 149.38 444.88 175.93 440.57 174.79 440.1 154.22 411.22 154.13 411.4 174.79 406.4 174.79 406.4 154.13 377.43 154.13 377.43 174.51 373.09 174.61 372.52 154.03 343.83 154.41 343.74 176.49 338.17 176.49 338.93 154.03 304.95 154.13 304.95 177.15 300.52 177.25 300.33 154.13 271.54 154.13 271.26 179.14 266.82 179.04 266.45 154.13 237.38 154.03 237.66 179.89 232.38 179.7 232.66 154.03 203.59 154.03 203.78 181.21 199.16 181.31 199.06 154.22 174.53 154.13 174.65 149.16 439.72 149.16 439.5 144.43 637.18 144.06"/><polygon class="cls-1" points="44.28 153.79 0.45 154.04 0.83 183.5 5.99 183.51 5.74 158.58 24.88 158.58 25.14 183.77 29.92 183.77 29.92 159.33 46.3 158.83 44.28 153.79"/><polygon class="cls-1" points="115.19 154.04 131.25 154.04 131.47 144.23 141.51 144.23 141.51 154.49 155.34 154.04 160.69 144.23 175.18 144.45 175.41 178.35 155.34 179.02 155.78 159.61 140.84 158.94 140.84 177.9 141.28 184.59 130.36 182.59 131.47 178.13 131.47 158.28 112.29 158.5 115.19 154.04"/></g></g></svg>
