<?xml version="1.0" encoding="utf-8"?>
<!-- Generator: Adobe Illustrator 21.1.0, SVG Export Plug-In . SVG Version: 6.00 Build 0)  -->
<svg version="1.1" id="DAUPHIN_SP" xmlns="http://www.w3.org/2000/svg" xmlns:xlink="http://www.w3.org/1999/xlink" x="0px" y="0px"
	 viewBox="0 0 198.3 81.7" style="enable-background:new 0 0 198.3 81.7;" xml:space="preserve">
<style type="text/css">
	.st0{fill:#003399;stroke:#000000;stroke-width:0.5;stroke-miterlimit:10;}
</style>
<title>DAUPHIN_SP</title>
<path class="st0" d="M1.3,0.3L14.7,2l14.2,32c0,0,7-1.4,6.3,3.9c-0.1-0.1,31.8,1.8,31.8,1.8L95,33.4c5.5-6.2,14-8.9,22.1-7
	c0.5-0.3,1-0.8,1.3-1.3L34,10.7l0.2-1.8l83.3,13.5c0,0,4.3-5.6,8.7,0.3c-0.1,0.3,71.9,9.9,71.9,9.9v2.1L124.8,26l-0.7,2.5
	c0,0,7.3,1.7,6,5.6c-0.4-0.4,9.6,4.9,10.3,6.5s0,4.3,0,4.3h2.8v-5.7h3.1v5c0,0,16.2,5.4,22.6,17.3c0.4-0.4,23.9,11.7,2.3,13.4h-3.9
	l-2.1,6.6h-2.7l1.8-6.1c0,0-54.1-2.9-59.4-5.2c0.8-0.3-2.3,1.7-2.3,1.7l-13.2-2.5l0.1-3.1l-13-3.6l-0.5,3.6l-11.7-4.4l0.3-2.9
	l-17.8-6l-4,6.1l-8.3-4.2l-1.2-5.4l-4.1-0.3L23,52.6c0,0-16.8-2.1-22.7-13.8c-0.1-1.4,7.1-10.7,7.1-10.7L1.3,0.3z"/>
</svg>
