<svg xmlns="http://www.w3.org/2000/svg" viewBox="0 0 197.78 81.12"><defs><style>.cls-1{fill:#189526;}</style></defs><title>dauphin_sp_neutre</title><g id="Calque_2" data-name="Calque 2"><g id="DAUPHIN_SP" data-name="DAUPHIN SP"><path class="cls-1" d="M1.06,0,14.44,1.74l14.25,32s7-1.41,6.35,3.91c-.13-.13,31.8,1.82,31.8,1.82l27.9-6.36a22.55,22.55,0,0,1,22.06-7,3.86,3.86,0,0,0,1.3-1.3L33.74,10.39l.13-1.82,83.32,13.5s4.28-5.58,8.7.26c-.13.26,71.9,9.86,71.9,9.86v2.08L124.59,25.7l-.65,2.47s7.27,1.69,6,5.58c-.39-.39,9.6,4.93,10.25,6.49s0,4.28,0,4.28h2.73V38.81H146v5s16.22,5.39,22.58,17.33c.39-.39,23.88,11.68,2.34,13.37H167l-2.08,6.62h-2.73L164,75s-54.12-2.86-59.44-5.19c.78-.26-2.34,1.69-2.34,1.69L89,69l.13-3.11-13-3.63-.52,3.63L64,61.52l.26-2.86-17.78-6-4,6.1-8.31-4.28L33,49.06l-4.15-.26-6.1,3.5S5.84,50.23,0,38.55c-.13-1.43,7.14-10.64,7.14-10.64Z"/></g></g></svg>
