<svg xmlns="http://www.w3.org/2000/svg" viewBox="0 0 262.33 104.33"><defs><style>.cls-1{fill:#0c1eb0;}</style></defs><title>dauphin_pedro_allie</title><g id="Calque_2" data-name="Calque 2"><g id="Calque_1-2" data-name="Calque 1"><polygon class="cls-1" points="0 48.67 10 36 3 0 20.33 0 39.67 43.67 44.67 43.33 47 48.67 88 51 126.67 41.33 135 33.33 142.33 31.67 157.33 32.33 157.33 29.33 146.67 28 46 10.67 46.33 8.67 157.33 27 159.67 23.33 164.67 24 166.33 25.5 170.33 28.33 262.33 40 178.67 32.33 164.67 32.67 172.67 37.67 174.67 44 184.67 51 188 51 188.33 55.33 192.33 55.33 191 49.33 195.33 49.33 195.33 58 202.67 58 224.33 78 229.33 78 230 82 240.67 88.33 240.33 92.67 230.33 97.33 223.33 97.33 221.33 104.33 217.67 104.33 219 97.67 142.33 89 136.67 92.67 121.33 89 119.33 82 109.33 82.67 102 80.67 100.67 84.67 87.33 80 86.33 76 62.33 67.67 55.33 74 47 69.8 44.67 63 41.33 62 30.67 67.33 15.33 64 6.33 56 0 48.67"/></g></g></svg>
