<svg xmlns="http://www.w3.org/2000/svg" viewBox="0 0 181.89 64.07"><defs><style>.cls-1{fill:#189526;}</style></defs><title>ec225_neutre</title><g id="Calque_2" data-name="Calque 2"><g id="EC225"><path class="cls-1" d="M31.08,28.25H89.31l7.9-7.63h16.22V15.21l-76.4-5V7.83L113.42,12V9.27h8.65v3.06L181.89,18v3.3l-59.82-4.5v4.32h5v3.06h21.26s3.78,2.88,7.21,6.13c1.62,1.44,6.67,12.43,19.82,18.92-.72.72.18,2.7.18,2.7a70.75,70.75,0,0,1-13.33,5.59c0-1.08-.72,2.52-.72,2.52h-3.06V57.74h-4.14l-.09,1.68h1.43v4.65h-4.51V57.94h-6.62V56.51H111.35L111.24,55H100.51v1.22h-1v3.32H93.19v-3h1.36V53.29h-4.3l-20-12.14H55.14v-1.5H47.39V38.12H36.73L32,42.83H27.31v-1.5H22V39.51H18.77L15.7,42.57H11.76V41.26H15l4.82-4.82V33.59l-7.67-9.2-1.61.07-4.45,6-3.21-2.2,4.82-5.47H9V19.72H7.74V18.47H6.06V14.9H9.27v-.95L0,10.59V8.47l10.59,4H15V0h2V13.29h5.84l8-2.56.58,1.17-12.41,5Z"/></g></g></svg>
