<?xml version="1.0" encoding="utf-8"?>
<!-- Generator: Adobe Illustrator 21.1.0, SVG Export Plug-In . SVG Version: 6.00 Build 0)  -->
<svg version="1.1" id="Calque_11" xmlns="http://www.w3.org/2000/svg" xmlns:xlink="http://www.w3.org/1999/xlink" x="0px" y="0px"
	 viewBox="0 0 182.4 64.6" style="enable-background:new 0 0 182.4 64.6;" xml:space="preserve">
<style type="text/css">
	.st0{fill:#003399;stroke:#000000;stroke-width:0.5;stroke-miterlimit:10;}
</style>
<title>EC225</title>
<path class="st0" d="M31.3,28.5h58.2l7.9-7.6h16.2v-5.4l-76.4-5V8.1l76.4,4.1V9.5h8.7v3.1l59.8,5.7v3.3l-59.8-4.5v4.3h5v3.1h21.3
	c0,0,3.8,2.9,7.2,6.1c1.6,1.4,6.7,12.4,19.8,18.9c-0.7,0.7,0.2,2.7,0.2,2.7c-4.2,2.3-8.7,4.2-13.3,5.6c0-1.1-0.7,2.5-0.7,2.5h-3.1
	V58h-4.1l-0.1,1.7h1.4v4.6h-4.5v-6.1h-6.6v-1.4h-33.2l-0.1-1.6h-10.7v1.2h-1v3.3h-6.3v-3h1.4v-3.2h-4.3l-20-12.1H55.4v-1.5h-7.7
	v-1.5H37l-4.7,4.7h-4.7v-1.5h-5.4v-1.8H19l-3.1,3.1H12v-1.3h3.3l4.8-4.8v-2.8l-7.7-9.2l-1.6,0.1l-4.4,6l-3.2-2.2L8,23h1.2V20H8v-1.2
	H6.3v-3.6h3.2v-0.9l-9.3-3.4V8.7l10.6,4h4.5V0.3h2v13.3h5.9l8-2.6l0.6,1.2l-12.4,5L31.3,28.5z"/>
</svg>
