<svg xmlns="http://www.w3.org/2000/svg" viewBox="0 0 489 489"><defs><style>.cls-1{fill:#446e58;}.cls-2{fill:none;stroke:#fff;stroke-miterlimit:10;stroke-width:5px;}</style></defs><title>EDA-R</title><g id="Calque_2" data-name="Calque 2"><g id="Calque_1-2" data-name="Calque 1"><path class="cls-1" d="M244.5,8a236.56,236.56,0,0,1,92.05,454.42A236.56,236.56,0,0,1,152.45,26.58,235,235,0,0,1,244.5,8m0-8C109.47,0,0,109.47,0,244.5S109.47,489,244.5,489,489,379.53,489,244.5,379.53,0,244.5,0Z"/></g><g id="ENGIN_DE_DEBARQUEMENT"><g id="Calque_2-2" data-name="Calque 2"><g id="Calque_1-2-2" data-name="Calque 1-2"><polygon class="cls-2" points="42.09 332 42.09 321.5 55.79 321.5 33.5 313.37 33.5 262.35 38.67 262.35 39.22 236.59 47.17 236.59 46.57 260.65 52.4 258.87 51.84 248.04 208.09 249.25 208.09 266.66 229.08 267.29 229.08 247.09 264.38 247.65 264.38 155.5 267.24 155.5 267.24 190.39 267.24 201.46 284.42 200.85 284.42 207.34 272.01 212.6 271.43 248.04 371.24 248.04 371.24 234.63 402.72 235.19 402.72 247.98 436.5 249.95 450.42 249.95 450.42 263.35 457.1 263.91 457.1 319.44 451.29 323.41 419.9 323.41 391.99 332 42.09 332"/></g></g></g></g></svg>