<?xml version="1.0" encoding="utf-8"?>
<!-- Generator: Adobe Illustrator 21.1.0, SVG Export Plug-In . SVG Version: 6.00 Build 0)  -->
<svg version="1.1" id="Calque_1" xmlns="http://www.w3.org/2000/svg" xmlns:xlink="http://www.w3.org/1999/xlink" x="0px" y="0px"
	 viewBox="0 0 2362 2362" style="enable-background:new 0 0 2362 2362;" xml:space="preserve">
<style type="text/css">
	.st0{fill:#003399;stroke:#000000;stroke-miterlimit:10;}
</style>
<title>Engins_de_debarquement_amphibie_rapide_EDA-R</title>
<polygon class="st0" points="456.8,1063.8 456.8,1061.6 459.8,1061.6 454.9,1059.8 454.9,1048.8 456.1,1048.8 456.2,1043.2 
	458.1,1043.2 457.9,1048.2 459.2,1047.8 459.1,1045.6 492.6,1045.8 492.6,1049.4 497.1,1049.6 497.1,1045.6 504.6,1045.7 
	504.6,1025.9 505.3,1025.9 505.3,1033.4 505.3,1035.8 509.1,1035.7 509.1,1036.9 506.3,1038.1 506.2,1045.7 527.7,1045.9 
	527.7,1042.8 534.5,1042.9 534.5,1045.7 541.7,1046.2 544.5,1046.2 544.5,1049.1 546,1049.2 546,1061.1 544.8,1061.9 538,1061.9 
	532,1063.8 "/>
</svg>
