<?xml version="1.0" encoding="utf-8"?>
<!-- Generator: Adobe Illustrator 21.1.0, SVG Export Plug-In . SVG Version: 6.00 Build 0)  -->
<svg version="1.1" id="Calque_1" xmlns="http://www.w3.org/2000/svg" xmlns:xlink="http://www.w3.org/1999/xlink" x="0px" y="0px"
	 viewBox="0 0 100 125" style="enable-background:new 0 0 100 125;" xml:space="preserve">
<style type="text/css">
	.st0{fill:none;stroke:#FFFFFF;stroke-width:2;stroke-miterlimit:10;}
</style>
<path class="st0" d="M51.3,39.6l8,8.7L73,35.6l0.4-9.8l-9.8,0.4L51.3,39.6z M40.8,50.9l-5.2,5.6l-4-4L29.1,55l5.6,5.6l-8.1,8.1l4,4
	l8.1-8.1l5.6,5.6l2.5-2.5l-4-4l5.9-5.5L40.8,50.9z M70.9,55l-2.5-2.5l-4,4l-28-30.3l-9.8-0.4l0.4,9.8l30.2,28l-4,4l2.5,2.5l5.6-5.6
	l8.1,8.1l4-4l-8.1-8.1L70.9,55z"/>
</svg>
