<svg xmlns="http://www.w3.org/2000/svg" viewBox="0 0 757.8 236.77"><defs><style>.cls-1{fill:#2a3d98;}</style></defs><title>f70_allie</title><g id="Calque_2" data-name="Calque 2"><g id="Calque_1-2" data-name="Calque 1"><polygon class="cls-1" points="19.36 236.45 733.14 236.77 732.83 231.4 757.8 202 757.8 196.62 723.66 197.26 717.02 192.83 714.18 196.62 694.26 197.26 691.73 193.78 689.84 196.94 669.61 197.26 662.02 192.51 654.43 196.62 649.06 201.37 644.63 192.51 634.2 192.2 633.88 197.57 626.3 196.94 620.61 196.31 619.66 182.08 639.89 182.08 639.26 177.02 595.63 177.66 595.63 191.25 600.69 191.56 600.06 196.62 590.89 196.62 590.58 167.54 585.84 167.54 585.84 157.43 585.2 122.65 580.46 122.97 580.46 152.68 576.03 152.68 575.4 123.28 570.66 123.28 570.66 147.94 551.38 147.94 551.38 133.08 540.32 132.77 540.95 118.54 536.21 118.54 536.52 158.06 531.78 157.74 527.35 142.25 526.4 133.08 530.83 133.08 531.78 127.39 521.98 127.39 521.66 143.83 516.61 143.52 517.24 134.35 502.7 133.72 501.75 104 516.92 99.26 516.92 93.89 510.92 93.25 510.92 89.14 506.17 88.83 506.17 93.25 497.95 93.25 496.38 49.63 491.95 49.63 492.26 29.71 506.17 29.08 506.17 20.23 502.7 20.23 502.06 23.71 492.58 23.71 491.95 9.48 487.21 9.48 486.57 0 481.83 0 482.78 69.55 467.29 68.6 467.29 53.74 462.87 54.06 462.55 49.95 456.54 49.63 457.81 59.75 447.69 59.43 447.69 63.85 458.13 63.85 457.81 68.91 453.07 68.91 453.07 73.34 467.29 73.66 467.29 77.76 471.72 78.4 471.72 85.03 477.72 89.46 477.72 97.05 471.72 97.36 472.03 103.05 477.09 103.05 477.72 153.32 467.29 153.32 467.92 168.17 452.75 167.54 452.75 182.08 447.69 182.08 447.69 158.69 438.21 157.11 437.89 152.68 423.35 152.05 423.35 147.31 419.24 147.63 418.93 187.46 413.24 187.46 413.55 143.52 454.01 78.71 453.28 74.04 448.08 74.16 448.05 79.25 412.91 137.96 409.27 137.96 379.27 138.18 379.27 142.68 374.12 142.89 374.34 167.75 369.2 167.1 369.41 187.67 353.98 187.89 354.2 177.39 359.13 177.39 359.13 166.67 354.84 167.1 354.41 173.1 349.48 173.1 349.48 157.89 339.41 158.1 339.41 162.17 335.34 162.39 335.13 178.03 325.48 178.03 324.84 157.67 309.63 158.1 310.06 138.82 304.27 132.82 304.27 127.89 299.99 128.1 300.41 178.03 295.91 177.82 294.84 152.75 290.99 152.53 270.42 157.67 261.42 157.67 260.77 122.96 255.42 122.96 255.63 158.1 226.49 157.67 226.49 172.03 187.49 172.67 186.85 167.53 172.28 167.75 172.49 191.74 172.49 202.03 58.93 202.46 54.43 206.53 49.71 206.74 49.5 202.03 33.85 202.03 34.5 211.88 25.28 211.88 25.28 202.03 14.36 202.24 14.14 197.53 6 196.89 4.71 177.39 0 177.6 0 221.1 9.86 236.53 19.36 236.45"/></g></g></svg>
