<svg xmlns="http://www.w3.org/2000/svg" viewBox="0 0 752.52 216.77"><defs><style>.cls-1{fill:#ef3a24;}</style></defs><title>faa_ennemi</title><g id="Calque_2" data-name="Calque 2"><g id="Calque_1-2" data-name="Calque 1"><polygon class="cls-1" points="13.23 216.49 725.49 216.78 752.52 184.96 752.52 181.02 717.33 180.46 717.05 185.24 698.18 185.24 698.18 181.3 694.52 181.02 694.52 184.96 662.99 185.24 662.99 181.02 644.98 181.3 644.69 185.53 639.91 185.24 639.91 181.02 630.05 181.02 630.05 184.96 617.67 185.24 617.39 176.24 635.68 175.95 635.12 172.29 612.6 172.01 612.6 167.79 594.58 167.51 594.86 185.24 589.8 185.53 590.08 166.94 585.57 166.94 585.86 153.71 581.63 153.71 581.07 140.48 568.12 140.48 567.84 135.98 562.77 135.69 563.05 126.69 559.39 126.69 559.11 135.69 545.6 135.69 545.03 113.45 541.37 113.45 541.37 126.12 531.8 126.69 532.08 145.27 523.08 144.42 522.23 121.9 519.13 121.9 517.73 113.17 521.67 113.17 527.02 108.67 531.8 108.39 531.52 103.88 517.73 103.6 518.01 95.44 514.35 95.16 513.78 90.65 509 90.37 509 94.59 504.78 94.59 504.78 108.67 509.28 108.39 509.56 131.19 495.77 131.19 495.77 99.66 491.54 99.38 491.26 76.58 513.5 76.58 513.22 67.57 518.01 67.28 518.01 63.34 503.65 63.06 504.49 68.13 509 68.13 509 72.35 490.98 71.79 490.98 63.06 487.04 63.06 486.48 36.32 509.56 36.03 509.56 27.59 499.71 27.31 499.99 22.8 491.26 22.8 491.26 26.75 481.97 27.03 482.25 0 477.47 0.28 477.75 27.03 459.73 27.31 459.17 23.09 449.88 23.09 450.72 36.03 468.74 36.03 469.02 62.78 472.68 63.06 473.25 72.92 468.46 72.92 468.74 81.08 473.25 81.36 472.96 90.93 468.46 90.37 468.74 132.04 472.4 131.75 472.96 139.92 463.67 140.2 463.67 135.98 459.45 135.98 459.17 139.64 446.78 139.64 446.5 145.27 441.15 144.42 441.43 153.71 414.12 153.15 410.18 163 410.18 176.24 405.4 175.95 405.4 123.03 413.84 121.9 413.84 117.68 405.12 112.33 405.12 108.95 400.33 104.45 397.51 104.45 392.17 108.67 392.45 138.51 387.66 137.95 387.38 109.8 383.16 103.32 382.59 67.85 378.09 67.57 378.09 63.63 364.86 63.91 364.86 67.28 360.92 67.57 360.63 117.4 334.17 118.52 329.1 145.27 315.31 144.7 315.03 131.47 311.09 131.47 310.24 117.68 307.14 117.68 301.8 108.67 297.85 108.67 297.85 121.62 301.51 121.62 301.51 130.63 298.98 132.32 296.73 144.7 284.06 144.99 283.21 132.04 278.43 132.04 278.15 122.18 270.83 122.46 270.83 125.84 264.63 126.12 264.63 131.47 270.55 131.47 270.83 135.69 276.46 135.98 275.89 145.27 265.48 145.27 264.92 140.2 252.81 140.2 252.53 144.14 255.91 144.14 257.6 162.44 246.34 163.28 248.31 175.67 211.71 175.95 211.99 157.94 216.21 158.22 216.49 162.16 220.72 162.16 220.72 152.02 212.83 152.31 212.55 148.65 200.45 149.21 196.22 157.09 203.26 157.65 202.14 171.45 183.84 172.01 184.4 176.52 170.89 176.52 170.89 166.94 167.23 166.94 161.88 159.34 99.1 158.22 99.1 185.24 94.31 185.24 94.31 175.67 4.79 176.8 3.94 167.51 0.28 167.79 0 185.81 3.66 185.24 4.79 199.32 8.73 199.04 13.23 216.49"/></g></g></svg>
