<svg xmlns="http://www.w3.org/2000/svg" viewBox="0 0 489 489"><defs><style>.cls-1{fill:#446e58;}.cls-2{fill:none;stroke:#fff;stroke-miterlimit:10;stroke-width:5px;}</style></defs><title>FDA</title><g id="Calque_2" data-name="Calque 2"><g id="Calque_1-2" data-name="Calque 1"><path class="cls-1" d="M244.5,8a236.56,236.56,0,0,1,92.05,454.42A236.56,236.56,0,0,1,152.45,26.58,235,235,0,0,1,244.5,8m0-8C109.47,0,0,109.47,0,244.5S109.47,489,244.5,489,489,379.53,489,244.5,379.53,0,244.5,0Z"/></g><g id="FDA"><g id="Calque_2-2" data-name="Calque 2"><g id="Calque_1-2-2" data-name="Calque 1-2"><polygon class="cls-2" points="45.32 312.95 37.87 291.35 124.34 291.35 124.34 273.05 128.91 273.05 128.91 266.19 133.49 266.19 133.49 273.05 190.65 273.42 190.65 242.18 185.82 242.18 185.4 235.32 208.94 235.32 208.94 242.18 203.61 242.18 204.77 281.95 218.09 282.73 218.09 274.2 221.52 274.2 221.52 284.29 243.75 283.51 245.72 175.87 252.39 175.87 252.39 248.16 267.25 247.75 267.25 269.62 295.84 269.62 295.84 236.5 300.41 237.65 300.41 224.78 297.25 223.99 296.84 204.63 311.85 204.25 311.85 247.27 313.56 260.9 316.42 258.96 316.42 267.34 334.71 267.34 334.71 286.77 341.57 286.77 341.57 277.63 351.86 277.63 351.86 285.63 471 286.79 442.1 316.5 47.3 316.5 45.32 312.95"/></g></g></g></g></svg>