<svg xmlns="http://www.w3.org/2000/svg" viewBox="0 0 489 489"><defs><style>.cls-1{fill:#446e58;}.cls-2{fill:none;stroke:#fff;stroke-miterlimit:10;stroke-width:5px;}</style></defs><title>FEMM</title><g id="Calque_2" data-name="Calque 2"><g id="Calque_1-2" data-name="Calque 1"><path class="cls-1" d="M244.5,8a236.56,236.56,0,0,1,92.05,454.42A236.56,236.56,0,0,1,152.45,26.58,235,235,0,0,1,244.5,8m0-8C109.47,0,0,109.47,0,244.5S109.47,489,244.5,489,489,379.53,489,244.5,379.53,0,244.5,0Z"/></g><g id="FEMM"><g id="Calque_2-2" data-name="Calque 2"><g id="Calque_1-2-2" data-name="Calque 1-2"><polygon class="cls-2" points="58.15 314 34.5 294.74 34.5 282.44 109.89 282.44 109.89 263.16 137.94 263.16 137.94 259.65 152.84 259.65 152.84 250.89 170.37 250.89 170.37 243.87 201.93 243.87 201.93 261.93 216.83 261.52 216.83 249.91 220.34 249.46 220.34 175.5 227.35 175.5 227.35 246.27 230.85 244.75 230.85 256.63 233.48 260.53 259.78 260.08 259.78 254.06 264.17 253.65 264.17 242.59 264.17 239.09 272.93 239.51 272.93 228.21 282.57 227.79 282.57 238.11 287.59 238.53 285.48 244.75 300.98 244.75 300.98 257.89 315.01 257.44 315.01 265.7 315.01 274.46 320.27 274 320.27 279.09 367.6 278.24 367.6 271.05 380.75 271.05 380.75 278.94 454.38 278.94 454.38 284.92 437.18 288.76 425.13 295.6 416.53 314 58.15 314"/></g></g></g></g></svg>