<?xml version="1.0" encoding="utf-8"?>
<!-- Generator: Adobe Illustrator 21.1.0, SVG Export Plug-In . SVG Version: 6.00 Build 0)  -->
<svg version="1.1" id="Calque_1" xmlns="http://www.w3.org/2000/svg" xmlns:xlink="http://www.w3.org/1999/xlink" x="0px" y="0px"
	 viewBox="0 0 1024 1280" style="enable-background:new 0 0 1024 1280;" xml:space="preserve">
<style type="text/css">
	.st0{display:none;}
	.st1{fill:#446E58;}
</style>
<path class="st0" d="M952.6,513.6c0,0.1,0,0.3,0,0.4c0.1,8.2-3,16.4-9.2,22.7L678.2,801.9c-12.3,12.3-32.2,12.3-44.6,0
	c-6.1-6.2-9.2-14.2-9.2-22.3c0-8.1,3.1-15.9,9.2-22L845.4,546H96c-17.4,0-31.5-14.4-31.5-31.8c0-8.7,3.5-16.5,9.2-22.2
	c5.7-5.7,13.6-9.1,22.3-9.1h749.5L633.6,270.9c-12.3-12.3-12.3-32.4,0-44.7c12.3-12.3,32.2-12.4,44.6-0.1l265.2,265.1
	C949.5,497.5,952.6,505.5,952.6,513.6z"/>
<path class="st1" d="M64.5,513.6c0,0.1,0,0.3,0,0.4c-0.1,8.2,2.9,16.4,9.2,22.7l265.2,265.2c12.3,12.3,32.2,12.3,44.6,0
	c6.1-6.2,9.2-14.2,9.2-22.3c0-8.1-3.1-15.9-9.2-22L171.6,546h749.5c17.4,0,31.5-14.3,31.5-31.8c0-8.7-3.5-16.5-9.2-22.2
	c-5.7-5.7-13.6-9.1-22.3-9.1H171.6l211.8-212.1c12.3-12.3,12.3-32.4,0-44.7c-12.3-12.3-32.2-12.4-44.6-0.1L73.7,491.3
	C67.6,497.5,64.5,505.5,64.5,513.6z"/>
</svg>
