<svg xmlns="http://www.w3.org/2000/svg" viewBox="0 0 749.19 252.11"><defs><style>.cls-1{fill:#2a3d98;}</style></defs><title>flf_allie</title><g id="Calque_2" data-name="Calque 2"><g id="Calque_1-2" data-name="Calque 1"><polygon class="cls-1" points="15.04 251.71 702.1 252.11 744.05 210.15 744.05 200.66 749.19 201.05 748.8 167.41 743.26 167.81 744.45 187.2 740.49 187.2 740.49 195.51 734.55 200.66 627.69 200.66 627.69 191.95 646.69 191.16 646.29 186.8 614.24 186.8 614.24 182.06 604.74 182.06 604.74 188.39 599.2 187.59 599.2 195.51 534.29 195.91 533.1 177.31 528.75 161.47 524.4 147.23 523.61 93.4 520.04 93.4 520.44 148.41 515.29 149.21 515.29 93.01 512.13 93.01 511.34 149.21 506.19 149.21 506.19 158.31 483.63 158.31 486.8 153.16 486.8 144.06 482.44 144.46 482.44 149.6 478.88 149.21 478.88 157.91 459.09 159.1 455.14 149.6 454.74 134.96 458.3 134.96 458.3 131 449.6 131 450.39 120.71 469.78 121.11 472.95 116.75 478.09 116.75 477.69 112 472.95 112 472.95 107.65 467.8 106.86 467.8 111.61 461.07 111.61 461.07 118.33 451.97 117.94 450.78 93.01 445.24 92.22 445.24 87.07 449.6 86.67 449.6 79.95 439.7 79.15 440.49 70.45 445.64 70.05 444.85 65.3 439.7 65.3 440.1 51.45 445.64 51.45 445.64 47.1 440.49 46.3 440.1 0 435.35 0 435.74 46.7 430.6 46.7 430.6 50.66 434.56 50.66 436.14 65.3 430.2 65.3 430.2 69.66 434.56 69.66 435.74 116.36 421.1 117.54 425.85 121.11 425.85 126.65 430.2 126.65 430.99 154.35 426.64 153.96 426.64 158.31 394.19 159.1 389.44 163.45 388.65 171.76 380.34 171.76 379.94 159.5 370.84 159.5 370.44 172.95 365.69 172.95 365.3 159.1 355.4 158.7 356.59 172.56 338.38 172.95 337.59 154.75 343.13 154.75 342.34 144.85 347.49 144.85 347.09 131 359.76 130.21 360.55 121.9 350.65 121.9 349.86 116.36 341.95 116.36 341.95 122.69 329.68 121.9 328.89 129.42 340.76 131 341.55 135.75 323.74 135.75 323.74 149.21 308.31 148.81 309.89 178.1 239.84 177.31 238.65 159.1 219.26 159.1 220.84 178.49 192.34 177.7 193.53 206.99 187.59 214.11 0 215.3 0.79 225.59 15.04 251.71"/></g></g></svg>
