<svg xmlns="http://www.w3.org/2000/svg" viewBox="0 0 172.04 56.07"><defs><style>.cls-1{fill:#093;stroke:#000;stroke-miterlimit:10;stroke-width:0.75px;}</style></defs><title>Fregate_de_defense_vert</title><g id="Calque_2" data-name="Calque 2"><g id="FREGATE_DE_DEFENSE" data-name="FREGATE DE DEFENSE"><polygon class="cls-1" points="3.48 54.34 0.53 45.86 34.34 45.86 34.34 38.61 36.3 38.61 36.3 35.9 38.15 35.9 38.15 38.61 60.77 38.73 60.77 26.68 58.92 26.68 58.8 23.98 67.9 23.98 67.9 26.31 65.68 26.31 66.17 42.17 71.34 42.42 71.34 39.22 72.94 39.22 72.94 43.03 81.54 42.79 82.28 0.38 85.11 0.38 85.11 28.77 90.76 28.65 90.76 37.26 101.95 37.26 101.95 24.22 103.79 24.59 103.79 19.55 102.56 19.31 102.44 11.69 108.22 11.56 108.22 28.53 109.08 33.81 110.43 33.08 110.43 36.15 117.44 36.15 117.44 43.89 120.14 43.89 120.14 40.58 124.2 40.58 124.2 43.52 171.16 44.02 159.73 55.7 4.22 55.7 3.48 54.34"/></g></g></svg>
