<?xml version="1.0" encoding="utf-8"?>
<!-- Generator: Adobe Illustrator 21.1.0, SVG Export Plug-In . SVG Version: 6.00 Build 0)  -->
<svg version="1.1" id="Calque_1" xmlns="http://www.w3.org/2000/svg" xmlns:xlink="http://www.w3.org/1999/xlink" x="0px" y="0px"
	 viewBox="0 0 2362 2362" style="enable-background:new 0 0 2362 2362;" xml:space="preserve">
<style type="text/css">
	.st0{fill:#FF3300;stroke:#000000;stroke-miterlimit:10;}
</style>
<title>Fregate_Multimissions_FEMM</title>
<polygon class="st0" points="386,689.5 379.1,683.8 379.1,680.2 401,680.2 401,674.8 409.1,674.8 409.1,673.7 413.4,673.7 
	413.4,671.1 418.4,671.1 418.4,669.1 427.8,669.1 427.8,674.3 432,674.2 432,671 433.1,670.8 433.1,649.3 435.1,649.3 435.1,669.8 
	436.1,669.4 436.1,672.8 436.9,674 444.4,673.8 444.4,672.1 445.8,672 445.8,668.7 445.8,667.7 448.3,667.8 448.3,664.6 
	451.1,664.5 451.1,667.5 452.6,667.6 452,669.4 456.4,669.4 456.4,673.2 460.5,673.1 460.5,675.5 460.5,678 462,677.8 462,679.3 
	475.9,679.1 475.9,677 479.6,677 479.6,679.2 501.1,679.2 501.1,681 496.1,682.1 492.6,684.1 490.1,689.5 "/>
</svg>
