<svg xmlns="http://www.w3.org/2000/svg" viewBox="0 0 177.1 58.86"><defs><style>.cls-1{fill:#093;stroke:#000;stroke-miterlimit:10;stroke-width:0.75px;}</style></defs><title>Fregate_Multimissions_FEMM_vert</title><g id="Calque_2" data-name="Calque 2"><g id="FEMMM"><polygon class="cls-1" points="10.35 58.48 0.38 50.24 0.38 45.04 32.03 45.04 32.03 37.23 43.74 37.23 43.74 35.65 49.95 35.65 49.95 31.89 57.18 31.89 57.18 29 70.77 29 70.77 36.51 76.84 36.37 76.84 31.74 78.43 31.45 78.43 0.38 81.32 0.38 81.32 30.01 82.77 29.43 82.77 34.34 83.92 36.08 94.77 35.79 94.77 33.33 96.79 33.19 96.79 28.42 96.79 26.97 100.4 27.12 100.4 22.49 104.45 22.35 104.45 26.68 106.62 26.83 105.75 29.43 112.11 29.43 112.11 34.92 118.04 34.78 118.04 38.25 118.04 41.86 120.21 41.57 120.21 43.74 140.3 43.45 140.3 40.41 145.65 40.41 145.65 43.59 176.72 43.59 176.72 46.2 169.5 47.79 164.44 50.68 160.82 58.48 10.35 58.48"/></g></g></svg>
