<?xml version="1.0" encoding="utf-8"?>
<!-- Generator: Adobe Illustrator 21.1.0, SVG Export Plug-In . SVG Version: 6.00 Build 0)  -->
<svg version="1.1" id="Calque_1" xmlns="http://www.w3.org/2000/svg" xmlns:xlink="http://www.w3.org/1999/xlink" x="0px" y="0px"
	 viewBox="0 0 2362 2362" style="enable-background:new 0 0 2362 2362;" xml:space="preserve">
<style type="text/css">
	.st0{fill:#FF3300;stroke:#000000;stroke-miterlimit:10;}
</style>
<title>Fregate_de_defense_FDA</title>
<polygon class="st0" points="375.1,519.6 372.7,512.7 400.2,512.7 400.2,506.8 401.8,506.8 401.8,504.6 403.3,504.6 403.3,506.8 
	421.7,506.9 421.7,497.1 420.2,497.1 420.1,494.9 427.5,494.9 427.5,496.8 425.7,496.8 426.1,509.7 430.3,509.9 430.3,507.3 
	431.6,507.3 431.6,510.4 438.6,510.2 439.2,475.7 441.5,475.7 441.5,498.8 446.1,498.7 446.1,505.7 455.2,505.7 455.2,495.1 
	456.7,495.4 456.7,491.3 455.7,491.1 455.6,484.9 460.3,484.8 460.3,498.6 461,502.9 462.1,502.3 462.1,504.8 467.8,504.8 
	467.8,511.1 470,511.1 470,508.4 473.3,508.4 473.3,510.8 511.5,511.2 502.2,520.7 375.7,520.7 "/>
</svg>
