<svg xmlns="http://www.w3.org/2000/svg" viewBox="0 0 712.53 246.23"><defs><style>.cls-1{fill:#ef3a24;}</style></defs><title>fs_ennemi</title><g id="Calque_2" data-name="Calque 2"><g id="Calque_1-2" data-name="Calque 1"><polygon class="cls-1" points="17.19 245.97 681.98 246.23 682.36 241.71 686.88 241.71 712.53 205.51 712.15 200.99 652.57 200.61 652.19 206.64 581.68 205.89 581.3 191.56 572.25 191.56 571.5 176.47 560.56 175.34 560.56 170.44 545.86 171.19 545.48 191.94 500.23 191.18 500.98 155.36 495.33 154.98 496.83 146.31 469.69 145.55 469.69 140.27 454.98 140.27 454.6 130.47 435.75 130.47 435.75 139.9 425.57 139.52 424.81 105.21 445.55 105.21 445.18 98.04 409.35 98.04 408.98 0.38 404.45 0 404.45 156.11 395.02 156.11 395.4 130.47 389.74 130.47 384.46 130.47 384.09 135.37 379.94 141.03 359.58 140.27 359.58 130.47 349.4 130.47 335.82 140.27 335.07 150.83 324.51 150.83 323.38 135 319.61 135 318.48 115.01 310.56 115.01 310.18 110.11 314.33 110.11 314.33 101.06 299.62 99.93 299.62 109.73 303.01 110.11 302.64 115.01 288.69 115.76 288.31 140.27 238.53 140.65 223.83 145.93 223.83 161.01 218.17 160.26 218.55 166.29 222.7 166.29 223.45 185.9 228.35 185.9 228.35 194.95 157.46 195.33 157.09 191.18 152.56 191.18 152.56 185.9 146.9 181.38 135.59 179.87 135.59 175.72 176.69 175.72 176.69 171.57 127.3 170.44 127.3 166.29 123.15 166.67 122.77 169.69 122.52 169.85 120.33 171.31 113.72 175.72 97.13 181.38 90.34 185.9 82.05 186.28 76.01 179.11 76.39 170.82 82.05 170.82 121.88 169.65 122.69 169.64 123.11 166.68 82.01 165.9 77.36 165.9 74.96 168.86 71.57 165.19 67.34 165.19 67.48 180.29 77.36 191.3 90.05 192.57 67.34 196.24 52.81 216.5 0 217.32 17.19 245.97"/></g></g></svg>
