<?xml version="1.0" encoding="utf-8"?>
<!-- Generator: Adobe Illustrator 21.1.0, SVG Export Plug-In . SVG Version: 6.00 Build 0)  -->
<svg version="1.1" id="Calque_8" xmlns="http://www.w3.org/2000/svg" xmlns:xlink="http://www.w3.org/1999/xlink" x="0px" y="0px"
	 viewBox="0 0 178.6 65.8" style="enable-background:new 0 0 178.6 65.8;" xml:space="preserve">
<style type="text/css">
	.st0{fill:#003399;stroke:#000000;stroke-width:0.5;stroke-miterlimit:10;}
	.st1{fill:#FFFFFF;stroke:#000000;stroke-width:0.5;stroke-miterlimit:10;}
</style>
<title>HAWKEYE</title>
<path class="st0" d="M0.9,49.5l6.1-1.9V18.7h7.3L18,31.8l6.9-0.3V15.1h5.8l5.1,16h3l14.4-7.5l-2.2-7.8l-6.9-1.6l-0.1-3
	c0,0,50.4-16.5,75.8-9c0.6,1-1.4,5.9-30.3,10.1c-0.3,0.1-2.6,6.7,5.6,14.2c-0.4,0.3,0.9-9.5,0.9-9.5l3.5,0.1l1,10.8l35.7-10
	c0,0,1.3-5.6,4.9-2.7c0.6,1.3,10.8-2.9,10.8-2.9l2-4.8h2.5v3l21.1-8.8l0.7,3.8l-45.9,21.6l2.2,3.9c0,0,13.4-2.9,19.6,1.6
	c0.9,1,0.3,4.9,14.9,11.8c1.2,0.9,4.3,7.2-15.2,11.9c-0.4-0.1-49.5-0.3-52.9-1.9c0.3-1.7,0.3,9.7,0.3,9.7s-2,3.5-5.5,0
	c-0.9-0.7,0.3-9.8,0.3-9.8S84.8,59,83.4,58.7s-14.6-5.6-15.6-6.5s-7.9-0.1-7.9-0.1s-6.7-5.1-7.7-4.5c-0.8,0.6-1.6,1.3-2.3,2L47,46
	l-32.7,4.8l-0.9,2.5L0.9,49.5z"/>
<polygon class="st1" points="53.2,31.3 67.2,22.7 67.2,33.5 53.2,32.9 "/>
<path class="st1" d="M59.3,15.8l2.4,4.4h3.3v-4.8C63,15.4,61.1,15.5,59.3,15.8z"/>
<polygon class="st1" points="77.2,23.9 77.2,33.5 84.3,33.5 84.3,27.6 "/>
<polygon class="st1" points="86.6,28.1 86.6,32.9 88.9,32.9 88.9,29.3 "/>
<polygon class="st1" points="90.6,27 93.9,31.3 94.9,30.5 91,25.9 "/>
</svg>
