<svg xmlns="http://www.w3.org/2000/svg" viewBox="0 0 177.41 65.34"><defs><style>.cls-1{fill:#189526;}.cls-2{fill:#fff;}</style></defs><title>hawkeye_neutre</title><g id="Calque_2" data-name="Calque 2"><g id="HAWKEYE"><path class="cls-1" d="M0,49.2l6.07-1.88V18.43h7.37l3.76,13.15,6.93-.29V14.82H29.9l5.06,16h3l14.45-7.51-2.17-7.8L43.34,14l-.14-3S93.61-5.55,119,2c.58,1-1.44,5.92-30.34,10.11-.29.14-2.6,6.65,5.63,14.16-.43.29.87-9.53.87-9.53l3.47.14,1,10.83,35.68-10s1.3-5.63,4.91-2.74c.58,1.3,10.83-2.89,10.83-2.89l2-4.77h2.46v3l21.09-8.81.72,3.76L131.46,26.81l2.17,3.9s13.44-2.89,19.65,1.59c.87,1,.29,4.91,14.88,11.85C169.31,45,172.49,51.37,153,56c-.43-.14-49.55-.29-52.87-1.88.29-1.73.29,9.68.29,9.68s-2,3.47-5.49,0C94,63.07,95.2,54,95.2,54s-11.27,4.77-12.71,4.48-14.59-5.63-15.6-6.5-7.95-.14-7.95-.14-6.65-5.06-7.66-4.48a21.7,21.7,0,0,0-2.31,2l-2.89-3.61L13.44,50.5,12.57,53Z"/><polygon class="cls-2" points="52.35 31.06 66.37 22.43 66.37 33.2 52.35 32.67 52.35 31.06"/><path class="cls-2" d="M58.39,15.55l2.41,4.37h3.25V15.09A39.6,39.6,0,0,0,58.39,15.55Z"/><polygon class="cls-2" points="76.31 23.63 76.31 33.2 83.43 33.2 83.43 27.35 76.31 23.63"/><polygon class="cls-2" points="85.69 27.81 85.69 32.67 88.01 32.67 88.01 29.02 85.69 27.81"/><polygon class="cls-2" points="89.78 26.79 93.03 31.06 94.05 30.24 90.15 25.65 89.78 26.79"/></g></g></svg>
