<svg id="Calque_1" data-name="Calque 1" xmlns="http://www.w3.org/2000/svg" viewBox="0 0 109.52 109.52"><defs><style>.cls-1,.cls-3{fill:none;}.cls-1{stroke:#fff;stroke-linecap:round;stroke-linejoin:round;}.cls-2{fill:#fff;}.cls-3{stroke:#446e58;stroke-miterlimit:10;stroke-width:1.5px;}</style></defs><title>helico_2</title><line class="cls-1" x1="14.29" y1="45.93" x2="24.49" y2="43.63"/><path class="cls-2" d="M107.33,84c-.5-.9-1-.8-2-.6l-6.5,1.5h-7.6l-.1-4.4h2.6c6.2,0,13.5-.2,13.9-10,0-9.1-18.2-21.1-26.6-21.1h-8.8L72,42h30.2c1.1,0,1.5-.1,1.5-.8s-.3-.9-1.4-.9H40.43c-1.1,0-1.6-.2-1.7,1,.1.9.5.7,1.5.8h30.2l.2,7.4H29.13l-6.7-8.3a2.09,2.09,0,0,0-1.6-.8h-6.3a2.23,2.23,0,0,0-1.7.9,1.86,1.86,0,0,0-.1,1.9l5.2,10.3-1.7,8.4a2.09,2.09,0,0,0,.4,1.7,1.8,1.8,0,0,0,1.5.7h5.5a2,2,0,0,0,1.4-.6l2-2,28.4,5a15.66,15.66,0,0,0,10.8,13.2l-.1,4.9H55.33c-1.1,0-1.8,0-1.8,1.1s.8,1.1,1.9,1.1h43.7a2.35,2.35,0,0,0,.8-.2l6.2-1.3C106.93,85.37,107.63,85.07,107.33,84ZM106,68.17l-15.8.4c-7.5-1.3-13.2-9.8-13.7-17.5H81C88.73,51,102,59.27,106,68.17Zm-48.7-1.6a1.34,1.34,0,0,0-1.4-1.5l-28.6-4.8H27c-.5,0-2.7,2.1-3,2.5h-1.5l-4.3-.1,1.8-9a2,2,0,0,0-.2-1.3l-5.3-10.3,6.4-.1,6.7,8.4a2.09,2.09,0,0,0,1.6.8l45.8-.1v1a1.7,1.7,0,0,0,.1.7c1,8.4,8.3,17,16.2,17l14.7-.2c0,.2.1.5.1.7.2,6.6-4.1,9.5-12.9,9.2l-22.9-.2C63.93,79.27,57.33,73,57.33,66.57Zm10.3,13.8h22.2v4.4H67.63Z" transform="translate(-5.32 -6.84)"/><circle class="cls-3" cx="54.76" cy="54.76" r="54.01"/></svg>