<?xml version="1.0" encoding="utf-8"?>
<!-- Generator: Adobe Illustrator 21.1.0, SVG Export Plug-In . SVG Version: 6.00 Build 0)  -->
<svg version="1.1" id="Calque_1" xmlns="http://www.w3.org/2000/svg" xmlns:xlink="http://www.w3.org/1999/xlink" x="0px" y="0px"
	 viewBox="0 0 100 125" style="enable-background:new 0 0 100 125;" xml:space="preserve">
<style type="text/css">
	.st0{fill:none;stroke:#FFFFFF;stroke-linecap:round;stroke-linejoin:round;stroke-miterlimit:10;}
	.st1{fill:#FFFFFF;}
</style>
<line class="st0" x1="9.8" y1="38.3" x2="20" y2="36"/>
<path class="st1" d="M97.8,69.5c-0.5-0.9-1-0.8-2-0.6l-6.5,1.5h-7.6L81.6,66h2.6c6.2,0,13.5-0.2,13.9-10c0-9.1-18.2-21.1-26.6-21.1
	h-8.8l-0.2-7.4h30.2c1.1,0,1.5-0.1,1.5-0.8c0-0.7-0.3-0.9-1.4-0.9H30.9c-1.1,0-1.6-0.2-1.7,1c0.1,0.9,0.5,0.7,1.5,0.8h30.2l0.2,7.4
	H19.6l-6.7-8.3c-0.4-0.5-1-0.8-1.6-0.8H5c-0.7,0-1.3,0.4-1.7,0.9c-0.4,0.6-0.4,1.3-0.1,1.9L8.4,39l-1.7,8.4c-0.1,0.6,0,1.2,0.4,1.7
	s0.9,0.7,1.5,0.7h5.5c0.5,0,1-0.2,1.4-0.6l2-2l28.4,5c0.7,6.2,5,11.4,10.8,13.2l-0.1,4.9H45.8c-1.1,0-1.8,0-1.8,1.1s0.8,1.1,1.9,1.1
	h43.7c0.3,0,0.5-0.1,0.8-0.2l6.2-1.3C97.4,70.9,98.1,70.6,97.8,69.5z M96.5,53.7l-15.8,0.4c-7.5-1.3-13.2-9.8-13.7-17.5h4.5
	C79.2,36.5,92.5,44.8,96.5,53.7z M47.8,52.1c0-1-0.5-1.4-1.4-1.5l-28.6-4.8c0,0-0.2,0-0.3,0c-0.5,0-2.7,2.1-3,2.5H13l-4.3-0.1l1.8-9
	c0.1-0.4,0-0.9-0.2-1.3L5,27.6l6.4-0.1l6.7,8.4c0.4,0.5,1,0.8,1.6,0.8l45.8-0.1v1c0,0.2,0,0.5,0.1,0.7c1,8.4,8.3,17,16.2,17
	l14.7-0.2c0,0.2,0.1,0.5,0.1,0.7c0.2,6.6-4.1,9.5-12.9,9.2l-22.9-0.2C54.4,64.8,47.8,58.5,47.8,52.1z M58.1,65.9c0.3,0,0.6,0,1,0
	h21.2v4.4H58.1V65.9z"/>
</svg>
