<svg id="Calque_1" data-name="Calque 1" xmlns="http://www.w3.org/2000/svg" viewBox="0 0 60.96 61.95"><defs><style>.cls-1{fill:#18211d;}.cls-2{fill:#446d58;}</style></defs><title>basemapToggle</title><path class="cls-1" d="M462.48,342.7a30.53,30.53,0,0,0-30.63-30.89c-16.87,0-30.32,13.76-30.33,30.94s13.48,31,30.5,31S462.5,360,462.48,342.7Z" transform="translate(-401.52 -311.8)"/><path class="cls-2" d="M462.48,342.7C462.5,360,449,373.75,432,373.76s-30.51-13.71-30.5-31,13.47-30.9,30.33-30.94A30.53,30.53,0,0,1,462.48,342.7Zm-59.5,0a29,29,0,1,0,29.14-29.37A29.24,29.24,0,0,0,403,342.66Z" transform="translate(-401.52 -311.8)"/><path class="cls-2" d="M408.58,336.52a2.27,2.27,0,0,1,.59-.86,1.78,1.78,0,0,1,1-.3c1.34,0,2.69,0,4,0a1.46,1.46,0,0,1,1.49,2,1.34,1.34,0,0,1-1.28.9c-1.5,0-3,0-4.51,0a1.33,1.33,0,0,1-1.25-.93c0-.05,0-.12-.11-.13Z" transform="translate(-401.52 -311.8)"/><path class="cls-2" d="M427.74,317.88a1.7,1.7,0,0,1,1.05.79,1.88,1.88,0,0,1,.19.86c0,1.34,0,2.69,0,4a1.46,1.46,0,0,1-2,1.49,1.34,1.34,0,0,1-.9-1.28c0-1.5,0-3,0-4.51A1.33,1.33,0,0,1,427,318c.05,0,.12,0,.13-.11Z" transform="translate(-401.52 -311.8)"/><path class="cls-2" d="M437.72,336.83a10.2,10.2,0,1,1-10.2-10.21A10.24,10.24,0,0,1,437.72,336.83Zm-2.92,0a7.28,7.28,0,1,0-7.3,7.27A7.29,7.29,0,0,0,434.8,336.83Z" transform="translate(-401.52 -311.8)"/><path class="cls-2" d="M437.7,321.57a1.66,1.66,0,0,1-.24.94c-.68,1.19-1.37,2.39-2.07,3.58a1.44,1.44,0,0,1-2.46.23,1.4,1.4,0,0,1-.08-1.66q1-1.85,2.12-3.67a1.46,1.46,0,0,1,1.7-.71A1.41,1.41,0,0,1,437.7,321.57Z" transform="translate(-401.52 -311.8)"/><path class="cls-2" d="M416.21,331.7a1.53,1.53,0,0,1-.87-.24q-1.8-1-3.58-2.06a1.45,1.45,0,0,1-.79-1.5,1.38,1.38,0,0,1,1-1.2,1.44,1.44,0,0,1,1.21.15c1.24.7,2.48,1.41,3.7,2.14a1.45,1.45,0,0,1-.67,2.71Z" transform="translate(-401.52 -311.8)"/><path class="cls-2" d="M422.41,325.42a1.51,1.51,0,0,1-.91,1.4,1.47,1.47,0,0,1-1.56-.35,2.38,2.38,0,0,1-.29-.38c-.69-1.19-1.38-2.38-2.06-3.58a1.45,1.45,0,0,1,.37-2,1.42,1.42,0,0,1,2.1.48c.75,1.24,1.46,2.51,2.18,3.77A1.23,1.23,0,0,1,422.41,325.42Z" transform="translate(-401.52 -311.8)"/><path class="cls-2" d="M412.36,347a1.5,1.5,0,0,1-1.33-.9,1.47,1.47,0,0,1,.31-1.54,2.5,2.5,0,0,1,.44-.34q1.77-1,3.55-2a1.45,1.45,0,0,1,2,.38,1.42,1.42,0,0,1-.47,2.08c-1.25.76-2.53,1.46-3.8,2.19A1.48,1.48,0,0,1,412.36,347Z" transform="translate(-401.52 -311.8)"/><polygon class="cls-2" points="10.74 53.21 47.4 6.33 49.4 7.86 12.86 54.74 10.74 53.21"/><polygon class="cls-1" points="26.44 37.31 28.34 34.87 38.51 21.82 42.44 23.7 43.06 31.21 39.66 38.01 32.42 39.55 26.65 38.4 26.44 37.31"/><path class="cls-2" d="M443.11,341.51c-2.53,4-2.74,8-.12,12a10.23,10.23,0,0,0,10.87,4.2,10.67,10.67,0,0,1-11.21,5.41,10.92,10.92,0,0,1,.46-21.63Z" transform="translate(-401.52 -311.8)"/><path class="cls-2" d="M411,346.07a1.7,1.7,0,0,1,.14-1.3,1.88,1.88,0,0,1,.64-.6c1.15-.69,2.3-1.39,3.46-2.06a1.46,1.46,0,0,1,2.3,1,1.34,1.34,0,0,1-.64,1.43c-1.28.79-2.57,1.56-3.88,2.3a1.33,1.33,0,0,1-1.55-.16s-.09-.08-.16-.06Z" transform="translate(-401.52 -311.8)"/><path class="cls-2" d="M409.12,335.63a1.66,1.66,0,0,1,.93-.27c1.38,0,2.75-.05,4.13-.05a1.44,1.44,0,0,1,1.46,2,1.4,1.4,0,0,1-1.39.91c-1.41,0-2.83.05-4.24.05a1.46,1.46,0,0,1-1.48-1.1A1.41,1.41,0,0,1,409.12,335.63Z" transform="translate(-401.52 -311.8)"/><path class="cls-2" d="M420.24,346.8a1.51,1.51,0,0,1,1.66.07,1.47,1.47,0,0,1,.5,1.52,2.38,2.38,0,0,1-.18.44c-.67,1.2-1.34,2.41-2,3.6a1.45,1.45,0,0,1-1.91.7,1.42,1.42,0,0,1-.67-2c.68-1.28,1.41-2.54,2.12-3.8A1.23,1.23,0,0,1,420.24,346.8Z" transform="translate(-401.52 -311.8)"/><path class="cls-2" d="M437.24,320.56a1.7,1.7,0,0,1,.51,1.21,1.88,1.88,0,0,1-.27.83c-.67,1.17-1.34,2.33-2,3.48a1.46,1.46,0,0,1-2.48.28,1.34,1.34,0,0,1-.13-1.56q1.1-2,2.27-3.89a1.33,1.33,0,0,1,1.44-.62c.06,0,.12,0,.17,0Z" transform="translate(-401.52 -311.8)"/><path class="cls-2" d="M439.72,331.5a1.44,1.44,0,0,1-2.24-1,1.4,1.4,0,0,1,.77-1.47q1.83-1.07,3.68-2.11a1.46,1.46,0,0,1,1.83.24" transform="translate(-401.52 -311.8)"/><path class="cls-2" d="M428.83,324.39a1.51,1.51,0,0,1-1.49.75,1.47,1.47,0,0,1-1.17-1.09,2.38,2.38,0,0,1-.06-.47c0-1.38,0-2.75,0-4.13a1.45,1.45,0,0,1,1.32-1.54,1.42,1.42,0,0,1,1.58,1.47c0,1.45,0,2.9,0,4.35A1.23,1.23,0,0,1,428.83,324.39Z" transform="translate(-401.52 -311.8)"/></svg>
