<svg id="Logo_IIM" xmlns="http://www.w3.org/2000/svg" viewBox="0 0 465 465"><defs><style>.cls-1{fill:#ef7f01;}.cls-2{fill:#fff;}</style></defs><title>Logo_IIM</title><circle class="cls-1" cx="232.5" cy="232.5" r="232.5"/><rect class="cls-2" x="213.86" y="117.99" width="29" height="22.38" rx="3.57" ry="3.57"/><rect class="cls-2" x="213.86" y="150.67" width="29" height="94.13" rx="3.57" ry="3.57"/><rect class="cls-2" x="257" y="150.67" width="29" height="94.13" rx="3.54" ry="3.54"/><rect class="cls-2" x="256.14" y="117.99" width="29" height="22.38" rx="3.57" ry="3.57"/><path class="cls-2" d="M85.94,298.4h5.74V328a2.71,2.71,0,0,0,3,3h12v4.79H91.77s-5.66-.72-5.66-5.66C86.1,329.83,85.94,298.4,85.94,298.4Z" transform="translate(-17.5 -17.5)"/><path class="cls-2" d="M132.69,298.4v4.47H119.76a2.58,2.58,0,0,0-2.87,2.87c-.08-.08,0,8.46,0,8.46h15.79V318H116.86v11s.24,2.85,2.85,2.85c.06-.06,13,0,13,0v3.85H116.86s-5.49-.6-5.49-5.49v-27.3s.32-4.79,4.79-4.79S132.69,298.4,132.69,298.4Z" transform="translate(-17.5 -17.5)"/><path class="cls-2" d="M160.67,354.16v4.44H147.75a2.57,2.57,0,0,0-2.87,2.85c-.08-.08,0,8.4,0,8.4h15.79v3.8H144.84v10.94s.24,2.83,2.85,2.83c.06-.06,13,0,13,0v3.83H144.84s-5.49-.6-5.49-5.45V358.68s.32-4.76,4.79-4.76S160.67,354.16,160.67,354.16Z" transform="translate(-17.5 -17.5)"/><polygon class="cls-2" points="102.19 278.99 106.49 278.99 114.7 270.78 110.43 270.78 102.19 278.99"/><polygon class="cls-2" points="157.81 318.11 161.75 318.11 161.75 289.56 163.12 289.56 177.32 318.11 183.13 318.11 183.13 280.65 178.68 280.65 178.68 309.79 177.53 309.79 163.33 280.65 157.81 280.65 157.81 318.11"/><polygon class="cls-2" points="212.46 373.81 216.41 373.81 216.41 345.25 217.77 345.25 231.98 373.81 237.79 373.81 237.79 336.35 233.34 336.35 233.34 365.48 232.19 365.48 217.99 336.35 212.46 336.35 212.46 373.81"/><polygon class="cls-2" points="206.33 280.02 203.88 280.02 203.88 284.6 204.72 284.6 209.36 302.28 203.88 302.28 203.88 305.99 209.91 305.99 213.87 318.04 218.44 318.04 206.33 280.02"/><polygon class="cls-2" points="199.05 302.28 203.68 284.6 203.88 284.6 203.88 280.02 201.44 280.02 189.33 318.04 193.9 318.04 197.86 305.99 203.88 305.99 203.88 302.28 199.05 302.28"/><path class="cls-2" d="M166.21,305.86s-.18-8.44-8.44-8.44c.08-.08-3.08,0-4,0h0c-.88,0-4-.07-4,0-8.27,0-8.44,8.44-8.44,8.44s-.14,22,0,22.15c0,7,7.53,7.53,7.53,7.53h9.74s7.53-.57,7.53-7.53C166.35,327.87,166.21,305.86,166.21,305.86Zm-3.56,19.82c0,5-5.37,5.37-5.37,5.37h-6.95s-5.37-.4-5.37-5.37c-.1-.1,0-15.79,0-15.79s.13-6,6-6c-.06-.06,2.2,0,2.82,0s2.87-.05,2.82,0c5.89,0,6,6,6,6S162.75,325.58,162.65,325.68Z" transform="translate(-17.5 -17.5)"/><path class="cls-2" d="M259.2,319.66c6.6,0,7-7,7-7s-.1-6.48,0-6.58c0-5.77-7.6-7.6-7.6-7.6h-16v37.17l4.41-.06V319.78h6l9.16,15.76h5.63S259.18,319.68,259.2,319.66ZM257.43,316H247.16V303.49h10.27a3.53,3.53,0,0,1,3.73,3.73s0,2,0,2.51,0,2.5,0,2.51A3.53,3.53,0,0,1,257.43,316Z" transform="translate(-17.5 -17.5)"/><path class="cls-2" d="M299.17,307.57s.55-9.36-9.36-9.36c0,.09-14.84.23-14.84.23v37.11h14.78s9.43-.74,9.43-9.43C299.25,326,299.17,307.57,299.17,307.57Zm-4.53,16.74c0,6.59-5.84,7.15-5.84,7.15h-9.16V303.31s9.2-.11,9.2-.17c6.15,0,5.8,7.1,5.8,7.1S294.7,324.25,294.64,324.31Z" transform="translate(-17.5 -17.5)"/><path class="cls-2" d="M130.89,363.15s.55-9.36-9.36-9.36c0,.09-14.84.23-14.84.23v37.11h14.78s9.43-.74,9.43-9.43C131,381.61,130.89,363.15,130.89,363.15Zm-4.53,16.74c0,6.59-5.84,7.15-5.84,7.15h-9.16V358.89s9.2-.11,9.2-.17c6.15,0,5.8,7.1,5.8,7.1S126.42,379.83,126.37,379.89Z" transform="translate(-17.5 -17.5)"/><polyline class="cls-2" points="176.57 369.55 177.65 369.55 186.73 336.41 190.87 336.41 180.51 373.75 176.57 373.75"/><polyline class="cls-2" points="176.82 369.55 175.74 369.55 166.66 336.41 162.52 336.41 172.88 373.75 176.82 373.75"/><rect class="cls-2" x="198.15" y="336.35" width="4.58" height="37.45"/><rect class="cls-2" x="275.98" y="336.35" width="4.58" height="37.45"/><path class="cls-2" d="M268.66,372.58v-8.91a4.37,4.37,0,0,1,4.68-4.68s12.09,0,12.09,0v-5.14h-13.1c-4,0-7.75.15-7.75,7.75,0,0,0,11,0,11" transform="translate(-17.5 -17.5)"/><path class="cls-2" d="M268.66,372.58v8.91a4.37,4.37,0,0,0,4.68,4.68s12.09,0,12.09,0v5.14h-13.1c-4,0-7.75-.15-7.75-7.75,0,0,0-11,0-11" transform="translate(-17.5 -17.5)"/><path class="cls-2" d="M375.61,193.38h-1L345.76,141.2s0-1.08-2.86-1.08H322.78s-4.88-.65-4.88,4.74c-.19.18,0,115.35,0,115.35a2.11,2.11,0,0,0,2.1,2s11.06,0,11.06,0h12.88a2.71,2.71,0,0,0,2.92-2.84c0-.37-1.08-68.82,0-69.86s17,28.86,17,28.86,1.11,1.86,2.85,1.86c.17.17,8.91,0,8.91,0" transform="translate(-17.5 -17.5)"/><path class="cls-2" d="M372,193.38h1L402,141.2s0-1.08,2.88-1.08h20.29s4.92-.65,4.92,4.74c.19.18,0,115.35,0,115.35a2.12,2.12,0,0,1-2.12,2s-11.14,0-11.14,0h-13a2.73,2.73,0,0,1-2.95-2.84c0-.37,1.09-68.82,0-69.86s-17.13,28.86-17.13,28.86a3.88,3.88,0,0,1-2.87,1.86c-.18.17-9,0-9,0" transform="translate(-17.5 -17.5)"/></svg>
