<svg id="Logo_IIM" xmlns="http://www.w3.org/2000/svg" viewBox="0 0 442.45 442.45"><defs><style>.cls-1{fill:#ef7f01;}.cls-2{fill:#fff;}</style></defs><title>Logo_IIM</title><circle class="cls-1" cx="221.23" cy="221.23" r="221.23"/><rect class="cls-2" x="203.49" y="112.27" width="27.6" height="21.3" rx="3.57" ry="3.57"/><rect class="cls-2" x="203.49" y="143.36" width="27.6" height="89.56" rx="3.57" ry="3.57"/><rect class="cls-2" x="244.54" y="143.36" width="27.6" height="89.56" rx="3.54" ry="3.54"/><rect class="cls-2" x="243.72" y="112.27" width="27.6" height="21.3" rx="3.57" ry="3.57"/><path class="cls-2" d="M98.65,292.24h5.46V320.4a2.58,2.58,0,0,0,2.81,2.81h11.46v4.55H104.19s-5.39-.68-5.39-5.39C98.8,322.15,98.65,292.24,98.65,292.24Z" transform="translate(-33.52 -24.96)"/><path class="cls-2" d="M143.12,292.24v4.25h-12.3a2.45,2.45,0,0,0-2.73,2.73c-.08-.08,0,8,0,8h15v3.64H128.06v10.47s.23,2.71,2.71,2.71c.05-.05,12.35,0,12.35,0v3.66H128.06s-5.22-.57-5.22-5.22v-26s.3-4.56,4.56-4.56S143.12,292.24,143.12,292.24Z" transform="translate(-33.52 -24.96)"/><path class="cls-2" d="M169.75,345.3v4.22h-12.3a2.45,2.45,0,0,0-2.73,2.71c-.08-.08,0,8,0,8h15v3.62H154.69v10.41s.23,2.69,2.71,2.69c.05-.05,12.35,0,12.35,0v3.64H154.69s-5.22-.57-5.22-5.19v-25.8s.3-4.53,4.56-4.53S169.75,345.3,169.75,345.3Z" transform="translate(-33.52 -24.96)"/><polygon class="cls-2" points="97.23 265.46 101.33 265.46 109.14 257.65 105.07 257.65 97.23 265.46"/><polygon class="cls-2" points="150.16 302.68 153.91 302.68 153.91 275.51 155.21 275.51 168.72 302.68 174.25 302.68 174.25 267.05 170.02 267.05 170.02 294.76 168.93 294.76 155.41 267.05 150.16 267.05 150.16 302.68"/><polygon class="cls-2" points="202.16 355.68 205.92 355.68 205.92 328.51 207.21 328.51 220.73 355.68 226.26 355.68 226.26 320.04 222.03 320.04 222.03 347.76 220.94 347.76 207.42 320.04 202.16 320.04 202.16 355.68"/><polygon class="cls-2" points="196.32 266.45 194 266.45 194 270.8 194.79 270.8 199.21 287.62 194 287.62 194 291.15 199.74 291.15 203.5 302.62 207.85 302.62 196.32 266.45"/><polygon class="cls-2" points="189.4 287.62 193.81 270.8 194 270.8 194 266.45 191.68 266.45 180.15 302.62 184.5 302.62 188.26 291.15 194 291.15 194 287.62 189.4 287.62"/><path class="cls-2" d="M175,299.34s-.17-8-8-8c.07-.07-2.93,0-3.76,0h0c-.83,0-3.84-.07-3.76,0-7.86,0-8,8-8,8s-.13,20.94,0,21.08c0,6.62,7.16,7.16,7.16,7.16h9.27S175,327,175,320.42C175.15,320.28,175,299.34,175,299.34Zm-3.39,18.86c0,4.72-5.11,5.11-5.11,5.11h-6.61s-5.11-.38-5.11-5.11c-.1-.1,0-15,0-15s.12-5.73,5.73-5.73c-.05-.05,2.09,0,2.68,0s2.74,0,2.68,0c5.61,0,5.73,5.73,5.73,5.73S171.73,318.1,171.63,318.2Z" transform="translate(-33.52 -24.96)"/><path class="cls-2" d="M263.5,312.47c6.28,0,6.7-6.7,6.7-6.7s-.1-6.17,0-6.26c0-5.49-7.23-7.23-7.23-7.23H247.73v35.37l4.2-.06v-15h5.68l8.72,15h5.36S263.49,312.48,263.5,312.47Zm-1.69-3.5H252V297.09h9.77a3.36,3.36,0,0,1,3.55,3.55s0,1.9,0,2.39,0,2.38,0,2.39A3.36,3.36,0,0,1,261.81,309Z" transform="translate(-33.52 -24.96)"/><path class="cls-2" d="M301.53,301s.53-8.91-8.91-8.91c0,.08-14.12.22-14.12.22v35.31h14.06s9-.7,9-9C301.61,318.53,301.53,301,301.53,301Zm-4.31,15.93c0,6.27-5.56,6.81-5.56,6.81H283V296.91s8.75-.1,8.75-.17c5.85,0,5.52,6.76,5.52,6.76S297.28,316.83,297.23,316.89Z" transform="translate(-33.52 -24.96)"/><path class="cls-2" d="M141.41,353.85s.53-8.91-8.91-8.91c0,.08-14.12.22-14.12.22v35.31h14.06s9-.7,9-9C141.49,371.42,141.41,353.85,141.41,353.85Zm-4.31,15.93c0,6.27-5.56,6.81-5.56,6.81h-8.72V349.8s8.75-.1,8.75-.17c5.85,0,5.52,6.76,5.52,6.76S137.16,369.72,137.11,369.78Z" transform="translate(-33.52 -24.96)"/><polyline class="cls-2" points="168.01 351.63 169.04 351.63 177.68 320.1 181.62 320.1 171.76 355.62 168.01 355.62"/><polyline class="cls-2" points="168.25 351.63 167.22 351.63 158.58 320.1 154.64 320.1 164.5 355.62 168.25 355.62"/><rect class="cls-2" x="188.55" y="320.04" width="4.36" height="35.64"/><rect class="cls-2" x="262.6" y="320.04" width="4.36" height="35.64"/><path class="cls-2" d="M272.5,362.82v-8.48a4.16,4.16,0,0,1,4.45-4.45s11.5,0,11.5,0V345H276c-3.79,0-7.38.14-7.38,7.38,0,0,0,10.44,0,10.44" transform="translate(-33.52 -24.96)"/><path class="cls-2" d="M272.5,362.82v8.48a4.16,4.16,0,0,0,4.45,4.45s11.5,0,11.5,0v4.89H276c-3.79,0-7.38-.14-7.38-7.38,0,0,0-10.44,0-10.44" transform="translate(-33.52 -24.96)"/><path class="cls-2" d="M372.75,192.31h-.9l-26.72-49.65s0-1-2.64-1H323.87s-4.51-.62-4.51,4.51c-.17.17,0,109.76,0,109.76a2,2,0,0,0,1.94,1.94s10.23,0,10.23,0h11.91a2.53,2.53,0,0,0,2.7-2.7c0-.35-1-65.48,0-66.48s15.73,27.46,15.73,27.46,1,1.77,2.64,1.77c.16.16,8.24,0,8.24,0" transform="translate(-33.52 -24.96)"/><path class="cls-2" d="M372.75,192.31h.9l26.72-49.65s0-1,2.64-1h18.62s4.51-.62,4.51,4.51c.17.17,0,109.76,0,109.76a2,2,0,0,1-1.94,1.94s-10.23,0-10.23,0H402.05a2.53,2.53,0,0,1-2.7-2.7c0-.35,1-65.48,0-66.48s-15.73,27.46-15.73,27.46-1,1.77-2.64,1.77c-.16.16-8.24,0-8.24,0" transform="translate(-33.52 -24.96)"/></svg>
