<?xml version="1.0" encoding="utf-8"?>
<!-- Generator: Adobe Illustrator 21.0.0, SVG Export Plug-In . SVG Version: 6.00 Build 0)  -->
<svg version="1.1" id="Logo_IIM" xmlns="http://www.w3.org/2000/svg" xmlns:xlink="http://www.w3.org/1999/xlink" x="0px" y="0px"
	 viewBox="0 0 465 465" style="enable-background:new 0 0 465 465;" xml:space="preserve">
<style type="text/css">
	.st0{fill:#EF7F01;}
	.st1{fill:#FFFFFF;}
</style>
<title>Logo_IIM</title>
<g>
	<circle class="st0" cx="232.5" cy="232.5" r="227.9"/>
	<path class="st1" d="M217.7,120.3h21.4c1.9,0,3.5,1.6,3.5,3.5v14.9c0,1.9-1.6,3.5-3.5,3.5h-21.4c-1.9,0-3.5-1.6-3.5-3.5v-14.9
		C214.2,121.8,215.8,120.3,217.7,120.3z"/>
	<path class="st1" d="M217.7,152.3h21.4c1.9,0,3.5,1.6,3.5,3.5v85.3c0,1.9-1.6,3.5-3.5,3.5h-21.4c-1.9,0-3.5-1.6-3.5-3.5v-85.3
		C214.2,153.9,215.8,152.3,217.7,152.3z"/>
	<path class="st1" d="M260,152.3h21.5c1.9,0,3.5,1.6,3.5,3.5v85.3c0,1.9-1.6,3.5-3.5,3.5H260c-1.9,0-3.5-1.6-3.5-3.5v-85.3
		C256.5,153.9,258.1,152.3,260,152.3z"/>
	<path class="st1" d="M259.2,120.3h21.4c1.9,0,3.5,1.6,3.5,3.5v14.9c0,1.9-1.6,3.5-3.5,3.5h-21.4c-1.9,0-3.5-1.6-3.5-3.5v-14.9
		C255.7,121.8,257.2,120.3,259.2,120.3z"/>
	<path class="st1" d="M71.7,279.9h5.6v29c-0.2,1.5,0.9,2.8,2.3,2.9c0.2,0,0.4,0,0.6,0H92v4.7H77.4c0,0-5.5-0.7-5.5-5.5
		C71.9,310.7,71.7,279.9,71.7,279.9z"/>
	<path class="st1" d="M117.5,279.9v4.4h-12.7c-1.4-0.2-2.6,0.8-2.8,2.2c0,0.2,0,0.4,0,0.6c-0.1-0.1,0,8.3,0,8.3h15.5v3.7H102v10.8
		c0,0,0.2,2.8,2.8,2.8c0.1-0.1,12.7,0,12.7,0v3.8H102c0,0-5.4-0.6-5.4-5.4v-26.8c0,0,0.3-4.7,4.7-4.7
		C105.7,279.7,117.5,279.9,117.5,279.9z"/>
	<path class="st1" d="M145,334.6v4.4h-12.7c-1.4-0.2-2.6,0.8-2.8,2.2c0,0.2,0,0.4,0,0.6c-0.1-0.1,0,8.2,0,8.2H145v3.7h-15.5v10.7
		c0,0,0.2,2.8,2.8,2.8c0.1-0.1,12.7,0,12.7,0v3.8h-15.5c0,0-5.4-0.6-5.4-5.3V339c0,0,0.3-4.7,4.7-4.7
		C133.1,334.3,145,334.6,145,334.6z"/>
	<polygon class="st1" points="104.8,278.1 109,278.1 117.1,270 112.9,270 	"/>
	<polygon class="st1" points="159.3,316.4 163.2,316.4 163.2,288.4 164.5,288.4 178.4,316.4 184.1,316.4 184.1,279.7 179.8,279.7
		179.8,308.2 178.6,308.2 164.7,279.7 159.3,279.7 	"/>
	<polygon class="st1" points="212.9,371 216.7,371 216.7,343 218.1,343 232,371 237.7,371 237.7,334.3 233.3,334.3 233.3,362.8
		232.2,362.8 218.3,334.3 212.9,334.3 	"/>
	<polygon class="st1" points="206.9,279.1 204.5,279.1 204.5,283.6 205.3,283.6 209.8,300.9 204.5,300.9 204.5,304.5 210.4,304.5
		214.2,316.3 218.7,316.3 	"/>
	<polygon class="st1" points="199.7,300.9 204.3,283.6 204.5,283.6 204.5,279.1 202.1,279.1 190.2,316.3 194.7,316.3 198.6,304.5
		204.5,304.5 204.5,300.9 	"/>
	<path class="st1" d="M150.4,287.2c0,0-0.2-8.3-8.3-8.3c0.1-0.1-3,0-3.9,0l0,0c-0.9,0-3.9-0.1-3.9,0c-8.1,0-8.3,8.3-8.3,8.3
		s-0.1,21.6,0,21.7c0,6.9,7.4,7.4,7.4,7.4h9.5c0,0,7.4-0.6,7.4-7.4C150.5,308.8,150.4,287.2,150.4,287.2z M146.9,306.7
		c0,4.9-5.3,5.3-5.3,5.3h-6.8c0,0-5.3-0.4-5.3-5.3c-0.1-0.1,0-15.5,0-15.5s0.1-5.9,5.9-5.9c-0.1-0.1,2.2,0,2.8,0c0.6,0,2.8,0,2.8,0
		c5.8,0,5.9,5.9,5.9,5.9S147,306.6,146.9,306.7L146.9,306.7z"/>
	<path class="st1" d="M241.5,300.8c6.5,0,6.9-6.9,6.9-6.9s-0.1-6.4,0-6.4c0-5.7-7.4-7.4-7.4-7.4h-15.7v36.4l4.3-0.1v-15.5h5.9
		l9,15.4h5.5C249.9,316.3,241.5,300.8,241.5,300.8z M239.8,297.2h-10.1v-12.3h10.1c1.9-0.1,3.5,1.3,3.7,3.3c0,0.1,0,0.3,0,0.4
		c0,0,0,2,0,2.5s0,2.5,0,2.5c0.1,1.9-1.3,3.6-3.2,3.7C240.1,297.2,239.9,297.2,239.8,297.2z"/>
	<path class="st1" d="M280.7,288.9c0,0,0.5-9.2-9.2-9.2c0,0.1-14.5,0.2-14.5,0.2v36.4h14.5c0,0,9.2-0.7,9.2-9.2
		C280.8,307,280.7,288.9,280.7,288.9z M276.2,305.3c0,6.5-5.7,7-5.7,7h-9v-27.6c0,0,9-0.1,9-0.2c6,0,5.7,7,5.7,7
		S276.3,305.3,276.2,305.3z"/>
	<path class="st1" d="M115.8,343.4c0,0,0.5-9.2-9.2-9.2c0,0.1-14.5,0.2-14.5,0.2v36.4h14.5c0,0,9.2-0.7,9.2-9.2
		C115.9,361.5,115.8,343.4,115.8,343.4z M111.3,359.8c0,6.5-5.7,7-5.7,7h-9v-27.6c0,0,9-0.1,9-0.2c6,0,5.7,7,5.7,7
		S111.4,359.7,111.3,359.8L111.3,359.8z"/>
	<polyline class="st1" points="177.7,366.8 178.7,366.8 187.6,334.3 191.7,334.3 181.5,370.9 177.7,370.9 	"/>
	<polyline class="st1" points="177.9,366.8 176.9,366.8 168,334.3 163.9,334.3 174.1,370.9 177.9,370.9 	"/>
	<rect x="198.8" y="334.3" class="st1" width="4.5" height="36.7"/>
	<rect x="275.1" y="334.3" class="st1" width="4.5" height="36.7"/>
	<path class="st1" d="M250.8,352.6v-8.7c-0.2-2.4,1.6-4.4,4-4.6c0.2,0,0.4,0,0.6,0h11.8v-5h-12.8c-3.9,0-7.6,0.1-7.6,7.6v10.8"/>
	<path class="st1" d="M250.8,352.6v8.7c-0.2,2.4,1.6,4.4,4,4.6c0.2,0,0.4,0,0.6,0h11.8v5h-12.8c-3.9,0-7.6-0.1-7.6-7.6v-10.8"/>
	<path class="st1" d="M355.6,177h-1l-28.3-51.1c0,0,0-1.1-2.8-1.1h-19.7c0,0-4.8-0.6-4.8,4.6c-0.2,0.2,0,113,0,113
		c0.1,1.1,1,2,2.1,2h10.8h12.6c1.5,0.1,2.7-1,2.9-2.4c0-0.1,0-0.2,0-0.3c0-0.4-1.1-67.4,0-68.5s16.7,28.3,16.7,28.3s1.1,1.8,2.8,1.8
		c0.2,0.2,8.7,0,8.7,0"/>
	<path class="st1" d="M352.1,177h1l28.4-51.1c0,0,0-1.1,2.8-1.1h19.9c0,0,4.8-0.6,4.8,4.6c0.2,0.2,0,113,0,113c-0.1,1.1-1,2-2.1,2
		H396h-12.7c-1.5,0.1-2.8-1-2.9-2.4c0-0.1,0-0.2,0-0.3c0-0.4,1.1-67.4,0-68.5c-1.1-1-16.8,28.3-16.8,28.3c-0.6,1-1.6,1.7-2.8,1.8
		c-0.2,0.2-8.8,0-8.8,0"/>
</g>
</svg>
