<svg id="Logo_MARINE" xmlns="http://www.w3.org/2000/svg" viewBox="0 0 347.33 478.8"><defs><style>.cls-1{fill:navy;}.cls-2{fill:#d40000;}.cls-3{fill:gray;}.cls-4{font-size:47.11px;font-family:Marion-Regular, Marion;}.cls-5{letter-spacing:-0.05em;}.cls-6{letter-spacing:0em;}</style></defs><title>Logo_Marine_Nationale</title><path class="cls-1" d="M134.56,288s54.21-1.28,96.56,52.61c.32,1.28-4.17,13.79-12.19,16.68-.32.32,2.09-1.2-16-14,.14.14,4.95,6.18,3.71,8.65-1,.55-10.58,12.23-10.58,12.23s.15.39-3.48,0c-.06.12-12.09-10.22-12.66-10-.13.06-5.45,10.28-8.46,12-.19,0-.81.88-4.07,0-.25-.13-5.58-4.7-18.55-8.84-.13.06-3.07,10.28-6.89,9.71-.38,0-1.09,1.07-9.84-4-.18-.27-35.45-14.5-53.74-16.59.25-.12-4.54-2.21-1.47-13.39.12-.49,18.91-3.56,38.93,1.11.49.12,1.07.23,1-1-.05-.32.16-8.16,2.32-10.43A60.47,60.47,0,0,1,144,326.13c0,.32.79-.26.63-1.32-.05-.26-.84-8.43,2.05-11.64.16-.05,4.11-1.47,23.28,3.05.21.16,1-.21-.26-1.11,0,.11-16.86-11.26-36.11-16C133.67,299.65,133.26,290.28,134.56,288Z" transform="translate(-75.81 -17.56)"/><path class="cls-2" d="M423.15,336.95s-2,13.32-6.23,17.89c-.32.95-25.22-5.83-63.52,11.51,0,.95-3.94-2.21-5.67-8.83-.47-.32-18.44,7.72-18.44,7.72s-3.63,1.1-6.3-14.5c0-.32-11.51,3.94-17.81,9.77,0,.47-10.72-9.93-6-17.81,0,.47,9.8-8.92,9.8-8.92s.73-1.85-1.36,0-22.09,12.62-26.32,20c0,.19-9.49-6.6-9.83-15,.09-.35,2.57-13.68,48.11-38,1.23,0,37.08-18.7,53.15-16.86.1,0,.48,12.32.48,12.32s-8,3-9.14,3.27.77,7.6-1.06,11.93c.38.38-8.18,2.89-9.43,4.33-.19.38,2.89.67,3.08,2.89.19,0,.29,10.49.58,10.49s16-5.29,32-4.14c.58.29,1.92,7.7.87,9.82,0,.29.29.77,1.15.58C391.7,335.23,417.92,332,423.15,336.95Z" transform="translate(-75.81 -17.56)"/><path class="cls-3" d="M162.9,111.84l82.55-81.92,1.73,349.67s60.74-223.94,85.91-262.32c.41-.41-87.13-99.7-87.13-99.7Z" transform="translate(-75.81 -17.56)"/><text class="cls-4" transform="translate(81.19 420.26)">MARINE<tspan x="-40.21" y="44.4">N</tspan><tspan class="cls-5" x="-5.21" y="44.4">A</tspan><tspan class="cls-6" x="23.2" y="44.4">TIONALE</tspan></text></svg>
