<svg id="Logo_CESM" xmlns="http://www.w3.org/2000/svg" xmlns:xlink="http://www.w3.org/1999/xlink" viewBox="0 0 378.36 495.47"><defs><style>.cls-1,.cls-19{fill:#fff;}.cls-2{fill:#646464;}.cls-3{fill:#7c7c7c;}.cls-10,.cls-11,.cls-12,.cls-13,.cls-14,.cls-15,.cls-18,.cls-19,.cls-20,.cls-21,.cls-22,.cls-38,.cls-4,.cls-44,.cls-5,.cls-6,.cls-7,.cls-8,.cls-9{stroke:#000;}.cls-10,.cls-11,.cls-12,.cls-13,.cls-14,.cls-15,.cls-16,.cls-18,.cls-19,.cls-20,.cls-21,.cls-22,.cls-38,.cls-4,.cls-44,.cls-5,.cls-6,.cls-7,.cls-8,.cls-9{stroke-miterlimit:10;}.cls-10,.cls-11,.cls-12,.cls-13,.cls-14,.cls-4,.cls-5,.cls-6,.cls-7,.cls-8,.cls-9{stroke-width:3px;}.cls-4{fill:url(#Dégradé_sans_nom_30);}.cls-5{fill:url(#Dégradé_sans_nom_30-2);}.cls-6{fill:url(#Dégradé_sans_nom_30-3);}.cls-7{fill:url(#Dégradé_sans_nom_30-4);}.cls-8{fill:url(#Dégradé_sans_nom_30-5);}.cls-9{fill:#ddd;}.cls-10{fill:url(#Dégradé_sans_nom_30-6);}.cls-11{fill:url(#Dégradé_sans_nom_30-7);}.cls-12{fill:url(#Dégradé_sans_nom_30-8);}.cls-13{fill:url(#Dégradé_sans_nom_30-9);}.cls-14{fill:url(#Dégradé_sans_nom_30-10);}.cls-15,.cls-16{fill:#024284;}.cls-15{stroke-width:9px;}.cls-16{stroke:#fff;}.cls-17{fill:#030303;}.cls-18{fill:url(#Dégradé_sans_nom_13);}.cls-20{fill:url(#Dégradé_sans_nom_13-2);}.cls-21{fill:url(#Dégradé_sans_nom_13-3);}.cls-22{fill:url(#Dégradé_sans_nom_13-4);}.cls-23{fill:#13110f;}.cls-24{fill:url(#Dégradé_sans_nom_7);}.cls-25{fill:url(#Dégradé_sans_nom);}.cls-26{fill:url(#Dégradé_sans_nom_9);}.cls-27{fill:url(#Dégradé_sans_nom_10);}.cls-28{fill:url(#Dégradé_sans_nom_10-2);}.cls-29{fill:url(#Dégradé_sans_nom_7-2);}.cls-30{fill:url(#Dégradé_sans_nom_4);}.cls-31{fill:url(#Dégradé_sans_nom-2);}.cls-32{fill:url(#Dégradé_sans_nom-3);}.cls-33{fill:url(#Dégradé_sans_nom_11);}.cls-34{fill:url(#Dégradé_sans_nom_26);}.cls-35{fill:url(#Dégradé_sans_nom_14);}.cls-36{fill:url(#Dégradé_sans_nom_14-2);}.cls-37{fill:url(#Dégradé_sans_nom_26-2);}.cls-38{stroke-width:0.25px;fill:url(#Dégradé_sans_nom_20);}.cls-39{fill:url(#Dégradé_sans_nom_21);}.cls-40{fill:url(#Dégradé_sans_nom_23);}.cls-41{fill:url(#Dégradé_sans_nom_23-2);}.cls-42{fill:url(#Dégradé_sans_nom_23-3);}.cls-43{fill:url(#Dégradé_sans_nom_23-4);}.cls-44{fill:none;stroke-width:0.5px;}.cls-45{fill:url(#Dégradé_sans_nom_40);}.cls-46{fill:url(#Dégradé_sans_nom_38);}.cls-47{fill:url(#Dégradé_sans_nom_35);}.cls-48{fill:url(#Dégradé_sans_nom_33);}.cls-49{fill:#fffef9;}.cls-50{fill:#060000;}</style><linearGradient id="Dégradé_sans_nom_30" x1="133.21" y1="255.75" x2="133.21" y2="463.63" gradientUnits="userSpaceOnUse"><stop offset="0" stop-color="#fff"/><stop offset="0.12" stop-color="#fafafa"/><stop offset="0.28" stop-color="#ebeaea"/><stop offset="0.45" stop-color="#d2d1d1"/><stop offset="0.63" stop-color="#afadad"/><stop offset="0.82" stop-color="#828080"/><stop offset="1" stop-color="#524e4f"/><stop offset="1"/></linearGradient><linearGradient id="Dégradé_sans_nom_30-2" x1="107.29" y1="268.9" x2="107.29" y2="421.78" xlink:href="#Dégradé_sans_nom_30"/><linearGradient id="Dégradé_sans_nom_30-3" x1="56.36" y1="425.03" x2="56.36" y2="454.67" xlink:href="#Dégradé_sans_nom_30"/><linearGradient id="Dégradé_sans_nom_30-4" x1="13.33" y1="432.8" x2="13.33" y2="446.36" xlink:href="#Dégradé_sans_nom_30"/><linearGradient id="Dégradé_sans_nom_30-5" x1="114.65" y1="432.8" x2="114.65" y2="447.08" xlink:href="#Dégradé_sans_nom_30"/><linearGradient id="Dégradé_sans_nom_30-6" x1="379.97" y1="255.75" x2="379.97" y2="463.63" gradientTransform="matrix(-1, 0, 0, 1, 746.22, 0)" xlink:href="#Dégradé_sans_nom_30"/><linearGradient id="Dégradé_sans_nom_30-7" x1="354.05" y1="268.9" x2="354.05" y2="421.78" gradientTransform="matrix(-1, 0, 0, 1, 746.22, 0)" xlink:href="#Dégradé_sans_nom_30"/><linearGradient id="Dégradé_sans_nom_30-8" x1="363.66" y1="425.7" x2="363.66" y2="455.35" gradientTransform="matrix(-1, 0, 0, 1, 685.67, -0.68)" xlink:href="#Dégradé_sans_nom_30"/><linearGradient id="Dégradé_sans_nom_30-9" x1="320.64" y1="433.48" x2="320.64" y2="447.04" gradientTransform="matrix(-1, 0, 0, 1, 685.67, -0.68)" xlink:href="#Dégradé_sans_nom_30"/><linearGradient id="Dégradé_sans_nom_30-10" x1="421.96" y1="433.48" x2="421.96" y2="447.76" gradientTransform="matrix(-1, 0, 0, 1, 685.67, -0.68)" xlink:href="#Dégradé_sans_nom_30"/><linearGradient id="Dégradé_sans_nom_13" x1="371.64" y1="93.57" x2="371.64" y2="141.23" gradientUnits="userSpaceOnUse"><stop offset="0" stop-color="#fff"/><stop offset="0.24" stop-color="#d2d1d2"/><stop offset="0.76" stop-color="#777374"/><stop offset="1" stop-color="#524e4f"/><stop offset="1"/></linearGradient><linearGradient id="Dégradé_sans_nom_13-2" x1="384.09" y1="275.91" x2="339.75" y2="275.91" xlink:href="#Dégradé_sans_nom_13"/><linearGradient id="Dégradé_sans_nom_13-3" x1="340.58" y1="311.86" x2="294.15" y2="311.86" xlink:href="#Dégradé_sans_nom_13"/><linearGradient id="Dégradé_sans_nom_13-4" x1="277.12" y1="322.81" x2="345.46" y2="322.81" xlink:href="#Dégradé_sans_nom_13"/><linearGradient id="Dégradé_sans_nom_7" x1="366.14" y1="150" x2="388.73" y2="150" gradientUnits="userSpaceOnUse"><stop offset="0" stop-color="#fff"/><stop offset="0.11" stop-color="#f7f7f7"/><stop offset="0.28" stop-color="#e2e1e1"/><stop offset="0.5" stop-color="#bebdbd"/><stop offset="0.74" stop-color="#8e8b8c"/><stop offset="1" stop-color="#524e4f"/><stop offset="1"/></linearGradient><linearGradient id="Dégradé_sans_nom" x1="324.88" y1="222.05" x2="383.52" y2="222.05" gradientUnits="userSpaceOnUse"><stop offset="0" stop-color="#fff"/><stop offset="1"/></linearGradient><linearGradient id="Dégradé_sans_nom_9" x1="323.78" y1="261.12" x2="377.42" y2="261.12" gradientUnits="userSpaceOnUse"><stop offset="0" stop-color="#fff"/><stop offset="0.15" stop-color="#fbfbfb"/><stop offset="0.3" stop-color="#efefef"/><stop offset="0.45" stop-color="#dcdbdb"/><stop offset="0.6" stop-color="#c0bfbf"/><stop offset="0.75" stop-color="#9c9a9b"/><stop offset="0.9" stop-color="#716e6f"/><stop offset="1" stop-color="#524e4f"/><stop offset="1"/></linearGradient><linearGradient id="Dégradé_sans_nom_10" x1="299.46" y1="294.05" x2="362.84" y2="294.05" gradientUnits="userSpaceOnUse"><stop offset="0" stop-color="#fff"/><stop offset="0.17" stop-color="#fbfbfb"/><stop offset="0.32" stop-color="#f1f0f1"/><stop offset="0.46" stop-color="#dfdede"/><stop offset="0.6" stop-color="#c5c4c4"/><stop offset="0.74" stop-color="#a5a3a3"/><stop offset="0.88" stop-color="#7d7a7b"/><stop offset="1" stop-color="#524e4f"/><stop offset="1"/></linearGradient><linearGradient id="Dégradé_sans_nom_10-2" x1="267.67" y1="339.57" x2="342.9" y2="339.57" xlink:href="#Dégradé_sans_nom_10"/><linearGradient id="Dégradé_sans_nom_7-2" x1="353.46" y1="176.49" x2="353.46" y2="111.07" xlink:href="#Dégradé_sans_nom_7"/><linearGradient id="Dégradé_sans_nom_4" x1="326.1" y1="228.48" x2="326.1" y2="171.4" gradientUnits="userSpaceOnUse"><stop offset="0" stop-color="#fff"/><stop offset="1" stop-color="#524e4f"/><stop offset="1"/></linearGradient><linearGradient id="Dégradé_sans_nom-2" x1="270.16" y1="252.08" x2="317.02" y2="252.08" xlink:href="#Dégradé_sans_nom"/><linearGradient id="Dégradé_sans_nom-3" x1="272.63" y1="298.68" x2="272.63" y2="224" xlink:href="#Dégradé_sans_nom"/><linearGradient id="Dégradé_sans_nom_11" x1="197.81" y1="360.02" x2="158.7" y2="360.02" gradientUnits="userSpaceOnUse"><stop offset="0" stop-color="#fff"/><stop offset="0.2" stop-color="#fcfcfc"/><stop offset="0.35" stop-color="#f3f2f2"/><stop offset="0.49" stop-color="#e3e2e2"/><stop offset="0.62" stop-color="#cccbcc"/><stop offset="0.74" stop-color="#b0aeae"/><stop offset="0.85" stop-color="#8c898a"/><stop offset="0.96" stop-color="#635f60"/><stop offset="1" stop-color="#524e4f"/><stop offset="1"/></linearGradient><linearGradient id="Dégradé_sans_nom_26" x1="208.56" y1="302.94" x2="241.82" y2="256.15" gradientTransform="matrix(0.84, 0.64, 0.65, -0.86, -242, 382.08)" gradientUnits="userSpaceOnUse"><stop offset="0" stop-color="#fff"/><stop offset="0.02" stop-color="#fbfbfb"/><stop offset="0.28" stop-color="#bfbebe"/><stop offset="0.51" stop-color="#908e8e"/><stop offset="0.72" stop-color="#6e6b6c"/><stop offset="0.89" stop-color="#5a5657"/><stop offset="1" stop-color="#524e4f"/><stop offset="1"/></linearGradient><linearGradient id="Dégradé_sans_nom_14" x1="110.49" y1="251.07" x2="176.69" y2="251.07" gradientUnits="userSpaceOnUse"><stop offset="0" stop-color="#fff"/><stop offset="0.03" stop-color="#f2f2f2"/><stop offset="0.14" stop-color="#c8c6c7"/><stop offset="0.26" stop-color="#a3a1a2"/><stop offset="0.39" stop-color="#868384"/><stop offset="0.52" stop-color="#6f6c6c"/><stop offset="0.65" stop-color="#5f5b5c"/><stop offset="0.81" stop-color="#555152"/><stop offset="1" stop-color="#524e4f"/><stop offset="1"/></linearGradient><linearGradient id="Dégradé_sans_nom_14-2" x1="186.96" y1="249.7" x2="253.16" y2="249.7" gradientTransform="matrix(-0.3, 0.95, 0.95, 0.3, -81.09, 5.44)" xlink:href="#Dégradé_sans_nom_14"/><linearGradient id="Dégradé_sans_nom_26-2" x1="214.43" y1="307.79" x2="247.69" y2="261" gradientTransform="matrix(0.32, 0.98, -1.03, 0.33, 348.68, -34.01)" xlink:href="#Dégradé_sans_nom_26"/><linearGradient id="Dégradé_sans_nom_20" x1="106.8" y1="251.2" x2="41.05" y2="251.2" gradientUnits="userSpaceOnUse"><stop offset="0" stop-color="#fff"/><stop offset="0.07" stop-color="#eae9e9"/><stop offset="0.23" stop-color="#bcbabb"/><stop offset="0.39" stop-color="#969394"/><stop offset="0.55" stop-color="#787576"/><stop offset="0.71" stop-color="#635f60"/><stop offset="0.86" stop-color="#565253"/><stop offset="1" stop-color="#524e4f"/><stop offset="1"/></linearGradient><linearGradient id="Dégradé_sans_nom_21" x1="117.06" y1="256.68" x2="117.06" y2="185.17" gradientUnits="userSpaceOnUse"><stop offset="0" stop-color="#fff"/><stop offset="0.11" stop-color="#e3e2e2"/><stop offset="0.33" stop-color="#b0aeae"/><stop offset="0.54" stop-color="#878485"/><stop offset="0.72" stop-color="#6a6767"/><stop offset="0.89" stop-color="#585455"/><stop offset="1" stop-color="#524e4f"/><stop offset="1"/></linearGradient><linearGradient id="Dégradé_sans_nom_23" x1="107.59" y1="246.26" x2="41.68" y2="246.26" gradientUnits="userSpaceOnUse"><stop offset="0" stop-color="#fff"/><stop offset="0.32" stop-color="#fdfdfd"/><stop offset="0.47" stop-color="#f5f5f5"/><stop offset="0.58" stop-color="#e9e8e8"/><stop offset="0.68" stop-color="#d7d6d6"/><stop offset="0.77" stop-color="#bfbebe"/><stop offset="0.85" stop-color="#a2a0a1"/><stop offset="0.92" stop-color="#807d7e"/><stop offset="0.99" stop-color="#595556"/><stop offset="1" stop-color="#524e4f"/><stop offset="1"/></linearGradient><linearGradient id="Dégradé_sans_nom_23-2" x1="111.28" y1="258.33" x2="170.2" y2="224.31" xlink:href="#Dégradé_sans_nom_23"/><linearGradient id="Dégradé_sans_nom_23-3" x1="93.16" y1="248.21" x2="123.38" y2="195.87" xlink:href="#Dégradé_sans_nom_23"/><linearGradient id="Dégradé_sans_nom_23-4" x1="160.99" y1="303.21" x2="191.21" y2="250.86" gradientTransform="matrix(0.92, 0.61, 0.61, -0.83, -243.46, 410.45)" xlink:href="#Dégradé_sans_nom_23"/><linearGradient id="Dégradé_sans_nom_40" x1="62.97" y1="100.68" x2="62.97" y2="149.55" gradientUnits="userSpaceOnUse"><stop offset="0" stop-color="#fff"/><stop offset="0.15" stop-color="#d6d5d5"/><stop offset="0.36" stop-color="#a7a5a6"/><stop offset="0.55" stop-color="#827f80"/><stop offset="0.72" stop-color="#686465"/><stop offset="0.88" stop-color="#585455"/><stop offset="1" stop-color="#524e4f"/><stop offset="1"/></linearGradient><linearGradient id="Dégradé_sans_nom_38" x1="115.94" y1="99.82" x2="115.94" y2="147.93" xlink:href="#Dégradé_sans_nom_40"/><linearGradient id="Dégradé_sans_nom_35" x1="170.73" y1="101.5" x2="170.73" y2="149.61" xlink:href="#Dégradé_sans_nom_40"/><linearGradient id="Dégradé_sans_nom_33" x1="233.4" y1="101.33" x2="233.4" y2="149.13" xlink:href="#Dégradé_sans_nom_40"/></defs><title>Logo_CESM</title><path d="M237.41,84.9s-29-53.57,9.91-54.64c.25-.21,40.9,2.16,8.49,55.36,0,.62-7.75,0-7.75,0s28-48.08-.73-48.08c-.2-.16-26.35-1-1.88,47.36C245.45,85.46,237.41,84.9,237.41,84.9Z" transform="translate(-60.55 -0.68)"/><path class="cls-1" d="M87.57,271.73" transform="translate(-60.55 -0.68)"/><g id="HANSE_2"><path class="cls-2" d="M247.36,46C207.87,46,193,75.56,193,75.56h11.49s14.07-18.49,42.83-18.49" transform="translate(-60.55 -0.68)"/><path class="cls-2" d="M247.36,45.76c38.56,0,53,28.38,53,28.38H289.18s-13.74-17.77-41.81-17.77" transform="translate(-60.55 -0.68)"/><path d="M247.36,41.87c-45,0-60.26,32.55-60.26,32.55h7.59S210.88,47.5,247.36,47.5" transform="translate(-60.55 -0.68)"/><path d="M247.36,41.87c45,0,60.26,32.55,60.26,32.55H300S283.85,47.5,247.36,47.5" transform="translate(-60.55 -0.68)"/><path d="M247,56.1c-39.38,0-52.71,30.07-52.71,30.07h6.64A54.4,54.4,0,0,1,247,61.3" transform="translate(-60.55 -0.68)"/><path d="M247,56.1c39.38,0,52.71,30.07,52.71,30.07h-6.64A54.4,54.4,0,0,0,247,61.3" transform="translate(-60.55 -0.68)"/></g><g id="HANSE_1"><path d="M213.5,74.45S183.57,6.55,247,.68c.22,0,66,3.89,31,73.77-.21.68-5.53,0-5.53,0s30-59.11-25.45-66.13c-1.48-.2-53.44,1.67-24.35,66.43C223.08,74.72,213.5,74.45,213.5,74.45Z" transform="translate(-60.55 -0.68)"/><path d="M256.51,75.62c12.9-14.76,17-31.58,9.87-42.64a23.17,23.17,0,0,0-13.92-10c-9.25-2.12-19.68,2-24.27,9-3,4.55-2.7,9.08-2.27,14.41.45,5.63,2.28,15.81,10.52,27.35H245s-21.2-43.32,0-43.32c.46,0,32.2-3.41,4.8,44.23C249.37,74.91,256.51,75.62,256.51,75.62Z" transform="translate(-60.55 -0.68)"/><path class="cls-3" d="M222.09,75.56S190.16,14.05,247.51,7.44c.72-.72,55.9,5.72,25.58,68.13-1.82,1.74-16,0-16,0s27.8-48.1-9.24-51.86c-1.1.18-36.32.83-9.82,52.63C238.24,76.46,222.09,75.56,222.09,75.56Z" transform="translate(-60.55 -0.68)"/></g><g id="PIEDS"><path class="cls-4" d="M85.09,255.75s-55,84.52,4.87,157.91c-.35-.35-4.57,6-16.9,6-.16-.16,0,6.49,0,6.49h-9.9v29.7h9.58v7.79h88.62v-8h43L196,447.32H157.62V433.6h20.94s-14-7.22-13.31-7.62c2.91-1.73-3.74-6.34-3.74-6.34s-10.23.81-16.88-5.84c0,.49,5.92-8.55,7.46-13.77" transform="translate(-60.55 -0.68)"/><path class="cls-5" d="M86.07,268.9S46.45,355.81,97.74,411.08c.61-.61,3.14-.58,3.14-22.86V317.47L105,327.84v79.3s-7.26,14.64-14.64,14.64h52.74s-14.91-6.7-14.91-14.91V371.71Z" transform="translate(-60.55 -0.68)"/><rect class="cls-6" x="20.29" y="425.03" width="72.13" height="29.65"/><rect class="cls-7" x="10.17" y="432.8" width="6.33" height="13.56"/><polygon class="cls-8" points="95.49 432.8 95.49 447.08 133.81 447.08 119.53 432.8 95.49 432.8"/><path class="cls-9" d="M130.59,386.31l15.51,15.41-9,11.18s-6.09-3-6.46-8.45C130.4,404.44,130.59,386.31,130.59,386.31Z" transform="translate(-60.55 -0.68)"/><path class="cls-10" d="M414.37,255.75s55,84.52-4.87,157.91c.35-.35,4.57,6,16.9,6,.16-.16,0,6.49,0,6.49h9.9v29.7h-9.58v7.79H338.11v-8h-43l8.36-8.36h38.39V433.6H320.91s14-7.22,13.31-7.62c-2.91-1.73,3.74-6.34,3.74-6.34s10.23.81,16.88-5.84c0,.49-5.92-8.55-7.46-13.77" transform="translate(-60.55 -0.68)"/><path class="cls-11" d="M413.4,268.9S453,355.81,401.73,411.08c-.61-.61-3.14-.58-3.14-22.86V317.47l-4.15,10.37v79.3s7.26,14.64,14.64,14.64H356.35s14.91-6.7,14.91-14.91V371.71Z" transform="translate(-60.55 -0.68)"/><rect class="cls-12" x="285.95" y="425.03" width="72.13" height="29.65"/><rect class="cls-13" x="361.87" y="432.8" width="6.33" height="13.56"/><polygon class="cls-14" points="282.87 432.8 282.87 447.08 244.55 447.08 258.83 432.8 282.87 432.8"/><path class="cls-9" d="M368.88,386.31l-15.51,15.41,9,11.18s6.09-3,6.46-8.45C369.07,404.44,368.88,386.31,368.88,386.31Z" transform="translate(-60.55 -0.68)"/></g><g id="ECUSSON"><path class="cls-15" d="M249.5,490.65s171.15-93.65,171.15-276V78H249.5" transform="translate(-60.55 -0.68)"/><path class="cls-15" d="M249.5,490.65S78.35,397,78.35,214.69V78H249.5" transform="translate(-60.55 -0.68)"/><polygon points="179.02 489.29 188.75 495.47 197.73 489.77 179.02 489.29"/><path class="cls-16" d="M248.93,471.58s157.38-86.52,157.38-254.93V90.33H248.93" transform="translate(-60.55 -0.68)"/><path class="cls-16" d="M248.93,471.58S91.55,385.06,91.55,216.64V90.33H248.93" transform="translate(-60.55 -0.68)"/></g><g id="BLANC_FEUILLE" data-name="BLANC FEUILLE"><path class="cls-1" d="M154.84,361.1s9.11-21.1,46.31-3.41c.14.27,46.77-10.89,53.8-34.3-.09-.43,1.13-43.6-6.67-47.48-.27-.38-14.52-27.53,17.21-69.2.07.64,5.43,6.26,5.35,19-.44.18,16-13.12,17.77-13.06.66,0,3.88,11.55,1.57,23.34,0,.14,9.26-37.22,16-46.48.5-.17,1.74,5,6.69,6.5,0-.3,13.72-31.7,18.76-36.83.17-.66,7.52,24.3,8,31.57.08.33,5.38-28.1,2.32-44.57.12-.59-.59-29.36,12.59-44.8,0-.62,16.37,13.85,8.66,44.21.4.35-5.72,24-16.89,44.59-.12-.12-8.12,17.88-9.53,23.65-.12-.82,14.82-10.82,25.3-35.65.83-.1,17.41-64.24,29.06-73.42.12-.59,7.12,23.5,1.78,45.75.42,0-6.6,24.41-26.83,42.06.6.82-29.66,24-34.3,40.89,0,.42,21.15-12.29,29.51-22.77-.14.14,19.81-22.62,24.87-24,1.06.29,6.54,24.22-14.44,41.83-.51-.4-47.63,32-50.74,33.47,0,0-5.83,9.68-5.12,10.37s11-6.93,18-9.31c.54-.91,14-8.51,21.64-9.91,0,0,22-9.33,25.65-14.34.23-.31,6.72,14.79-16.56,29.81-.08-.23-19.18,9.47-41.67,13.63-.23.46.46,1.54.46,1.54s33.66-6.16,47.83,21.18a9.8,9.8,0,0,1-.57,2s-10.06-6.61-46.18-7c.08-.13-35.74,1.41-53.22,16.28.15.54-10.17,10.55-7.63,15.64.08.39,4.24,3.23,17.33.23-.15.08,16.94-4.54,32.2-2.39-.31-.08,23.41-.39,27,1.16-.08-.31,10.63.69,12.48-1.77.54.11.72.19-2.11,5.48-.49.27-12.62,15.57-38.53,16.16-.24,0-27.08.94-45.65-9.28.06.12-12,.06-12,.06a86.45,86.45,0,0,0-28.14,13.16c-.41,0-15.57,6.64-24.68,7.17-.12,0-1.76,10.07-10.11,10,.12-.12-6.58-.41-6.58-.41s-15.1-5.35-29-4C155.76,367.5,152.78,365.26,154.84,361.1Z" transform="translate(-60.55 -0.68)"/></g><g id="FEUILLE"><path class="cls-17" d="M354.48,287.53l-.68,1.69s11.57,5.14,14.55,12.22a11.83,11.83,0,0,0,1.77-.88S361.67,289,354.48,287.53Z" transform="translate(-60.55 -0.68)"/><path class="cls-18" d="M368.7,141.23s5.76-21.27,2.56-29.75c-.4-.24-8-3.36-8-9.84.24,0-.72-8.07,8.07-8.07.32,0,8.68-.4,8.68,8.68a10.71,10.71,0,0,1-2.84,6C376.93,108,379.17,125.4,368.7,141.23Z" transform="translate(-60.55 -0.68)"/><path class="cls-19" d="M287.53,292.33s10.37-15.86,12-30.77c.17-.52-5.14-1.13-5.14-9.15.09.09-.44-7.93,7.93-7.93.22-.22,8.93.52,8.93,8.93.39,0-.09,4.45-2.83,7.19C308.27,260.6,299.38,286.57,287.53,292.33Z" transform="translate(-60.55 -0.68)"/><path class="cls-20" d="M339.75,281.64s17.17.44,27.83-6.25c-.18-.09-.44-8.37,7.84-8.37.44,0,8.67.26,8.67,8.67-.13.13-.31,8.67-8.67,8.67-.53,0-3.51,0-5.3-1.76C370.31,282.61,359,288.15,339.75,281.64Z" transform="translate(-60.55 -0.68)"/><path class="cls-21" d="M294.15,308.54s15.24,5.11,30.14,1.93c.25,0,.25-7,7.7-7,.13-.13,8.56-.55,8.56,8.56.13-.13-.21,8.32-8.32,8.32-.24,0-7.43.52-7.43-4C324.68,316.19,298.88,315.8,294.15,308.54Z" transform="translate(-60.55 -0.68)"/><path class="cls-22" d="M277.12,326.43s15-17.75,55.57-2.88c.19,0,10.22-2,12.73-2.23a20.94,20.94,0,0,1,0,2.42s-7.62,7.16-30.48.84c0-.09-20.81-1.6-36.33,3.44C278.61,328.1,277.12,326.43,277.12,326.43Z" transform="translate(-60.55 -0.68)"/><path class="cls-23" d="M325.77,265.21l1.57,1.57s18.52-11.22,29.22-14c-.07-.13,15.52-3.46,24.65-13.5,0-.13,4.3,13.5-13.44,26.29-.13.26-17.28,9.33-27.46,11.87a4.94,4.94,0,0,0,.39,1s23.8-6.93,28-12.06c.15,0,19.18-10.89,13.37-29.75-.17-.17-12.41,11.47-26,14.7C355.79,251.5,333.64,259.37,325.77,265.21Z" transform="translate(-60.55 -0.68)"/><path class="cls-17" d="M313.59,328.41v2.08s-24-.33-39.85,3.92c0-.17-9.92,1.33-11.17-2.17-.08-.25,0-3.84,0-3.84s3.5-16.84,23.76-22.18c.42,0,1,2.33,1,2.33S273.16,312.4,264.66,328c-.17.17-2.33,4.59,2.5,4.42.08,0,9.42.5,14.51-1.75A119,119,0,0,1,313.59,328.41Z" transform="translate(-60.55 -0.68)"/><path class="cls-17" d="M286.33,306.23s45.08-17.5,83-.52c0,.24,2.95-.07-1-4.28,0,0-3.52-8.5-14.55-12.22,0,0-7.43-6.67-36.43-4.42a6,6,0,0,1-.9-1.69s18.67-4,23.85-5.64l.39,1L323.4,283s19-1.81,31.08,4.54c0,0,12.24,5.34,15.63,13,0,0,2.56,3.85,1.36,6.6.36.24-41.53-14-84.14,1.42Z" transform="translate(-60.55 -0.68)"/><path class="cls-17" d="M321.05,262s-5.24,7.14-5.14,10.88c.1.29,3,1.08,11.43-6l-1.57-1.57s-7.18,6.37-7.66,6c.19-.19,1.09-5.31,5.29-7.59Z" transform="translate(-60.55 -0.68)"/><path class="cls-17" d="M332.49,347.07s-5.7,4.84-32.72,4.09c-.3.15-21.91-2-33.17-8.88-.45-.3-12.56,0-12.56,0s-4.26-.2-28.05,13c0-.12-10.84,5.55-23.91,6.85-.59.12-.59,9.34-6.48,10.16.59-.12-10.46.59-13.53-.95,0,.12-4.53-3-26.72-3.31,0-.12-5.14-3.43,0-9.22.9-.47,8.68-17.73,45.79-2.48.24.12,37.34-7.09,51.6-31-.35-.59,5.83-22-5.92-48.58,0-.24-14.58-46,19.12-71.86-.24,0,4.95,3.43,5.07,18.67.35.24,12.49-11.7,17.2-12.88.24-.24,5.07.71,3.3,16.43-.24-.35,7-29.6,15.61-40.74.29.56.88,6.59,4.65,7.89-.12,0,6.7-19.15,10.24-21.27.36-.35,9.43-13.47,9.08-16.55.12-.59,7.66,11.23,8,29.67-.12-.24,2.83-2.84,2.24-26.12,0-.24-3.18-20.59.59-33.28a91,91,0,0,1,12.61-27.24c.35,0,12.25,10.73,12,33.44,0-.1-2.47,25.9-13,44.46.12-.12-11.66,24.35-14.73,33.09,0,0,18.14-18.44,23.56-36,.24-.47,16.49-61.29,29.22-71.77.35-.56,6.24,15.07,2.71,47.08a88,88,0,0,1-28,44c0-.24-18.14,16.43-33.22,37.7.12.24,17.32-8.75,31.22-25.53.24,0,4.83-6.38,22.26-20.68.12-.12,9.31,18.56-9,39.12-.47.35-10.25,11.94-30.63,22-.47.12-19.32,10.64-23.56,17.26a21.92,21.92,0,0,1-2.36-1.65s19.19-16.93,28.51-19.62c.47-.12,27.21-15.48,28.74-22.1.59-.59,9.39-9.46,8.29-32-.28.35-17,12.76-21.72,20.33-.35,0-20.5,23.87-35.46,26.83-.24.12,9.54-22.93,34.75-42.55.59-.24,26.51-27.32,27.57-42.67-.24-.58,4.36-18.31-.35-43.6-.12-.35-10.13,14.82-19.08,42.22-.24.21-8.6,32.6-15.9,43.11-.12,0-8.72,16.55-21.32,25.41-.24,0,3.44-17.78,10.6-28,.35-.71,14.61-32.43,15.43-37.2,0-.27,8.48-33.43-6-49.35-.12-.08-13.49,12.31-12,50.28.12.1,3.53,32.25-4.12,40.17.12-.24-5.34-32-7.3-32.27,0,.12-15.69,24.47-17.56,35.69,0-.47-2.58,2.36-7.53-5.44.24,0-13.78,27.66-15.43,45.74a11,11,0,0,1-2,0s2.45-17-.61-23.28c-.47.71-7.07,3.31-18.14,13.59.35,0-1.06-14.06-4.83-19.86-.24.12-19.2,18.34-19.67,45.87.12-.25-2.12,16.72,5.07,25.26.24-.09,5.18,14,5.18,22.36.35.35.71,20.8-1.88,26.83,0-.12-9.44,21-53,30.73-.35-.24-16.14-8.63-37.58-5.08.12.12-4.71,2-7.3,6.26,0,.59-3.31,5.57-.12,7.09.59-.12,16.76-.06,25.81,2.84.22-.12,8.46,3.12,13.42.83a12.5,12.5,0,0,0,5.3-8.8c0-.65,18.38-2.78,26.62-8.33.24-.12,17.2-10.76,26.27-12.29,0-.24,12.37,0,12.37,0S286.93,349,299.86,350c.27,0,27.39.59,31.77-3.56C331.78,346.45,332.49,347.07,332.49,347.07Z" transform="translate(-60.55 -0.68)"/><path class="cls-17" d="M331.62,346.45a41.89,41.89,0,0,0,21.47-17c-.19-.09-1.69,2.72-14.42,2.06-.28.09-16.82-2.23-25.08-1.07v-2.08s23.12.25,26.39,1.75c-.19-.37,11.8,1,13.11-2.53.09-.47,2.89,11.46-20.61,19.45Z" transform="translate(-60.55 -0.68)"/><path class="cls-24" d="M366.14,182.65s12.52-56.32,22.14-65.29C388.29,117.18,393.76,161,366.14,182.65Z" transform="translate(-60.55 -0.68)"/><path class="cls-25" d="M324.88,248.11s47.71-40.57,58.31-52.13C383.33,196.12,390.9,221.16,324.88,248.11Z" transform="translate(-60.55 -0.68)"/><path class="cls-26" d="M323.78,275.91s41.26-1.12,53.64-29.59C377.56,246.19,326.95,272.49,323.78,275.91Z" transform="translate(-60.55 -0.68)"/><path class="cls-27" d="M299.46,297.21s35.32-22.14,63.38,2.75C362.7,300.1,341.57,292,299.46,297.21Z" transform="translate(-60.55 -0.68)"/><path class="cls-28" d="M267.67,337.92s53.64-9.08,75.23-1.65C342.9,336.41,315.94,356.49,267.67,337.92Z" transform="translate(-60.55 -0.68)"/><path class="cls-29" d="M348.29,176.49s20-46.88,7.59-65.41C355.88,110.34,342.9,136.07,348.29,176.49Z" transform="translate(-60.55 -0.68)"/><path class="cls-30" d="M318.94,196s10.69-24.34,11.69-24.59c.12-.12,8.31,22.26-4.86,57.08C325.66,228.6,322.58,199.9,318.94,196Z" transform="translate(-60.55 -0.68)"/><path class="cls-31" d="M270.16,303.39s23.8-39.69,23-57.07c-.18-.17,9.49-41.38,15.19-45.55.18-.18,13.38,15,6.79,55.25C315.18,256.16,304.28,302.56,270.16,303.39Z" transform="translate(-60.55 -0.68)"/><path class="cls-32" d="M262.53,298.68S250.32,252,284.63,224C284.81,224,288,267.59,262.53,298.68Z" transform="translate(-60.55 -0.68)"/><path class="cls-1" d="M254.61,273s5.48-34,7.92-37c-.42.17,3.73-14.87,1.19-19.3C263.37,216,242.64,239.83,254.61,273Z" transform="translate(-60.55 -0.68)"/><path class="cls-33" d="M197.79,360.45s1.53,9.5-18.67,3.49c-.44-.44-14-2.4-20.42-1.31.11-.55-.19-8.63,19.56-8.52C178.35,354,194.62,356.85,197.79,360.45Z" transform="translate(-60.55 -0.68)"/></g><g id="Calque_17" data-name="Calque 17"><polygon class="cls-34" points="107.59 256.05 152.01 317.84 137.22 267.15 108.21 255.34 107.59 256.05"/></g><g id="dégradé_etoile" data-name="dégradé etoile"><polygon class="cls-35" points="110.49 257.28 176.69 235.33 136.77 266.81 110.49 258.17 110.49 257.28"/><polygon class="cls-36" points="107.64 260.04 67 316.72 108.93 287.96 108.49 260.3 107.64 260.04"/><polygon class="cls-37" points="108.45 256.36 151.44 316.96 108.83 287.24 107.59 256.71 108.45 256.36"/><polygon class="cls-38" points="106.8 256.96 41.05 235.33 80.97 267.07 106.8 258.51 106.8 256.96"/><polygon class="cls-39" points="108.61 256.23 108.61 185.17 125.51 235.33 110.06 256.68 108.61 256.23"/><polygon class="cls-40" points="107.59 256.2 92.49 235.33 41.68 235.29 107.59 257.22 107.59 256.2"/><polygon class="cls-41" points="110.64 256.2 125.74 235.33 176.55 235.29 110.64 257.22 110.64 256.2"/><polygon class="cls-42" points="107.27 256.36 92.29 235.41 108.41 187.22 108.24 256.68 107.27 256.36"/><polygon class="cls-43" points="107.81 258.65 81.24 266.91 66.47 316.77 108.89 258.97 107.81 258.65"/></g><g id="ETOILE"><polygon class="cls-44" points="41.05 235.33 92.49 235.33 108.61 185.17 125.51 235.33 176.69 235.33 136.77 266.81 152.12 317.74 108.87 287.54 65.88 317.74 80.97 267.07 41.05 235.33"/><line class="cls-44" x1="41.05" y1="235.33" x2="136.77" y2="266.81"/><line class="cls-44" x1="125.51" y1="235.33" x2="65.87" y2="317.74"/><line class="cls-44" x1="92.49" y1="235.33" x2="152.12" y2="317.74"/><line class="cls-44" x1="80.97" y1="267.07" x2="176.69" y2="235.33"/><line class="cls-44" x1="108.62" y1="185.17" x2="108.62" y2="287.54"/><circle class="cls-17" cx="108.62" cy="258.22" r="2.87"/></g><g id="CESM"><polygon class="cls-45" points="83.68 100.68 42.26 100.68 42.26 149.55 83.68 149.55 83.68 140.96 49.14 140.96 49.14 108.92 83.68 108.92 83.68 100.68"/><polygon class="cls-46" points="136.3 99.82 136.3 108.08 103.5 108.08 103.5 119.89 128.28 119.89 128.28 127.05 103.5 127.05 103.5 140.09 135.73 140.09 135.73 147.93 95.58 147.93 95.58 100.13 136.3 99.82"/><polygon class="cls-47" points="149.73 101.5 191.72 101.5 191.72 109.76 157.32 109.76 157.32 121.58 191.72 121.58 191.72 149.61 150.71 149.61 150.71 142.81 183.71 142.81 183.71 129.59 149.73 129.59 149.73 101.5"/><polygon class="cls-48" points="205.9 148.42 212.94 148.42 212.94 117.52 231.5 148.42 234.88 148.42 253.03 117.52 253.03 149.13 260.9 149.13 260.9 101.33 251.38 101.33 233.79 132.86 232.04 132.86 214.66 101.33 205.9 101.33 205.9 148.42"/></g><g id="M"><rect class="cls-49" x="272.17" y="121.38" width="5.24" height="2.65" transform="translate(272.1 -173.3) rotate(77.02)"/><rect class="cls-49" x="309.72" y="120.49" width="5.24" height="2.28" transform="translate(482.03 -122.66) rotate(112.11)"/><rect class="cls-49" x="236.36" y="124.1" width="54.62" height="3.01" transform="translate(328.72 -138.75) rotate(90)"/><rect class="cls-49" x="295.54" y="123.39" width="56.98" height="4.57" transform="translate(389.16 -199.04) rotate(90)"/><rect class="cls-49" x="200.97" y="97.05" width="16.71" height="3.63"/><rect class="cls-49" x="248.78" y="97.05" width="16.71" height="3.63"/><rect class="cls-49" x="200.18" y="149.1" width="17.23" height="4.17"/><rect class="cls-49" x="261.38" y="136.08" width="29.18" height="4" transform="translate(353.5 -138.56) rotate(90)"/><rect class="cls-49" x="265.59" y="135.87" width="33.19" height="4.32" transform="translate(206.22 -176.41) rotate(61.12)"/><rect class="cls-49" x="266.47" y="113.6" width="37.51" height="4.32" transform="translate(188.29 -190.58) rotate(61.12)"/><rect class="cls-49" x="283.09" y="113.75" width="37.87" height="4.32" transform="translate(488.84 -93.25) rotate(118.88)"/><rect class="cls-49" x="287.08" y="136.74" width="33.19" height="4.96" transform="translate(511.69 -60.13) rotate(118.88)"/><rect class="cls-49" x="249.01" y="149.1" width="16.23" height="4.17"/><rect class="cls-49" x="296.85" y="135.08" width="29.69" height="5.4" transform="translate(388.92 -174.6) rotate(90)"/><rect class="cls-49" x="227.62" y="149.81" width="11.19" height="2.42"/><rect class="cls-50" x="201.62" y="95.47" width="16.06" height="2.09"/><rect class="cls-50" x="248.67" y="95.47" width="16.58" height="2.09"/><rect class="cls-50" x="204.63" y="99.93" width="10.58" height="2.09"/><rect class="cls-50" x="265.18" y="116.31" width="37.15" height="2.09" transform="translate(188.93 -188.47) rotate(61.12)"/><rect class="cls-50" x="268.72" y="110.33" width="33.62" height="2.09" transform="translate(184.6 -193.12) rotate(61.12)"/><rect class="cls-50" x="285.17" y="110.32" width="33.61" height="2.09" transform="translate(484.77 -99.96) rotate(118.88)"/><rect class="cls-50" x="284.39" y="116.33" width="37.13" height="2.09" transform="translate(491.5 -91.92) rotate(118.88)"/><rect class="cls-50" x="291.93" y="143.71" width="22.11" height="2.09" transform="translate(515.51 -51.32) rotate(118.88)"/><rect class="cls-50" x="205.09" y="147.02" width="8.66" height="2.09"/><rect class="cls-50" x="252.8" y="147.73" width="8.66" height="2.09"/><rect class="cls-50" x="227.62" y="152.23" width="10.38" height="2.09"/><rect class="cls-50" x="230.49" y="147.73" width="4.9" height="2.09"/><rect class="cls-50" x="299.22" y="142.77" width="18.5" height="2.09" transform="translate(391.73 -165.33) rotate(90)"/><rect class="cls-50" x="272.7" y="143.71" width="22.11" height="2.09" transform="translate(212.92 -174.3) rotate(61.12)"/><rect class="cls-50" x="263.43" y="132.14" width="38.44" height="2.09" transform="translate(202.21 -179.32) rotate(61.12)"/><rect class="cls-50" x="285.32" y="132.48" width="37.59" height="2.09" transform="translate(507.35 -68.98) rotate(118.88)"/><rect class="cls-50" x="269.02" y="142.78" width="18.5" height="2.09" transform="translate(361.53 -135.12) rotate(90)"/><rect class="cls-50" x="250.45" y="99.93" width="10.22" height="2.09"/><rect class="cls-50" x="200.18" y="152.23" width="18.63" height="2.09"/><rect class="cls-50" x="246.87" y="152.23" width="18.37" height="2.09"/><rect class="cls-50" x="231.7" y="124.53" width="58.85" height="2.09" transform="translate(326.15 -136.24) rotate(90)"/><rect class="cls-50" x="296.89" y="124.53" width="58.85" height="2.09" transform="translate(391.34 -201.43) rotate(90)"/><rect class="cls-50" x="242.68" y="125.19" width="47.09" height="2.09" transform="translate(331.91 -140.66) rotate(90)"/><rect class="cls-50" x="296.28" y="124.51" width="49.88" height="2.09" transform="translate(386.22 -196.35) rotate(90)"/><rect class="cls-50" x="296.39" y="132.48" width="33.93" height="2.09" transform="translate(386.33 -180.51) rotate(90)"/><rect class="cls-50" x="256.29" y="131.77" width="33.93" height="2.09" transform="translate(345.52 -141.13) rotate(90)"/><rect class="cls-50" x="232.18" y="124.54" width="2.03" height="1.38"/><rect class="cls-50" x="231.27" y="132.07" width="3.1" height="1.38"/></g><g id="S"><rect class="cls-49" x="237.69" y="133.99" width="32.28" height="3.01" transform="translate(328.77 -119.02) rotate(90)"/><rect class="cls-49" x="247.7" y="103.89" width="12.27" height="3.01" transform="translate(298.67 -149.11) rotate(90)"/><rect class="cls-49" x="145.54" y="97.61" width="49.24" height="2.09"/><rect class="cls-49" x="145.97" y="128.93" width="36.95" height="4.17"/><rect class="cls-49" x="156.77" y="117.68" width="38.01" height="2.63"/><rect class="cls-49" x="156.77" y="108.77" width="38.01" height="3.28"/><rect class="cls-49" x="145.54" y="136.79" width="37.39" height="4.17"/><rect class="cls-49" x="145.54" y="148.77" width="49.24" height="4.17"/><rect class="cls-49" x="200.62" y="144.2" width="15.23" height="3.42" transform="translate(293.59 -63) rotate(90)"/><rect class="cls-49" x="234.91" y="134.61" width="11.62" height="4.46" transform="translate(317.01 -104.56) rotate(90)"/><rect class="cls-49" x="213.32" y="114.11" width="11.62" height="3.62" transform="translate(274.5 -103.89) rotate(90)"/><rect class="cls-49" x="189.57" y="115.24" width="35.99" height="2.09" transform="translate(263.3 -91.96) rotate(90)"/><rect class="cls-50" x="143.89" y="95.47" width="50.9" height="2.09"/><rect class="cls-50" x="147.91" y="99.64" width="43.87" height="2.09"/><rect class="cls-50" x="155.72" y="119.69" width="34.17" height="2.09"/><rect class="cls-50" x="160.39" y="115.63" width="34.39" height="2.09"/><rect class="cls-50" x="162.48" y="112.04" width="32.31" height="2.09"/><rect class="cls-50" x="155.72" y="107.72" width="36.05" height="2.09"/><rect class="cls-50" x="143.89" y="132.93" width="33.01" height="2.09"/><rect class="cls-50" x="143.89" y="135.83" width="33.01" height="2.09"/><rect class="cls-50" x="148.89" y="147.73" width="41.01" height="2.09"/><rect class="cls-50" x="148.89" y="140.65" width="33" height="2.09"/><rect class="cls-50" x="147.91" y="127.7" width="33.98" height="2.09"/><rect class="cls-50" x="145.97" y="152.23" width="48.81" height="2.09"/><rect class="cls-50" x="187.79" y="114.88" width="35.38" height="2.09" transform="translate(260.85 -90.24) rotate(90)"/><rect class="cls-50" x="197.28" y="145.75" width="16.4" height="2.09" transform="translate(291.73 -59.36) rotate(90)"/><rect class="cls-50" x="235.99" y="135.06" width="4.99" height="2.09" transform="translate(314.04 -103.06) rotate(90)"/><rect class="cls-50" x="207.98" y="144.87" width="4.99" height="2.09" transform="translate(295.84 -65.25) rotate(90)"/><rect class="cls-50" x="235.96" y="134.85" width="15.03" height="2.09" transform="translate(318.82 -108.26) rotate(90)"/><rect class="cls-50" x="248.28" y="104.36" width="6" height="2.09" transform="translate(296.13 -146.56) rotate(90)"/><rect class="cls-50" x="247.04" y="104.43" width="18.66" height="2.09" transform="translate(301.3 -151.58) rotate(90)"/><rect class="cls-50" x="237.03" y="134.61" width="38.69" height="2.09" transform="translate(331.48 -121.4) rotate(90)"/><rect class="cls-50" x="212.38" y="114.38" width="9.88" height="2.09" transform="translate(272.2 -102.57) rotate(90)"/><rect class="cls-50" x="219.81" y="113.85" width="4.34" height="2.09" transform="translate(276.33 -107.77) rotate(90)"/><rect class="cls-50" x="196.49" y="114.37" width="26.03" height="2.09" transform="translate(264.37 -94.76) rotate(90)"/><rect class="cls-50" x="236.42" y="134.4" width="30.14" height="2.09" transform="translate(326.38 -116.73) rotate(90)"/></g><g id="E"><rect class="cls-50" x="97.03" y="147.73" width="40.72" height="2.09"/><rect class="cls-50" x="102.87" y="139.88" width="32.79" height="2.09"/><rect class="cls-50" x="107.04" y="135.74" width="32.79" height="2.09"/><rect class="cls-50" x="102.87" y="126.84" width="26.87" height="2.09"/><rect class="cls-50" x="107.04" y="131.01" width="26.87" height="2.09"/><rect class="cls-50" x="104.96" y="119.76" width="24.78" height="2.09"/><rect class="cls-50" x="107.04" y="115.59" width="26.87" height="2.09"/><rect class="cls-50" x="109.13" y="112.04" width="30.71" height="2.09"/><rect class="cls-49" x="104.96" y="109.96" width="33.5" height="2.09"/><rect class="cls-49" x="104.96" y="117.68" width="24.78" height="2.09"/><rect class="cls-49" x="104.96" y="128.93" width="24.78" height="2.09"/><rect class="cls-49" x="162.48" y="134.16" width="8.15" height="2.09" transform="translate(241.2 -32.03) rotate(90)"/><rect class="cls-49" x="163.29" y="114.36" width="6.52" height="2.09" transform="translate(221.4 -51.83) rotate(90)"/><rect class="cls-49" x="184.66" y="123.98" width="13.34" height="2.09" transform="translate(255.8 -66.99) rotate(90)"/><rect class="cls-49" x="104.96" y="137.92" width="33.5" height="1.96"/><rect class="cls-49" x="94.53" y="97.55" width="43.93" height="2.09"/><rect class="cls-49" x="92.86" y="149.81" width="45.6" height="2.09"/><rect class="cls-49" x="192.36" y="144.54" width="13.98" height="2.09" transform="translate(284.38 -54.44) rotate(90)"/><rect class="cls-49" x="192.1" y="104.43" width="14.49" height="2.09" transform="translate(244.27 -94.55) rotate(90)"/><rect class="cls-49" x="128.13" y="123.51" width="52.65" height="2.09" transform="translate(218.46 -30.57) rotate(90)"/><rect class="cls-50" x="102.87" y="107.87" width="32.79" height="2.09"/><rect class="cls-50" x="92.86" y="95.47" width="46.98" height="2.09"/><rect class="cls-50" x="92.81" y="151.9" width="47.21" height="2.42"/><rect class="cls-50" x="94.94" y="99.64" width="42.81" height="2.09"/><rect class="cls-50" x="132.49" y="125.4" width="48.09" height="2.09" transform="translate(222.43 -30.77) rotate(90)"/><rect class="cls-50" x="122.94" y="124.53" width="58.85" height="2.09" transform="translate(217.38 -27.47) rotate(90)"/><rect class="cls-50" x="193.14" y="105.48" width="8.23" height="2.09" transform="translate(243.23 -91.42) rotate(90)"/><rect class="cls-50" x="193.34" y="143.44" width="7.84" height="2.09" transform="translate(281.19 -53.46) rotate(90)"/><rect class="cls-50" x="192.15" y="144.67" width="18.57" height="2.09" transform="translate(286.59 -56.4) rotate(90)"/><rect class="cls-50" x="158.99" y="134.04" width="10.96" height="2.09" transform="translate(239 -30.06) rotate(90)"/><rect class="cls-50" x="158.52" y="115.54" width="11.89" height="2.09" transform="translate(220.5 -48.56) rotate(90)"/><rect class="cls-50" x="166.34" y="113.97" width="4.59" height="2.09" transform="translate(223.1 -54.3) rotate(90)"/><rect class="cls-50" x="186.75" y="123.98" width="4.99" height="2.09" transform="translate(253.72 -64.9) rotate(90)"/><rect class="cls-50" x="166.14" y="134.04" width="4.99" height="2.09" transform="translate(243.17 -34.23) rotate(90)"/><rect class="cls-50" x="186.75" y="123.98" width="13.34" height="2.09" transform="translate(257.89 -69.07) rotate(90)"/><rect class="cls-50" x="192.1" y="104.43" width="18.66" height="2.09" transform="translate(246.36 -96.63) rotate(90)"/></g><g id="C"><rect class="cls-49" x="97.85" y="114.58" width="5.47" height="2.09" transform="translate(155.65 14.36) rotate(90)"/><rect class="cls-49" x="99.53" y="150.62" width="3.5" height="3.05" transform="translate(192.88 50.18) rotate(90)"/><polygon class="cls-50" points="36.9 112.33 41.96 116.29 41.96 150.21 37.08 154.32 36.9 112.33"/><rect class="cls-49" x="139.07" y="104.43" width="14.49" height="2.09" transform="translate(191.24 -41.52) rotate(90)"/><rect class="cls-49" x="139.07" y="144.68" width="14.49" height="2.09" transform="translate(231.48 -1.27) rotate(90)"/><rect class="cls-49" x="93.46" y="106.4" width="14.25" height="2.09" transform="translate(147.47 6.18) rotate(90)"/><rect class="cls-50" x="50.18" y="107.87" width="32.79" height="2.09"/><rect class="cls-50" x="54.36" y="112.04" width="32.45" height="2.09"/><rect class="cls-50" x="50.18" y="139.88" width="34.53" height="2.09"/><rect class="cls-50" x="54.29" y="135.71" width="34.53" height="2.09"/><rect class="cls-50" x="37.08" y="152.23" width="49.66" height="2.09"/><rect class="cls-50" x="41.96" y="148.12" width="40.67" height="2.09"/><rect class="cls-50" x="41.07" y="99.64" width="43.64" height="2.09"/><rect class="cls-50" x="38.99" y="95.52" width="49.9" height="2.09"/><rect class="cls-50" x="140.11" y="105.48" width="8.23" height="2.09" transform="translate(190.2 -38.39) rotate(90)"/><rect class="cls-50" x="79.47" y="124.56" width="46.39" height="2.09" transform="translate(167.72 22.25) rotate(90)"/><rect class="cls-50" x="88.81" y="104.84" width="19.37" height="2.09" transform="translate(143.83 6.71) rotate(90)"/><rect class="cls-50" x="100.99" y="124.56" width="25.75" height="2.09" transform="translate(178.91 11.06) rotate(90)"/><rect class="cls-50" x="140.11" y="145.72" width="8.23" height="2.09" transform="translate(230.44 1.86) rotate(90)"/><rect class="cls-50" x="140.07" y="145.69" width="16.52" height="2.09" transform="translate(234.51 -2.27) rotate(90)"/><rect class="cls-50" x="140.14" y="105.51" width="16.52" height="2.09" transform="translate(194.4 -42.53) rotate(90)"/><rect class="cls-50" x="92.64" y="124.56" width="34.1" height="2.09" transform="translate(174.74 15.23) rotate(90)"/><rect class="cls-49" x="96.82" y="124.56" width="29.92" height="2.09" transform="translate(176.83 13.14) rotate(90)"/><rect class="cls-49" x="112.82" y="110.64" width="32.5" height="2.09" transform="translate(197.59 222.68) rotate(180)"/><rect class="cls-49" x="112.82" y="138.48" width="32.45" height="2.09" transform="translate(197.54 278.36) rotate(180)"/><rect class="cls-49" x="102.51" y="150.88" width="42.76" height="2.03" transform="translate(187.23 303.11) rotate(180)"/><rect class="cls-49" x="99.54" y="98.29" width="45.73" height="2.03" transform="translate(184.26 197.93) rotate(180)"/></g></svg>
