<svg id="Calque_3" data-name="Calque 3" xmlns="http://www.w3.org/2000/svg" viewBox="0 0 500.19 500.19"><defs><style>.cls-1{fill:#ee7f03;}.cls-2{fill:#fefdfd;}.cls-3{fill:#fcf0e3;}.cls-4{fill:#fdfaf6;}.cls-5{fill:#fefbf7;}.cls-6{fill:#fefcfa;}.cls-7{fill:#fdf9f4;}.cls-8{fill:#fcf1e4;}.cls-9{fill:#fceddb;}.cls-10{fill:#fceedf;}.cls-11{fill:#fcefe1;}.cls-12{fill:#fbead6;}.cls-13{fill:#ee820a;}.cls-14{fill:#ee8109;}.cls-15{fill:#ef891b;}</style></defs><title>Logo_IIM</title><path class="cls-1" d="M1,274V228c1.7-1.32,1.9-3.23,2.21-5.18,1.32-8.36,2.34-16.81,4.2-25.05C18.72,147.91,42.65,105.13,79.94,70c34-32,74-52.7,119.62-62.5C212.26,4.79,225.19,3.82,238,2L263,2a27.83,27.83,0,0,0,3.37.67A256.77,256.77,0,0,1,298,6.79c57.86,11.78,106.37,39.77,143.93,85.43,47,57.1,65.13,122.88,54.51,195.91-8.34,57.35-34.37,106.18-77.33,145.14-57,51.69-124.33,73.38-200.71,63.7-67.37-8.54-122.22-40.54-164.28-93.84-28.39-36-44.91-77.07-50.71-122.51C3.13,278.27,3.37,275.63,1,274Zm107.14,61V325c4.09-.92,8.25-.2,12.36-.48,1.67-.11,3.81.74,4.58-1.78s-1-2.71-2.74-2.78-3.66,0-5.49,0c-9.63-.11-8.63,1.12-8.61-9,1.26-2.48,3.39-3.24,6-3.27,3.23,0,6.46-.27,9.7-.42,3.14-2.53,1.4-3.53-1.31-4.36-2.3-.71-6,1.17-6.72-1.29-.65-2.27,3-3.88,4.49-6a6.85,6.85,0,0,1,.68-.72c.59-.63,1.23-1.46.57-2.14a3.82,3.82,0,0,0-2.27-.63c-1.68-.14-2.69,1-3.77,2.06a16,16,0,0,0-4.5,9.19c-3.83.26-6.78,1.64-7.42,5.91a3.15,3.15,0,0,0-.35,3.57,138.33,138.33,0,0,0,0,20.27,3.27,3.27,0,0,0,.32,3.63c.67,4.2,3.48,5.78,7.37,6,4.66.32,9.39,1.71,13.9-.77,1-2.48-.33-3.3-2.53-3.36-2-.06-3.92,0-5.87,0C113.24,338.62,109.94,338.57,108.14,335Zm304.44-148.3,1.74.42q0,2.62,0,5.23c0,21.83.12,43.65-.1,65.48,0,4.89,1.61,6.52,6.38,6.25a136.52,136.52,0,0,1,17,0c5,.34,6.19-1.8,6.15-6.42-.19-19-.08-38-.08-57q0-29.49,0-59c0-6.59-1.76-8.31-8.26-8.36-4.33,0-8.68.21-13-.05-5.15-.31-8.37,1.83-10.75,6.37-8.12,15.48-16.47,30.85-24.8,46.23-.73,1.35-1,3.6-3.08,3.46-1.67-.11-1.94-2.1-2.63-3.37-8.32-15.38-16.68-30.74-24.84-46.21-2.36-4.47-5.44-6.83-10.67-6.5-4.81.3-9.66.07-14.49.07-4.47,0-6.73,2.05-6.72,6.71q.07,59.73,0,119.46c0,3.58,1.45,4.62,4.79,4.53,6-.17,12,0,18-.05s6.43-.28,6.43-6.52c0-21.83,0-43.65,0-65.48,0-1.65-.87-3.65,1.6-5.39,4,7.22,8.52,14,11.56,21.46,3.67,8.94,9.35,11.72,18.85,11.26,7-.34,10.93-2.39,13.88-8.62C403.43,202.5,408.19,194.7,412.58,186.72ZM231.83,214c0,14.64.11,29.28-.06,43.92-.05,4.55,1.65,6.31,6.18,6.11,5.65-.25,11.32-.21,17,0,4.32.15,6-1.74,6-5.93-.11-6.32,0-12.64,0-19q0-34.19,0-68.38c0-6.9-.67-7.58-7.25-7.6-5.16,0-10.32.19-15.47-.07-4.83-.24-6.43,1.8-6.37,6.49C231.95,184.42,231.83,199.23,231.83,214Zm74.44,0c0-15-.1-30,.07-44.95,0-4.33-1.55-6-5.84-5.92-6,.18-12,.1-18,0-3.31,0-4.83,1.34-4.82,4.77q.09,45.45,0,90.9c0,4,1.8,5.28,5.5,5.19,5.66-.13,11.33-.21,17,0,4.49.18,6.23-1.48,6.17-6.09C306.14,243.32,306.26,228.67,306.26,214ZM246,152c3.48,0,7-.06,10.45,0,3.3.07,4.93-1.4,4.91-4.75q-.06-7,0-13.93c0-3.25-1.52-5.07-4.74-5.11-7-.08-13.93-.09-20.9,0-2.85,0-4.64,1.43-4.58,4.64.09,4.81.07,9.62,0,14.43-.06,3.42,1.63,4.77,4.91,4.69S242.67,152,246,152Zm46,0c3.33,0,6.66-.09,10,0,3.6.12,5.24-1.62,5.26-5.08q0-6.74,0-13.49c0-3.16-1.51-5.16-4.75-5.21-7-.11-14-.1-21,0-2.93,0-4.61,1.55-4.58,4.7.05,4.83,0,9.66,0,14.49,0,3.11,1.44,4.61,4.55,4.57C285,152,288.46,152,292,152ZM175.41,315.22l1.51-.3c.93,1.71,1.88,3.42,2.79,5.14,3.58,6.77,7.22,13.51,10.68,20.34,1.23,2.43,3.11,2.73,5.39,2.48,2.68-.29,2.38-2.36,2.38-4.15q0-16,0-32c0-1.74-.18-3.51-2.51-3.53s-2.53,1.69-2.53,3.47c0,7.16,0,14.32,0,21.48,0,1.15.75,2.71-1.4,3.54-1-1.86-2-3.73-3-5.62-3.57-6.77-7.16-13.54-10.67-20.35-1.2-2.33-3.11-2.84-5.42-2.53-1.77.24-2.53,1.36-2.53,3.12q0,17,0,34c0,1.55.55,2.56,2.28,2.6s3-.46,3-2.44c0-1.33,0-2.66,0-4Q175.42,325.85,175.41,315.22Zm58.72,58.31c2.53,1.28,2.84,2.85,3.53,4.14,3.91,7.34,7.85,14.67,11.63,22.08,1.36,2.66,3.49,2.83,5.89,2.43,2.67-.45,2-2.69,2-4.39q.08-15.48,0-31c0-1.77.4-3.86-2.45-4-2.64-.09-2.91,1.54-2.89,3.59,0,4.33.12,8.66,0,13-.11,3.82.59,7.72-.67,12.15a21.72,21.72,0,0,1-1.61-2.16c-4.09-7.81-8.21-15.6-12.19-23.47-1.34-2.65-3.3-3.59-6.09-3s-2.18,2.95-2.19,4.82q-.07,15,0,30c0,1.82-.82,4.43,2.36,4.52,3.62.1,2.59-2.8,2.61-4.72C234.19,389.74,234.14,382,234.14,373.53Zm8.39-50.92q0,8.48,0,17c0,1.82.35,3.35,2.68,3.33s2.73-1.44,2.72-3.31c0-3.16.17-6.33,0-9.48-.24-3.75,1.94-4,4.74-3.77,2,.17,2.77,1.59,3.64,3,2.31,3.85,4.7,7.66,7,11.53,1.39,2.38,3.75,2.75,5.55,1.62,2.09-1.31-.23-2.88-.9-4.15-1.55-2.94-3.26-5.8-5.08-8.58-1.56-2.38-2.27-4.05,1-5.89,4.8-2.7,5.07-7.53,4.28-12.32s-4.06-7-8.48-8-8.9-.76-13.4-.52c-2.79.15-3.76,1.42-3.7,4.09C242.59,312.29,242.52,317.45,242.53,322.6Zm34.61-.09q0,4.24,0,8.49c0,13.07,0,13.07,13.15,12.17,8.21-.56,13.22-5.31,13.86-13.54a94.17,94.17,0,0,0,.06-12.47c-.47-8.5-5.27-13.48-13.77-14.24-3.12-.28-6.3.15-9.46.15s-3.95,1.66-3.88,4.47C277.23,312.53,277.14,317.52,277.14,322.51Zm-179.91,60q0,3.74,0,7.48c0,13.51,0,13.51,13.61,12.58,6.81-.47,11.49-4.31,13-11a43.34,43.34,0,0,0,.14-17.33c-1.28-6.87-5.57-10.83-12.49-11.63a81.9,81.9,0,0,0-9.94-.08c-3,0-4.48,1.3-4.34,4.59C97.38,372.18,97.22,377.34,97.22,382.49ZM162,322.35c-.17-2.16-.17-4.84-.61-7.46-1.3-7.7-6.1-11.91-13.55-12.1-7.7-.2-12.68,3.48-14.47,11a43.54,43.54,0,0,0-.29,16.89c1.37,8.65,6.31,12.63,14.67,12.46,8.1-.17,12.57-4.26,13.79-12.85C161.86,327.87,161.81,325.35,162,322.35Zm73.58,18.3c-.19-.81-.34-1.63-.57-2.43-2.83-9.91-5.72-19.8-8.49-29.72-.88-3.16-2.33-5.62-6-5.65-3.86,0-5.38,2.57-6.3,5.91-2.43,8.81-5.23,17.53-7.36,26.4-.56,2.33-4.32,6.11.16,7.48s4.32-3.6,4.89-6.32c1-4.75,3-7.51,8.3-6.4a8.66,8.66,0,0,0,3,0c2.9-.43,4.26.95,4.86,3.65.54,2.43,1.27,4.82,2,7.2.62,1.94,2.19,2.36,4,2.05A1.68,1.68,0,0,0,235.55,340.66ZM146.1,402.5c2.33,0,4.65.06,7,0a2.09,2.09,0,0,0,2.14-2.27,2,2,0,0,0-2.07-2.31c-2-.12-4-.09-6-.09-8.87,0-9.93-1.24-9.45-10.18.14-2.56,1-3.58,3.54-3.46a83.26,83.26,0,0,0,8.47,0c2.1-.12,5.42,1.08,5.35-2.55-.05-3.13-3.1-2.24-5.12-2.32-2.32-.1-4.65,0-7,0-2.6,0-5.62.67-5.23-3.71.33-3.72-.66-8.16,5.27-8.22,3,0,6,0,9,0,1.6,0,3.13-.2,3.2-2.24.07-1.89-1.1-2.65-2.87-2.63-4,0-8-.26-11.93.23-5.14.64-7.64,3.59-7.75,8.77-.16,7.48-.18,15,0,22.43.14,5.3,3.1,8.15,8.44,8.63C142.76,402.64,144.44,402.51,146.1,402.5ZM191.69,397l-1.35-.17c-.41-1.25-.86-2.48-1.21-3.74-2.42-8.82-4.87-17.63-7.2-26.48-.68-2.58-1.81-4.64-4.73-3.64-3.12,1.06-.91,3.45-.49,5,2.57,9.64,5.37,19.22,8.08,28.82.92,3.25,2.24,5.83,6.35,5.77,3.84-.06,5.14-2.49,6-5.55q4.18-14.89,8.33-29.79c.44-1.6,2-3.67-1.07-4.37-2.52-.58-3.63,1-4.2,3.17-1,3.86-2,7.72-3.08,11.57C195.32,384.1,193.5,390.56,191.69,397Zm79.26-14.44h0c0-1.66-.08-3.33,0-5,.45-7.64,3.34-10.34,11-10.29,1.83,0,3.65.15,5.48.19,1.07,0,2-.3,2.24-1.49a2.36,2.36,0,0,0-1.47-2.8c-8.78-4.53-20.58,1.13-22.14,10.85a66.39,66.39,0,0,0-.54,10.93c.1,13.37,4.81,17.91,18.22,17.52,2.26-.06,5.94.9,5.8-2.79-.17-4.23-3.84-1.89-5.89-1.83-9.2.26-12.52-2.7-12.7-11.8C270.93,384.91,270.95,383.74,270.95,382.58ZM75.14,320.14h.06c0,4.66-.13,9.33,0,14,.16,4.4,2,7.86,6.7,8.72,4.43.82,9,.45,13.45.13,1.33-.1,2.26-.59,2.32-2,.08-1.75-1-2.31-2.54-2.32-2.5,0-5,0-7.49,0-5.8-.2-7-1.39-7-7.14,0-7.82,0-15.65,0-23.47,0-2.07.57-4.82-2.8-4.7s-2.62,2.85-2.66,4.91C75.1,312.15,75.14,316.14,75.14,320.14ZM302.8,382.89c0-5.64,0-11.28,0-16.91,0-1.93-.52-3.24-2.78-3.18s-2.76,1.33-2.75,3.27q0,16.42,0,32.83c0,1.81.25,3.33,2.57,3.43,2.59.12,3-1.46,3-3.53C302.78,393.5,302.8,388.19,302.8,382.89Zm-88.86-.75q0,8.22,0,16.43c0,1.91,0,3.78,2.73,3.72,2.29-.05,2.67-1.49,2.66-3.35q0-16.43,0-32.87c0-1.95-.58-3.22-2.79-3.21s-2.62,1.51-2.62,3.34C214,371.51,213.94,376.82,213.94,382.14Z" transform="translate(-0.9 -0.9)"/><path class="cls-2" d="M1,274c2.37,1.63,2.13,4.27,2.43,6.61,5.8,45.44,22.32,86.55,50.71,122.51,42.07,53.29,96.91,85.29,164.28,93.84,76.38,9.69,143.7-12,200.71-63.7,43-39,69-87.79,77.33-145.14,10.62-73-7.55-138.81-54.51-195.91C404.39,46.57,355.88,18.57,298,6.79a256.77,256.77,0,0,0-31.64-4.15A27.83,27.83,0,0,1,263,2q0-.49,0-1Q380,1,497,.9c3.42,0,4.1.67,4.09,4.1q-.16,246,0,492c0,3.42-.67,4.1-4.09,4.09q-246-.16-492,0c-3.42,0-4.1-.67-4.1-4.09Q1.09,385.5,1,274Z" transform="translate(-0.9 -0.9)"/><path class="cls-2" d="M238,2c-12.82,1.78-25.75,2.74-38.45,5.47C153.91,17.32,113.95,38,79.94,70,42.65,105.13,18.72,147.91,7.41,197.77c-1.87,8.24-2.88,16.69-4.2,25.05-.31,2-.5,3.86-2.21,5.18Q1,116.62.9,5.24C.89,1.62,1.66.9,5.25.9Q121.63,1.09,238,1Z" transform="translate(-0.9 -0.9)"/><path class="cls-3" d="M238,2V1h25q0,.48,0,1Z" transform="translate(-0.9 -0.9)"/><path class="cls-4" d="M412.58,186.72c-4.39,8-9.15,15.79-13,24-2.94,6.23-6.85,8.29-13.88,8.62-9.51.45-15.19-2.32-18.85-11.26-3-7.43-7.6-14.24-11.56-21.46-2.47,1.74-1.6,3.74-1.6,5.39-.06,21.83,0,43.65,0,65.48,0,6.23-.3,6.5-6.43,6.52s-12-.12-18,.05c-3.34.09-4.8-.95-4.79-4.53q.12-59.73,0-119.46c0-4.65,2.25-6.71,6.72-6.71,4.83,0,9.68.23,14.49-.07,5.23-.32,8.31,2,10.67,6.5,8.16,15.47,16.51,30.83,24.84,46.21.68,1.26,1,3.25,2.63,3.37,2.08.14,2.34-2.11,3.08-3.46,8.33-15.37,16.67-30.74,24.8-46.23,2.38-4.54,5.6-6.68,10.75-6.37,4.32.26,8.66,0,13,.05,6.5.05,8.25,1.77,8.26,8.36q.06,29.49,0,59c0,19-.11,38,.08,57,0,4.62-1.11,6.76-6.15,6.42a136.52,136.52,0,0,0-17,0c-4.77.28-6.43-1.36-6.38-6.25.22-21.82.1-43.65.1-65.48q0-2.62,0-5.23Z" transform="translate(-0.9 -0.9)"/><path class="cls-5" d="M231.83,214c0-14.81.12-29.62-.07-44.42-.06-4.69,1.54-6.74,6.37-6.49,5.14.26,10.31.05,15.47.07,6.59,0,7.25.7,7.25,7.6q0,34.19,0,68.38c0,6.32-.08,12.65,0,19,.07,4.18-1.65,6.08-6,5.93-5.65-.2-11.32-.24-17,0-4.53.2-6.23-1.56-6.18-6.11C231.93,243.32,231.83,228.68,231.83,214Z" transform="translate(-0.9 -0.9)"/><path class="cls-6" d="M306.26,214c0,14.65-.13,29.3.08,44,.06,4.61-1.68,6.28-6.17,6.09-5.65-.23-11.32-.15-17,0-3.7.09-5.51-1.21-5.5-5.19q.11-45.45,0-90.9c0-3.44,1.51-4.81,4.82-4.77,6,.07,12,.15,18,0,4.29-.13,5.89,1.59,5.84,5.92C306.16,184,306.26,199,306.26,214Z" transform="translate(-0.9 -0.9)"/><path class="cls-7" d="M246,152c-3.32,0-6.64-.06-10,0s-5-1.26-4.91-4.69c.08-4.81.09-9.62,0-14.43-.06-3.21,1.73-4.6,4.58-4.64,7-.12,13.93-.11,20.9,0,3.22,0,4.77,1.86,4.74,5.11q-.07,7,0,13.93c0,3.35-1.61,4.82-4.91,4.75C253,151.92,249.47,152,246,152Z" transform="translate(-0.9 -0.9)"/><path class="cls-7" d="M292,152c-3.5,0-7,0-10.49,0-3.12,0-4.58-1.46-4.55-4.57,0-4.83,0-9.66,0-14.49,0-3.15,1.65-4.66,4.58-4.7,7-.09,14-.11,21,0,3.25.05,4.75,2,4.75,5.21q0,6.74,0,13.49c0,3.46-1.66,5.2-5.26,5.08C298.62,151.9,295.28,152,292,152Z" transform="translate(-0.9 -0.9)"/><path class="cls-3" d="M175.41,315.22q0,10.63,0,21.26c0,1.33,0,2.66,0,4-.06,2-1.31,2.47-3,2.44s-2.28-1-2.28-2.6q0-17,0-34c0-1.77.75-2.88,2.53-3.12,2.32-.31,4.22.2,5.42,2.53,3.5,6.81,7.1,13.57,10.67,20.35,1,1.89,2,3.76,3,5.62,2.15-.83,1.39-2.38,1.4-3.54.07-7.16,0-14.32,0-21.48,0-1.78.2-3.49,2.53-3.47s2.51,1.78,2.51,3.53q0,16,0,32c0,1.79.3,3.86-2.38,4.15-2.28.25-4.16-.05-5.39-2.48-3.46-6.83-7.1-13.57-10.68-20.34-.91-1.72-1.86-3.43-2.79-5.14Z" transform="translate(-0.9 -0.9)"/><path class="cls-8" d="M234.14,373.53c0,8.47.05,16.22,0,24,0,1.92,1,4.82-2.61,4.72-3.18-.09-2.34-2.7-2.36-4.52q-.1-15,0-30c0-1.87-.7-4.24,2.19-4.82s4.74.38,6.09,3c4,7.87,8.1,15.66,12.19,23.47a21.72,21.72,0,0,0,1.61,2.16c1.26-4.43.56-8.33.67-12.15.13-4.32.06-8.65,0-13,0-2,.25-3.68,2.89-3.59,2.86.1,2.45,2.18,2.45,4q0,15.48,0,31c0,1.7.65,3.95-2,4.39-2.4.4-4.53.23-5.89-2.43-3.78-7.41-7.72-14.73-11.63-22.08C237,376.38,236.67,374.81,234.14,373.53Z" transform="translate(-0.9 -0.9)"/><path class="cls-8" d="M242.52,322.6c0-5.16.07-10.31,0-15.47-.05-2.67.91-3.94,3.7-4.09,4.49-.24,8.95-.52,13.4.52s7.71,3.34,8.48,8,.52,9.62-4.28,12.32c-3.27,1.84-2.55,3.51-1,5.89,1.82,2.78,3.53,5.65,5.08,8.58.67,1.27,3,2.84.9,4.15-1.81,1.13-4.17.76-5.55-1.62-2.26-3.88-4.65-7.68-7-11.53-.87-1.45-1.69-2.86-3.64-3-2.8-.25-5,0-4.74,3.77.2,3.15,0,6.32,0,9.48,0,1.88-.45,3.29-2.72,3.31s-2.68-1.5-2.68-3.33Q242.52,331.09,242.52,322.6Zm5.37-7.76c.51,2.94-2.07,7.78,4.87,7.3,7.11-.49,10.31-2.29,10.45-7.22s-3.27-7.05-10.73-7.34C246.53,307.35,248.08,311.37,247.9,314.84Z" transform="translate(-0.9 -0.9)"/><path class="cls-9" d="M277.14,322.51c0-5,.09-10,0-15-.07-2.81.79-4.47,3.88-4.47s6.34-.43,9.46-.15c8.5.76,13.3,5.74,13.77,14.24a94.17,94.17,0,0,1-.06,12.47c-.64,8.23-5.66,13-13.86,13.54-13.15.9-13.15.9-13.15-12.17Q277.14,326.76,277.14,322.51Zm5.51.28q0,4.24,0,8.49c0,7.42,2.49,9.14,9.7,6.7,4.14-1.4,6.11-4.52,6.44-8.63.27-3.31.15-6.65.11-10-.11-8.64-3.78-12-12.35-11.76-3.12.08-4.07,1.27-3.94,4.19C282.77,315.47,282.65,319.13,282.65,322.79Z" transform="translate(-0.9 -0.9)"/><path class="cls-10" d="M97.22,382.49c0-5.15.16-10.31-.06-15.45-.14-3.29,1.33-4.57,4.34-4.59a81.9,81.9,0,0,1,9.94.08c6.92.8,11.21,4.77,12.49,11.63a43.34,43.34,0,0,1-.14,17.33c-1.48,6.74-6.16,10.58-13,11-13.61.93-13.61.93-13.61-12.58Q97.23,386.23,97.22,382.49Zm5.47-.23c0,4.17.09,8.33,0,12.5-.08,2.6,1,3.41,3.52,3.49,8.27.26,12.58-3.51,12.87-11.71.1-2.83.12-5.67,0-8.5-.36-7.76-3.94-10.91-11.71-11.19-3.88-.14-5,1.29-4.71,4.91S102.68,378.77,102.69,382.26Z" transform="translate(-0.9 -0.9)"/><path class="cls-11" d="M162,322.35c-.16,3-.11,5.52-.46,8-1.22,8.59-5.69,12.69-13.79,12.85-8.36.17-13.31-3.81-14.67-12.46a43.54,43.54,0,0,1,.29-16.89c1.79-7.56,6.78-11.24,14.47-11,7.45.19,12.25,4.4,13.55,12.1C161.8,317.51,161.8,320.19,162,322.35Zm-5.41.8c-.23-2.67-.27-5.5-.75-8.26-.78-4.49-3.56-7-8.21-7.11s-7.69,2-8.76,6.47a38.29,38.29,0,0,0-.1,17.24c1.05,4.79,4.31,7.27,8.89,7s7.37-2.82,8.19-7.27C156.3,328.62,156.32,326,156.56,323.15Z" transform="translate(-0.9 -0.9)"/><path class="cls-11" d="M235.55,340.66a1.68,1.68,0,0,1-1.45,2.18c-1.82.3-3.38-.11-4-2.05-.76-2.37-1.49-4.77-2-7.2-.6-2.7-2-4.08-4.86-3.65a8.66,8.66,0,0,1-3,0c-5.32-1.11-7.31,1.64-8.3,6.4-.57,2.72-.27,7.73-4.89,6.32s-.72-5.15-.16-7.48c2.13-8.88,4.92-17.6,7.36-26.4.92-3.34,2.44-5.94,6.3-5.91,3.63,0,5.08,2.49,6,5.65,2.78,9.92,5.66,19.82,8.49,29.72C235.22,339,235.37,339.85,235.55,340.66ZM220.8,307c-3.15,5.88-3.75,11.17-5.18,16.18-.44,1.52.73,2,2.05,2.06,1.83,0,3.66,0,5.48,0,1.62,0,2.59-.61,2.09-2.43C223.87,317.95,222.5,313.05,220.8,307Z" transform="translate(-0.9 -0.9)"/><path class="cls-11" d="M146.1,402.51c-1.66,0-3.33.13-5,0-5.34-.48-8.3-3.33-8.44-8.63-.19-7.47-.17-15,0-22.43.11-5.18,2.61-8.13,7.75-8.77,3.92-.49,7.95-.19,11.93-.23,1.76,0,2.94.74,2.87,2.63-.08,2-1.6,2.24-3.2,2.24-3,0-6,0-9,0-5.94.06-4.94,4.51-5.27,8.22-.39,4.38,2.63,3.7,5.23,3.71,2.33,0,4.66-.08,7,0,2,.08,5.07-.81,5.12,2.32.06,3.62-3.25,2.43-5.35,2.55a83.26,83.26,0,0,1-8.47,0c-2.55-.12-3.41.91-3.54,3.46-.48,8.94.58,10.18,9.45,10.18,2,0,4,0,6,.09a2,2,0,0,1,2.07,2.31,2.09,2.09,0,0,1-2.14,2.27C150.75,402.56,148.42,402.5,146.1,402.51Z" transform="translate(-0.9 -0.9)"/><path class="cls-11" d="M191.69,397c1.81-6.46,3.64-12.92,5.42-19.38,1.06-3.85,2.06-7.71,3.08-11.57.57-2.16,1.67-3.75,4.2-3.17,3,.7,1.52,2.77,1.07,4.37q-4.12,14.91-8.33,29.79c-.86,3.07-2.16,5.49-6,5.55-4.1.07-5.43-2.51-6.35-5.77-2.71-9.6-5.51-19.18-8.08-28.82-.42-1.58-2.63-4,.49-5,2.92-1,4.05,1.06,4.73,3.64,2.33,8.85,4.78,17.66,7.2,26.48.35,1.26.8,2.49,1.21,3.74Z" transform="translate(-0.9 -0.9)"/><path class="cls-3" d="M270.95,382.58c0,1.16,0,2.33,0,3.49.18,9.11,3.51,12.07,12.7,11.8,2-.06,5.72-2.39,5.89,1.83.15,3.69-3.54,2.73-5.8,2.79-13.41.38-18.12-4.15-18.22-17.52a66.39,66.39,0,0,1,.54-10.93c1.56-9.72,13.36-15.38,22.14-10.85a2.36,2.36,0,0,1,1.47,2.8c-.24,1.2-1.16,1.52-2.24,1.49-1.83,0-3.65-.18-5.48-.19-7.62-.06-10.51,2.65-11,10.29-.1,1.66,0,3.33,0,5Z" transform="translate(-0.9 -0.9)"/><path class="cls-9" d="M75.14,320.14c0-4,0-8,0-12,0-2.06-.61-4.79,2.66-4.91s2.79,2.63,2.8,4.7c0,7.82,0,15.65,0,23.47,0,5.75,1.23,6.94,7,7.14,2.49.09,5,0,7.49,0,1.53,0,2.62.57,2.54,2.32-.06,1.45-1,1.94-2.32,2-4.49.32-9,.69-13.45-.13-4.66-.86-6.54-4.32-6.7-8.72-.17-4.65,0-9.32,0-14Z" transform="translate(-0.9 -0.9)"/><path class="cls-10" d="M103.37,333.12a138.33,138.33,0,0,1,0-20.27l.35-3.57c.64-4.27,3.59-5.64,7.42-5.91,3.07,1.13,6.27.39,9.41.63,2.05.16,4.31.08,3.41,3.29-3.23.15-6.46.38-9.7.42-2.64,0-4.77.79-6,3.27-3.08,7.1-1.4,9.91,5.86,10.06,3.72.08,7.63-.86,11,1.69-.77,2.52-2.91,1.66-4.58,1.78-4.11.28-8.27-.44-12.36.48a10.32,10.32,0,0,0,0,10c1.81,3.55,5.1,3.6,8.43,3.59,2,0,3.92,0,5.87,0,2.2.06,3.49.88,2.53,3.36-4.63.37-9.34-.77-13.9.77-3.9-.24-6.71-1.82-7.37-6A5.45,5.45,0,0,0,103.37,333.12Z" transform="translate(-0.9 -0.9)"/><path class="cls-12" d="M302.8,382.89c0,5.31,0,10.61,0,15.92,0,2.06-.37,3.64-3,3.53-2.31-.11-2.57-1.62-2.57-3.43q0-16.42,0-32.83c0-1.94.57-3.21,2.75-3.27s2.79,1.25,2.78,3.18C302.78,371.61,302.8,377.25,302.8,382.89Z" transform="translate(-0.9 -0.9)"/><path class="cls-8" d="M213.94,382.14c0-5.31,0-10.62,0-15.94,0-1.83.27-3.34,2.62-3.34s2.8,1.27,2.79,3.21q0,16.43,0,32.87c0,1.85-.38,3.3-2.66,3.35-2.74.06-2.73-1.81-2.73-3.72Q213.95,390.35,213.94,382.14Z" transform="translate(-0.9 -0.9)"/><path class="cls-12" d="M124,307.29c.9-3.21-1.36-3.13-3.41-3.29-3.13-.24-6.33.5-9.41-.63a16,16,0,0,1,4.5-9.19c1.08-1.09,2.09-2.2,3.77-2.06a3.82,3.82,0,0,1,2.27.63c.66.69,0,1.52-.57,2.14a6.85,6.85,0,0,0-.68.72c-1.47,2.13-5.15,3.74-4.49,6,.71,2.46,4.42.59,6.72,1.29C125.37,303.77,127.11,304.77,124,307.29Z" transform="translate(-0.9 -0.9)"/><path class="cls-12" d="M125.08,322.73c-3.35-2.55-7.27-1.62-11-1.69-7.26-.15-8.94-3-5.86-10.06,0,10.07-1,8.84,8.61,9,1.83,0,3.66-.05,5.49,0S125.9,320.09,125.08,322.73Z" transform="translate(-0.9 -0.9)"/><path class="cls-12" d="M111.07,342.77c4.56-1.54,9.27-.4,13.9-.77C120.46,344.48,115.73,343.09,111.07,342.77Z" transform="translate(-0.9 -0.9)"/><path class="cls-12" d="M108.14,335a10.32,10.32,0,0,1,0-10Q108.14,330,108.14,335Z" transform="translate(-0.9 -0.9)"/><path class="cls-12" d="M103.37,333.12a5.45,5.45,0,0,1,.32,3.63A3.27,3.27,0,0,1,103.37,333.12Z" transform="translate(-0.9 -0.9)"/><path class="cls-12" d="M103.73,309.28l-.35,3.57A3.15,3.15,0,0,1,103.73,309.28Z" transform="translate(-0.9 -0.9)"/><path class="cls-13" d="M247.9,314.84c.18-3.48-1.37-7.49,4.6-7.26,7.45.29,10.87,2.32,10.73,7.34s-3.34,6.72-10.45,7.22C245.83,322.62,248.41,317.78,247.9,314.84Z" transform="translate(-0.9 -0.9)"/><path class="cls-13" d="M282.65,322.79c0-3.66.12-7.33,0-11-.13-2.92.82-4.11,3.94-4.19,8.57-.21,12.24,3.11,12.35,11.76,0,3.33.16,6.67-.11,10-.33,4.11-2.3,7.23-6.44,8.63-7.21,2.43-9.71.71-9.7-6.7Q282.65,327,282.65,322.79Z" transform="translate(-0.9 -0.9)"/><path class="cls-14" d="M102.69,382.26c0-3.5.2-7-.06-10.49s.83-5.05,4.71-4.91c7.77.28,11.35,3.43,11.71,11.19.13,2.83.11,5.67,0,8.5-.3,8.19-4.6,12-12.87,11.71-2.56-.08-3.6-.89-3.52-3.49C102.79,390.6,102.69,386.43,102.69,382.26Z" transform="translate(-0.9 -0.9)"/><path class="cls-13" d="M156.56,323.15c-.24,2.8-.26,5.47-.74,8.06-.82,4.45-3.63,7-8.19,7.27s-7.84-2.2-8.89-7a38.29,38.29,0,0,1,.1-17.24c1.07-4.48,4.19-6.59,8.76-6.47s7.43,2.62,8.21,7.11C156.29,317.65,156.34,320.48,156.56,323.15Z" transform="translate(-0.9 -0.9)"/><path class="cls-15" d="M220.8,307c1.7,6.05,3.07,10.94,4.43,15.84.51,1.82-.47,2.42-2.09,2.43-1.83,0-3.66,0-5.48,0-1.32,0-2.49-.53-2.05-2.06C217.05,318.17,217.65,312.88,220.8,307Z" transform="translate(-0.9 -0.9)"/></svg>
