<svg xmlns="http://www.w3.org/2000/svg" viewBox="0 0 185.56 67.2"><defs><style>.cls-1{fill:#189526;}</style></defs><title>lynx_neutre</title><g id="Calque_2" data-name="Calque 2"><g id="LYNX"><path class="cls-1" d="M14.47,36.62h46.7L75.33,49.29l2.26.64v4.78L74.5,56.3V61H79V51.34l8.5.18v1.24l9.39.27v5h-3.1l.27,4.52h6.2V58H99V54.44h25.51v5.31h-2.92V67.2h6.47v-6h-1.33V54.71h20.81s22.59-5.49,0-11.25c3.19.89-16.47-15.41-19.13-16.56,1.24.44,57.13,3.28,57.13,3.28V28.23L126.33,24l-7.81-1.58L147,21.73l-1.21-2-32.94.81-7.15-2.29-.13-4.72H100v3.1L66.55,3.51l-1.35,2L95.71,17,26.19,5.4l-.4,2.7L90.31,18.49S74.52,21.73,68,26.05c.67-.67-47.38,0-47.38,0l-2-.71V22.14h5.94V17.28h-8.1V7.56h2.29V0H9.45V7.29h2.7v7.42H8l-8-8V13.9L8.1,22,4.59,29,8.1,32.53l1.21-6.48Z"/></g></g></svg>
