<?xml version="1.0" encoding="utf-8"?>
<!-- Generator: Adobe Illustrator 21.1.0, SVG Export Plug-In . SVG Version: 6.00 Build 0)  -->
<svg version="1.1" id="LYNX" xmlns="http://www.w3.org/2000/svg" xmlns:xlink="http://www.w3.org/1999/xlink" x="0px" y="0px"
	 viewBox="0 0 186.1 67.7" style="enable-background:new 0 0 186.1 67.7;" xml:space="preserve">
<style type="text/css">
	.st0{fill:#FF3300;stroke:#000000;stroke-width:0.5;stroke-miterlimit:10;}
</style>
<title>LYNX</title>
<path class="st0" d="M14.7,36.8h46.7l14.2,12.7l2.3,0.6v4.8l-3.1,1.6v4.7h4.5v-9.7l8.5,0.2V53l9.4,0.3v5H94l0.3,4.5h6.2v-4.5h-1.2
	v-3.5h25.5V60h-2.9v7.4h6.5v-6H127V55h20.8c0,0,22.6-5.5,0-11.3c3.2,0.9-16.5-15.4-19.1-16.6c1.2,0.4,57.1,3.3,57.1,3.3v-2
	l-59.2-4.2l-7.8-1.6l28.5-0.7l-1.2-2l-32.9,0.8l-7.2-2.3l-0.1-4.7h-5.6v3.1L66.8,3.8l-1.3,2L96,17.2L26.4,5.7L26,8.3l64.5,10.4
	c0,0-15.8,3.2-22.3,7.6c0.7-0.7-47.4,0-47.4,0l-2-0.7v-3.2h5.9v-4.9h-8.1V7.8H19V0.3H9.7v7.3h2.7V15H8.2l-8-8v7.2l8.1,8.1l-3.5,7
	l3.5,3.5l1.2-6.5L14.7,36.8z"/>
</svg>
