<?xml version="1.0" encoding="utf-8"?>
<!-- Generator: Adobe Illustrator 21.1.0, SVG Export Plug-In . SVG Version: 6.00 Build 0)  -->
<svg version="1.1" id="Calque_1" xmlns="http://www.w3.org/2000/svg" xmlns:xlink="http://www.w3.org/1999/xlink" x="0px" y="0px"
	 viewBox="0 0 2362 2362" style="enable-background:new 0 0 2362 2362;" xml:space="preserve">
<style type="text/css">
	.st0{fill:#003399;stroke:#000000;stroke-miterlimit:10;}
</style>
<title>Moyen_portuaires</title>
<polygon class="st0" points="108.9,832.2 108.9,829.8 107.3,829.8 107.3,828.5 108.9,828.5 110.9,826.1 131.8,826.1 131.8,823.7 
	134.4,823.7 134.4,817.8 135.3,817.8 135.3,807.7 136.5,807.7 136.5,818.6 145.9,818.2 145.9,815.8 148.6,815.8 148.6,817.3 
	149.9,817.2 149.9,818.1 151.6,818.1 151.6,824.6 153.6,824.8 153.6,823.1 161,823.2 161,821.3 161.9,821.2 161.9,823.1 
	166.6,823.1 166.6,829 163.9,828.7 163.9,832.2 "/>
</svg>
