<svg xmlns="http://www.w3.org/2000/svg" viewBox="0 0 159.13 66.19"><defs><style>.cls-1{fill:#093;stroke:#000;stroke-miterlimit:10;stroke-width:0.75px;}</style></defs><title>Moyen_portuaires_vert</title><g id="Calque_2" data-name="Calque 2"><g id="MOYEN_PORTUAIRE" data-name="MOYEN PORTUAIRE"><polygon class="cls-1" points="4.65 65.81 4.65 59.4 0.38 59.4 0.38 55.93 4.65 55.93 9.99 49.52 65.81 49.52 65.81 43.11 72.76 43.11 72.76 27.35 75.16 27.35 75.16 0.38 78.36 0.38 78.36 29.49 103.47 28.42 103.47 22.01 110.68 22.01 110.68 26.02 114.15 25.75 114.15 28.15 118.69 28.15 118.69 45.51 124.04 46.05 124.04 41.51 143.8 41.77 143.8 36.7 146.21 36.43 146.21 41.51 158.76 41.51 158.76 57.27 151.55 56.46 151.55 65.81 4.65 65.81"/></g></g></svg>
