<svg xmlns="http://www.w3.org/2000/svg" viewBox="0 0 489 489"><defs><style>.cls-1{fill:#446e58;}.cls-2{fill:none;stroke:#fff;stroke-miterlimit:10;stroke-width:5px;}</style></defs><title>MOYEN_PORTUAIRES</title><g id="Calque_2" data-name="Calque 2"><g id="Calque_1-2" data-name="Calque 1"><path class="cls-1" d="M244.5,8a236.56,236.56,0,0,1,92.05,454.42A236.56,236.56,0,0,1,152.45,26.58,235,235,0,0,1,244.5,8m0-8C109.47,0,0,109.47,0,244.5S109.47,489,244.5,489,489,379.53,489,244.5,379.53,0,244.5,0Z"/></g><g id="MOYEN_PORTUAIRE"><g id="Calque_2-2" data-name="Calque 2"><g id="Calque_1-2-2" data-name="Calque 1-2"><polygon class="cls-2" points="44.13 331.77 44.13 315.24 32 315.24 32 305.31 43.32 305.31 57.22 288.78 207.27 288.78 207.27 272.25 226.01 272.25 226.01 229.25 232.62 229.25 232.62 156.5 241.44 156.5 241.44 234.71 308.69 232.05 308.69 214.92 328.53 214.92 328.53 225.95 337.35 225.06 337.35 231.46 350.57 231.46 350.57 278.03 364.9 279.82 364.9 267.1 416.71 268.01 416.71 254.19 423.33 253.34 423.33 266.73 457.5 266.73 457.5 308.62 437.66 306.84 437.66 331.77 44.13 331.77"/></g></g></g></g></svg>