<svg xmlns="http://www.w3.org/2000/svg" viewBox="0 0 489 489"><defs><style>.cls-1{fill:#446e58;}.cls-2{fill:none;stroke:#fff;stroke-miterlimit:10;stroke-width:5px;}</style></defs><title>P400</title><g id="Calque_2" data-name="Calque 2"><g id="Calque_1-2" data-name="Calque 1"><path class="cls-1" d="M244.5,8a236.56,236.56,0,0,1,92.05,454.42A236.56,236.56,0,0,1,152.45,26.58,235,235,0,0,1,244.5,8m0-8C109.47,0,0,109.47,0,244.5S109.47,489,244.5,489,489,379.53,489,244.5,379.53,0,244.5,0Z"/></g><g id="P400"><g id="Calque_2-2" data-name="Calque 2"><g id="Calque_1-2-2" data-name="Calque 1-2"><polygon class="cls-2" points="29.68 309.5 23.53 290.29 81.85 290.29 90.69 276.42 112.08 276.42 112.08 262.54 134.49 262.54 134.49 275.77 157.97 273.37 157.97 268.94 181.45 268.94 181.45 274.68 185.72 273.86 185.72 263.92 211.33 264.74 211.33 250.8 216.67 250.8 216.67 244.4 220.94 244.4 220.94 239.18 220.94 228.39 213.47 228.39 211.41 220.92 201.25 220.92 200.81 214.51 211.51 214.51 209.8 201.71 199.59 201.71 199.59 194.24 210.48 194.24 211.64 177.16 217.74 177.16 217.34 201.95 212.77 201.13 214.69 211.71 223.07 210.89 223.07 206.98 233.75 206.53 233.75 211.88 240.15 212.72 240.15 216.99 230.54 221.79 230.54 231.78 240.15 232.2 240.15 243.33 234.7 243.33 235.07 260.41 240.15 260 240.15 266.31 244.42 266.75 244.42 260.41 266.83 260.41 266.83 253.85 260 254.67 259.59 246.47 264.27 246.9 263.86 240.34 271.1 240.73 271.1 246.53 276.43 246.53 276.43 254 272.17 254 272.17 262.2 280.7 263.02 280.7 251.65 294.58 250.4 294.58 262.7 303.12 263.12 303.12 256.98 335.13 257.79 335.13 204.91 338.33 205.33 338.33 260.8 345.81 268.3 345.81 274.25 345.81 287.5 345.81 290.92 354.34 289.62 354.34 283.6 351.14 281.96 351.14 270.01 363.95 270.01 363.95 275.35 393.83 274.92 393.83 278.63 371.42 279.02 371.42 285.85 402.37 286.67 402.37 281.75 455.73 282.56 455.73 261.47 460 261.47 460 284.14 446.91 309.5 29.68 309.5"/></g></g></g></g></svg>