<svg xmlns="http://www.w3.org/2000/svg" viewBox="0 0 189.82 47.46"><defs><style>.cls-1{fill:#189526;}</style></defs><title>pa_neutre</title><g id="Calque_2" data-name="Calque 2"><g id="PORTE_AVIONS" data-name="PORTE AVIONS"><path class="cls-1" d="M0,37.17H104.61l-.84-2,8.59-2.7V27.91l-3.54-2,4.22.71V22.94s-.57-3.29,1.36-3.07c.36-.14,2-.07,1.72,3,0,.21,0,3.64,0,3.64h2.68V23l2.07-.07V15.15l-10.51-1.79v-1h3.22l.07-2.64h1.07v2.57l3.79-.07L118.76,0h.71l.07,3.93v8.5h2.29V10.86h1.72v1.5h2.79s-1.72-2.43.43-2.43c.43,0,2.5.14,1,2.14.29.29,0,2.93,0,2.93h-2.5v8.22h2.07V17.37h2.36v7.08h2.57v7.72h8.93v5h48.63v1.76s-8.49,2.4-9.13,8.17c.64.8-176.43,0-176.43,0V44.7H2.18v-3l.48-2.19H0Z"/></g></g></svg>
