<svg xmlns="http://www.w3.org/2000/svg" viewBox="0 0 186.22 73.02"><defs><style>.cls-1{fill:#0c1eb0;}</style></defs><title>panther_allie</title><g id="Calque_2" data-name="Calque 2"><g id="PANTHER"><path class="cls-1" d="M9.17,9.37h7.38L28.71,39.68l22.53-.8,15.55-8.57s-1.6-4.39,5.58-2.39c-2.19-.6,8.77-8,8.77-8s1-2.59,13.16-.2c.4.4,1-2.59,1-2.59L0,2.39V0L92.91,14.55s7.18-3.59,7.78.8c.6-.6,85.53,13.36,85.53,13.36l-.6,2.39L98.09,17.55l-1,2.29,6.61,1.84.65,3.37s15.14,4,11,10c-1,.91,16.18,1.55,19.29,2.07,1.29-.13,7.25,15.4,30.94,20.45-.13-.26,7.25,9.32-21,7.38,0,.39-1-.27-1-.27l-.3,7.47s-4.45,3-5.87-1.78c-.06-.77-.3-3.85,3.8-3.56.47,0,.13-2.05.13-2.05S87.93,66.48,79,60.92c0-1-.26,2.91-.26,2.91s2.14,6.41-2.6,6.53c0,.16-4.46,0-3.11-3.84-.19-.23-.35-2.48,3.38-2.52.62,0,.19-3,.19-3l-9.35-2-.85,2.6-4.68-.11-.23-5.19-4.06-.17-.34,5.7-2.71-.45.11-6.83s-6.77,3.39-8.8-3.27c-.17-.79-15.42-2.77-15.42-2.77s-2.71,4.78-9.65,3.25c-.72-.18-1,3.34-1,3.34L14.79,55l.09-2.89S-1,44,13.08,30.45C14.07,29.64,9.17,9.37,9.17,9.37Z"/></g></g></svg>
