<?xml version="1.0" encoding="utf-8"?>
<!-- Generator: Adobe Illustrator 21.1.0, SVG Export Plug-In . SVG Version: 6.00 Build 0)  -->
<svg version="1.1" id="Calque_1" xmlns="http://www.w3.org/2000/svg" xmlns:xlink="http://www.w3.org/1999/xlink" x="0px" y="0px"
	 viewBox="0 0 2362 2362" style="enable-background:new 0 0 2362 2362;" xml:space="preserve">
<style type="text/css">
	.st0{fill:#003399;stroke:#000000;stroke-miterlimit:10;}
</style>
<title>Patrouilleurs_de_haute_mer_A69</title>
<polygon class="st0" points="366.4,846.8 364.5,841 382.5,841 385.1,836.8 391.8,836.8 391.8,832.6 398.6,832.6 398.6,836.7 
	405.9,836 405.9,834.6 412.9,834.6 412.9,836.3 414.1,836.1 414.1,833.1 421.9,833.3 421.9,829.1 423.6,829.1 423.6,827.2 
	425,827.2 425,825.3 425,822.1 422.8,822.1 422.1,819.8 418.9,819.8 418.8,818 422,818 421.5,814.2 418.5,814.2 418.5,812 
	421.5,812 421.9,806.7 423.9,806.7 423.8,814.3 422.3,814.1 422.9,817.3 425.6,817.1 425.6,815.7 428.8,815.6 428.8,817.2 
	430.6,817.5 430.6,818.7 427.6,820.2 427.6,823.3 430.6,823.5 430.6,826.8 428.9,826.8 429,831.8 430.6,831.7 430.6,833.6 
	432,833.7 432,831.8 438.8,831.8 438.8,829.8 436.8,830.1 436.6,827.6 438,827.7 437.9,825.7 440,825.8 440,827.7 441.8,827.7 
	441.8,830.1 440.5,830.1 440.5,832.6 443.1,832.8 443.1,829.3 447.3,829 447.3,832.7 449.8,832.8 449.8,831 459.6,831.2 
	459.6,815.1 460.6,815.2 460.6,832.1 463,834.5 463,836.3 463,840.2 463,841.2 465.5,840.8 465.5,839.1 464.4,838.6 464.4,834.8 
	468.6,834.8 468.6,836.5 477.5,836.3 477.5,837.5 470.8,837.6 470.8,839.7 480.1,840 480.1,838.5 496.6,838.7 496.6,832.2 
	497.9,832.2 497.9,839.1 493.9,846.8 "/>
</svg>
