<?xml version="1.0" encoding="utf-8"?>
<!-- Generator: Adobe Illustrator 21.1.0, SVG Export Plug-In . SVG Version: 6.00 Build 0)  -->
<svg version="1.1" id="Calque_1" xmlns="http://www.w3.org/2000/svg" xmlns:xlink="http://www.w3.org/1999/xlink" x="0px" y="0px"
	 viewBox="0 0 2362 2362" style="enable-background:new 0 0 2362 2362;" xml:space="preserve">
<style type="text/css">
	.st0{fill:#003399;stroke:#000000;stroke-miterlimit:10;}
</style>
<title>Patrouilleurs_P400</title>
<polygon class="st0" points="69.4,704.8 67.7,699.9 83,699.9 83,697.6 87,695.8 88.5,696.4 88.5,697.9 86,699.6 90.5,700.3 
	90.5,697.6 97.7,697.8 97.7,696.6 99.4,696.9 99.4,697.8 104.7,697.8 106.5,695.8 107.4,695.8 108.4,697.4 114.2,697.6 114.2,694.6 
	115.7,694.6 115.7,691.9 118.4,691.9 118.4,694.8 122.5,694.6 124.9,690.1 128.7,690.1 128.7,675.8 131.9,675.8 131.9,689.4 
	147.9,688.9 147.9,697.9 157.9,697.1 157.9,693.3 162,693.3 162,696.8 187.9,696.3 181.7,705.4 "/>
</svg>
