<svg xmlns="http://www.w3.org/2000/svg" viewBox="0 0 714.51 202.18"><defs><style>.cls-1{fill:#ef3a24;}</style></defs><title>patrouilleur_austral_ennemi</title><g id="Calque_2" data-name="Calque 2"><g id="Calque_1-2" data-name="Calque 1"><polygon class="cls-1" points="1.21 156.08 2.02 196.52 8.09 196.52 8.49 202.18 681.35 201.78 714.51 145.17 714.51 135.06 709.66 135.06 709.66 139.1 644.56 140.31 629.59 145.57 591.99 145.57 591.58 139.1 596.84 139.5 596.84 128.99 586.73 128.99 585.92 122.93 575 122.93 574.6 117.27 568.53 117.67 568.53 128.59 557.62 128.59 557.62 139.5 564.09 139.5 563.68 151.23 552.36 151.23 551.55 139.5 538.61 139.5 538.61 122.52 532.95 122.52 516.37 112.01 506.67 111.6 506.67 116.46 513.14 116.86 530.52 129.8 530.93 139.91 522.44 139.1 522.03 150.42 512.73 151.23 512.73 145.17 506.26 145.17 506.26 152.85 495.75 151.64 496.15 132.63 490.09 131.42 490.9 112.82 497.37 111.2 496.96 104.73 489.68 105.14 489.68 89.36 485.24 89.36 479.17 105.14 473.51 105.54 473.51 90.17 479.17 89.36 479.17 84.11 468.25 84.11 467.85 106.35 463 106.35 462.19 94.62 456.93 94.22 456.53 76.83 467.85 77.23 467.85 71.98 473.11 71.17 473.11 61.87 463 61.87 462.59 71.57 456.93 71.57 456.53 43.27 462.19 43.27 462.19 38.41 456.53 38.41 456.93 27.9 463 27.9 462.59 21.84 469.47 21.43 469.06 15.77 462.19 15.77 461.78 4.85 467.85 4.85 467.85 0 451.27 0 450.87 5.26 456.53 5.26 456.53 10.51 446.01 10.92 445.2 71.98 429.43 71.98 429.43 77.64 422.96 78.04 423.37 93.81 416.09 95.03 415.69 100.28 400.32 100.28 401.13 134.25 389.4 133.84 389.81 147.19 384.15 145.97 384.55 151.64 225.63 151.64 225.63 140.31 219.97 140.31 220.38 149.21 211.89 150.02 203.4 156.49 35.58 156.89 35.58 162.96 29.11 162.96 29.11 151.23 0 151.64 1.21 156.08"/></g></g></svg>
