<svg xmlns="http://www.w3.org/2000/svg" viewBox="0 0 179.21 44.58"><defs><style>.cls-1{fill:#093;stroke:#000;stroke-miterlimit:10;stroke-width:0.75px;}</style></defs><title>Patrouilleurs_P400_vert</title><g id="Calque_2" data-name="Calque 2"><g id="P400"><polygon class="cls-1" points="3.04 43.31 0.53 36.06 23.18 36.06 23.18 32.65 29.1 29.99 31.32 30.88 31.32 33.1 27.62 35.61 34.28 36.65 34.28 32.65 44.95 32.95 44.95 31.17 47.46 31.61 47.46 32.95 55.31 32.95 57.97 29.99 59.31 29.99 60.79 32.36 69.37 32.65 69.37 28.21 71.59 28.21 71.59 24.21 75.59 24.21 75.59 28.51 81.66 28.21 85.22 21.55 90.84 21.55 90.84 0.38 95.58 0.38 95.58 20.51 119.27 19.77 119.27 33.1 134.08 31.91 134.08 26.29 140.15 26.29 140.15 31.47 178.49 30.73 169.31 44.2 3.04 43.31"/></g></g></svg>
