<svg xmlns="http://www.w3.org/2000/svg" viewBox="0 0 180.39 54.71"><defs><style>.cls-1{fill:#093;stroke:#000;stroke-miterlimit:10;stroke-width:0.75px;}</style></defs><title>Patrouilleurs_de_haute_mer_A69_vert</title><g id="Calque_2" data-name="Calque 2"><g id="A69"><polygon class="cls-1" points="3.07 54.33 0.52 46.53 24.74 46.53 28.24 40.88 37.25 40.88 37.25 35.23 46.4 35.23 46.4 40.74 56.22 39.8 56.22 37.92 65.64 37.92 65.64 40.2 67.26 39.94 67.26 35.9 77.75 36.17 77.75 30.52 80.04 30.52 80.04 27.96 81.92 27.96 81.92 25.4 81.92 21.1 78.97 21.1 78.02 18 73.72 18 73.58 15.58 77.89 15.58 77.22 10.47 73.18 10.47 73.18 7.51 77.22 7.51 77.75 0.38 80.44 0.38 80.31 10.6 78.29 10.33 79.1 14.64 82.73 14.37 82.73 12.48 87.04 12.35 87.04 14.5 89.46 14.91 89.46 16.52 85.42 18.54 85.42 22.71 89.46 22.98 89.46 27.42 87.17 27.42 87.31 34.15 89.46 34.01 89.46 36.57 91.34 36.71 91.34 34.15 100.49 34.15 100.49 31.46 97.8 31.86 97.53 28.5 99.42 28.63 99.28 25.94 102.11 26.07 102.11 28.63 104.53 28.63 104.53 31.86 102.78 31.86 102.78 35.23 106.28 35.49 106.28 30.79 111.93 30.38 111.93 35.36 115.3 35.49 115.3 33.07 128.48 33.34 128.48 11.68 129.83 11.81 129.83 34.55 133.06 37.78 133.06 40.2 133.06 45.45 133.06 46.8 136.42 46.26 136.42 43.97 134.94 43.3 134.94 38.19 140.59 38.19 140.59 40.47 152.57 40.2 152.57 41.82 143.55 41.95 143.55 44.78 156.07 45.18 156.07 43.16 178.27 43.43 178.27 34.69 180.02 34.69 180.02 43.97 174.63 54.33 3.07 54.33"/></g></g></svg>
