<svg xmlns="http://www.w3.org/2000/svg" viewBox="0 0 685.41 182.72"><defs><style>.cls-1{fill:#1c9547;}</style></defs><title>patrouilleur_service_public_neutre</title><g id="Calque_2" data-name="Calque 2"><g id="Calque_1-2" data-name="Calque 1"><polygon class="cls-1" points="4 135.12 0 182.12 627.45 182.72 685.41 148.06 685.41 138.5 495.98 139.09 485.23 115.19 484.03 96.07 469.09 86.51 460.13 85.91 459.53 76.35 411.73 76.95 411.73 66.19 397.98 66.19 397.38 52.45 403.96 52.45 403.96 48.26 409.93 47.07 416.51 47.07 416.51 41.69 427.26 43.48 426.67 36.91 398.58 38.7 397.98 32.73 403.36 32.73 403.36 27.35 397.98 27.35 397.98 14.66 402.63 14.3 402.63 9.65 398.52 9.47 393.51 0.18 388.15 0 388.69 4.83 369.38 5.36 369.38 0.18 364.74 0.18 364.74 9.47 379.04 9.65 379.04 23.77 369.2 24.13 369.38 33.25 378.5 33.6 379.21 48.08 374.39 48.26 374.21 75.61 368.85 75.79 369.56 93.84 364.56 94.02 364.74 106.35 268.57 105.81 268.4 96.52 263.39 96.16 263.39 86.15 258.57 85.97 258.74 77.04 253.56 77.04 253.56 72.03 219.78 72.39 220.67 81.33 225.14 81.68 225.14 86.15 229.97 86.69 230.32 105.64 225.14 105.64 225.68 115.11 192.07 119.75 163.12 120.11 163.12 134.06 4 135.12"/></g></g></svg>
