<svg xmlns="http://www.w3.org/2000/svg" viewBox="0 0 500 500"><defs><style>.cls-1{fill:none;}.cls-2{fill:#ff0;}</style></defs><title>phare</title><g id="Layer_2" data-name="Layer 2"><g id="Layer_1-2" data-name="Layer 1"><rect class="cls-1" width="500" height="500"/><path class="cls-2" d="M1.19,138,1.07,51.31,205.36,77.52l.11,34.58Z"/><path class="cls-2" d="M498.93,51.31V138L294.64,111.87V77.28Z"/><path class="cls-2" d="M177.77,54.48a3.16,3.16,0,0,0,1.32,6H320.84a3.19,3.19,0,0,0,3.23-3.12,3.33,3.33,0,0,0-1.86-2.93L250,13.91Z"/><path class="cls-2" d="M360,486.09,311.69,140.82h12.39a6.49,6.49,0,1,0,0-13H175.91a6.49,6.49,0,1,0,0,13h12.39L140,486.09Z"/></g></g></svg>
