<?xml version="1.0" encoding="utf-8"?>
<!-- Generator: Adobe Illustrator 21.1.0, SVG Export Plug-In . SVG Version: 6.00 Build 0)  -->
<svg version="1.1" id="Calque_1" xmlns="http://www.w3.org/2000/svg" xmlns:xlink="http://www.w3.org/1999/xlink" x="0px" y="0px"
	 viewBox="0 0 190.3 48" style="enable-background:new 0 0 190.3 48;" xml:space="preserve">
<style type="text/css">
	.st0{fill:#003399;stroke:#231F20;stroke-width:0.5;stroke-miterlimit:10;}
</style>
<title>PORTE_AVIONS</title>
<g id="PORTE_AVIONS">
	<path class="st0" d="M0.3,37.4h104.6l-0.8-2l8.6-2.7v-4.6l-3.5-2l4.2,0.7v-3.7c0,0-0.6-3.3,1.4-3.1c0.4-0.1,2-0.1,1.7,3
		c0,0.2,0,3.6,0,3.6h2.7v-3.5l2.1-0.1v-7.8l-10.5-1.8v-1h3.2l0.1-2.6h1.1v2.6l3.8-0.1L119,0.3h0.7l0.1,3.9v8.5h2.3v-1.6h1.7v1.5h2.8
		c0,0-1.7-2.4,0.4-2.4c0.4,0,2.5,0.1,1,2.1c0.3,0.3,0,2.9,0,2.9h-2.5v8.2h2.1v-5.9h2.4v7.1h2.6v7.7h8.9v5H190v1.8
		c0,0-8.5,2.4-9.1,8.2c0.6,0.8-176.4,0-176.4,0V45h-2v-3l0.5-2.2H0.3V37.4z"/>
</g>
</svg>
