<svg xmlns="http://www.w3.org/2000/svg" viewBox="0 0 489 489"><defs><style>.cls-1{fill:#446e58;}.cls-2{fill:none;stroke:#fff;stroke-miterlimit:10;}</style></defs><title>PORTE_AVIONS</title><g id="Calque_2" data-name="Calque 2"><g id="Calque_1-2" data-name="Calque 1"><path class="cls-1" d="M244.5,8a236.56,236.56,0,0,1,92.05,454.42A236.56,236.56,0,0,1,152.45,26.58,235,235,0,0,1,244.5,8m0-8C109.47,0,0,109.47,0,244.5S109.47,489,244.5,489,489,379.53,489,244.5,379.53,0,244.5,0Z"/></g><g id="PORTE_AVIONS"><g id="Calque_2-2" data-name="Calque 2"><g id="Calque_1-2-2" data-name="Calque 1-2"><g id="PORTE_AVIONS-2" data-name="PORTE AVIONS"><path class="cls-2" d="M16.5,276.64H267.56l-2-4.56,20.55-6.49V254.67l-8.41-4.81,9.5,1.7V242.8s-1.39-8,3.4-7.51c.88-.34,4.89-.17,4.21,7.34v9h6.52v-8.7h5.44V224.57l-25-4.27v-2.36h8.06l.16-6.52h2.65v6.35l8.7-.17.41-30.1h1.61l.16,9.27v20.08h5.44v-3.26h4.35v3.26h7s-4.35-5.94,1.12-5.94c1.09,0,6.31.34,2.52,5.26a23.59,23.59,0,0,1,0,7.21h-6.31v19.57H322V228.81h5.44V246.2h6.52v18.48h21.74v12H472v4.21s-20.39,5.75-21.92,19.62c1.54,1.91-423.79,0-423.79,0v-5.36H20.85V287.9l1.76-5.82H16.5Z"/></g></g></g></g></g></svg>