<svg xmlns="http://www.w3.org/2000/svg" viewBox="0 0 174.78 44.19"><defs><style>.cls-1{fill:#093;stroke:#231f20;stroke-miterlimit:10;stroke-width:0.75px;}</style></defs><title>PORTE_AVIONS_vert</title><g id="Calque_2" data-name="Calque 2"><g id="PORTE_AVIONS" data-name="PORTE AVIONS"><g id="PORTE_AVIONS-2" data-name="PORTE AVIONS"><path class="cls-1" d="M.38,34.41h96l-.73-1.83,7.89-2.48V25.88L100.28,24l3.85.64V21.29s-.55-3,1.28-2.84c.37-.09,1.83-.09,1.56,2.75v3.3h2.48V21.29l1.93-.09V14l-9.63-1.65v-.92h2.94l.09-2.39h1v2.39l3.49-.09V.38h.64L110,4v7.8h2.11V10.28h1.56v1.38h2.57s-1.56-2.2.37-2.2c.37,0,2.29.09.92,1.93.28.28,0,2.66,0,2.66h-2.29v7.52h1.93V16.15h2.2v6.51h2.39v7.06h8.17v4.59h44.49V36s-7.8,2.2-8.35,7.52c.55.73-161.83,0-161.83,0V41.38H2.39V38.63l.46-2H.38Z"/></g></g></g></svg>
