<?xml version="1.0" encoding="utf-8"?>
<!-- Generator: Adobe Illustrator 21.0.0, SVG Export Plug-In . SVG Version: 6.00 Build 0)  -->
<svg version="1.1" id="Capa_1" xmlns="http://www.w3.org/2000/svg" xmlns:xlink="http://www.w3.org/1999/xlink" x="0px" y="0px"
	 viewBox="0 0 79.5 79.5" style="enable-background:new 0 0 79.5 79.5;" xml:space="preserve">
<style type="text/css">
	.st0{fill:#00FFF8;}
</style>
<g>
	<path class="st0" d="M70.9,44.3l-9.7,9.3l3,0.9c-4.2,7-11.9,10-20.6,10.6V29.8h8.1c0.7,0.7,1.6,1.1,2.6,1.1c2.1,0,3.7-1.7,3.7-3.7
		c0-2.1-1.7-3.7-3.7-3.7c-1,0-2,0.4-2.6,1.1h-8.1v-4.3c3.9-1.5,6.7-5.3,6.7-9.8C50.3,4.7,45.6,0,39.8,0C34,0,29.2,4.7,29.2,10.5
		c0,4.8,3.2,8.8,7.6,10.1v4h-8.9c-0.7-0.7-1.6-1.1-2.6-1.1c-2.1,0-3.7,1.7-3.7,3.7c0,2.1,1.7,3.7,3.7,3.7c1,0,2-0.4,2.6-1.1h8.9
		v35.2c-9.2-0.7-17.2-4.3-21.2-11.8l2.9-0.6l-9.1-9.9L5.4,55.6l3.4-0.8c5,11,16.4,19.8,29.4,20.7l2,4.1l2-4.1
		c12.3-0.8,23.2-8.9,28.6-19.1l3.3,1L70.9,44.3z M34.4,10.5c0-3,2.4-5.4,5.4-5.4c3,0,5.4,2.4,5.4,5.4s-2.4,5.4-5.4,5.4
		C36.8,15.9,34.4,13.5,34.4,10.5z"/>
</g>
</svg>
