<?xml version="1.0" encoding="utf-8"?>
<!-- Generator: Adobe Illustrator 21.1.0, SVG Export Plug-In . SVG Version: 6.00 Build 0)  -->
<svg version="1.1" id="Calque_2" xmlns="http://www.w3.org/2000/svg" xmlns:xlink="http://www.w3.org/1999/xlink" x="0px" y="0px"
	 viewBox="0 0 175.6 78.5" style="enable-background:new 0 0 175.6 78.5;" xml:space="preserve">
<style type="text/css">
	.st0{fill:#009933;stroke:#000000;stroke-width:0.5;stroke-miterlimit:10;}
</style>
<title>Rafale_Marine</title>
<path class="st0" d="M0.4,12.9h12.8L25.7,21V2.1h4.8V0.2h29.9v4.1L47,4.1l44.2,23.4h9.1l-6.7-7.2v-1.8h7.4l12.6,9.1
	c0,0,0.7-6.5,17.3,0l43.6,10l-22.8,5.6h-34.5v1.7l-9.1,5.5H95.8l-41,22.3h9.5v5.7H37v-1.9h-2.8v-2h-4.3V72h3.9l-5-23.6h-11v-2h-6.5
	l-1.3-1.3v-7.5H7.3V32h2v-3.3L0.4,12.9z"/>
</svg>
