<svg xmlns="http://www.w3.org/2000/svg" viewBox="0 0 489 489"><defs><style>.cls-1{fill:#446e58;}.cls-2{fill:none;stroke:#fff;stroke-miterlimit:10;stroke-width:5px;}</style></defs><title>TCD</title><g id="Calque_2" data-name="Calque 2"><g id="Calque_1-2" data-name="Calque 1"><path class="cls-1" d="M244.5,8a236.56,236.56,0,0,1,92.05,454.42A236.56,236.56,0,0,1,152.45,26.58,235,235,0,0,1,244.5,8m0-8C109.47,0,0,109.47,0,244.5S109.47,489,244.5,489,489,379.53,489,244.5,379.53,0,244.5,0Z"/></g><g id="TRANSPORT_CHALAND"><g id="Calque_2-2" data-name="Calque 2"><g id="Calque_1-2-2" data-name="Calque 1-2"><polygon class="cls-2" points="30.67 296.97 30.64 281.98 48.15 280.29 48.14 273.95 109.43 273.83 109.41 264.94 62.32 250.54 62.33 256.41 57.95 256.42 57.93 244.38 63.46 244.37 115.97 260.14 115.98 268.05 121.45 267.72 121.43 254.11 129.09 254.09 129.1 261.75 170.69 261.67 170.69 258.71 179.45 259.35 179.46 264.94 200.25 265.22 200.24 256.14 323.91 256.89 323.86 228.53 332.61 228.51 332.6 223.04 342.45 223.02 342.44 215.36 347.91 215.35 347.86 191.27 353.33 191.26 353.38 214.25 363.23 214.23 363.24 219.43 355.46 219.79 356.45 230 365.45 227.68 365.46 233.92 380.78 233.89 380.8 241.49 392.84 241.78 392.85 251.02 407.08 251.33 407.11 264.52 410.39 263.85 410.41 271.1 433.35 271.72 441.24 263.45 457.73 264.42 441.31 296.16 30.67 296.97"/></g></g></g></g></svg>