<svg xmlns="http://www.w3.org/2000/svg" viewBox="0 0 172.01 42.77"><defs><style>.cls-1{fill:#093;stroke:#000;stroke-miterlimit:10;stroke-width:0.75px;}</style></defs><title>Transport_de_chalands_de_debarquement_TCD_vert</title><g id="Calque_2" data-name="Calque 2"><g id="TCD"><polygon class="cls-1" points="0.38 42.39 0.38 36.38 7.34 35.74 7.34 33.21 32.15 33.21 32.15 29.73 13.26 23.92 13.26 26.35 11.57 26.35 11.57 21.49 13.57 21.49 34.58 27.72 34.58 30.89 36.48 30.78 36.48 25.29 39.86 25.29 39.86 28.25 56.44 28.35 56.44 27.19 60.03 27.4 60.03 29.41 68.16 29.51 68.16 26.03 117.67 26.35 117.67 15.05 121.37 15.05 121.37 13.04 125.48 13.04 125.48 9.98 127.59 9.98 127.59 0.38 129.71 0.38 129.71 9.67 133.51 9.67 133.51 11.57 130.44 11.78 130.87 15.79 134.56 14.95 134.56 17.37 140.47 17.37 140.47 20.43 145.44 20.54 145.44 24.23 151.24 24.45 151.24 29.73 152.41 29.41 152.41 32.37 161.59 32.58 164.76 29.3 171.41 29.73 164.76 42.39 0.38 42.39"/></g></g></svg>
