<?xml version="1.0" encoding="utf-8"?>
<!-- Generator: Adobe Illustrator 21.1.0, SVG Export Plug-In . SVG Version: 6.00 Build 0)  -->
<svg version="1.1" id="Calque_1" xmlns="http://www.w3.org/2000/svg" xmlns:xlink="http://www.w3.org/1999/xlink" x="0px" y="0px"
	 viewBox="0 0 2362 2362" style="enable-background:new 0 0 2362 2362;" xml:space="preserve">
<style type="text/css">
	.st0{fill:#009933;stroke:#000000;stroke-miterlimit:10;}
</style>
<title>Transport_de_chalands_de_debarquement_TCD</title>
<polygon class="st0" points="698.9,852 698.9,846.3 705.5,845.7 705.5,843.3 729,843.3 729,840 711.1,834.5 711.1,836.8 
	709.5,836.8 709.5,832.2 711.4,832.2 731.3,838.1 731.3,841.1 733.1,841 733.1,835.8 736.3,835.8 736.3,838.6 752,838.7 752,837.6 
	755.4,837.8 755.4,839.7 763.1,839.8 763.1,836.5 810,836.8 810,826.1 813.5,826.1 813.5,824.2 817.4,824.2 817.4,821.3 
	819.4,821.3 819.4,812.2 821.4,812.2 821.4,821 825,821 825,822.8 822.1,823 822.5,826.8 826,826 826,828.3 831.6,828.3 
	831.6,831.2 836.3,831.3 836.3,834.8 841.8,835 841.8,840 842.9,839.7 842.9,842.5 851.6,842.7 854.6,839.6 860.9,840 854.6,852 "/>
</svg>
