<?xml version="1.0" encoding="utf-8"?>
<!-- Generator: Adobe Illustrator 21.0.0, SVG Export Plug-In . SVG Version: 6.00 Build 0)  -->
<svg version="1.1" id="Layer_1" xmlns="http://www.w3.org/2000/svg" xmlns:xlink="http://www.w3.org/1999/xlink" x="0px" y="0px"
	 viewBox="0 0 485 485" style="enable-background:new 0 0 485 485;" xml:space="preserve">
<style type="text/css">
	.st0{fill:#9906F9;}
	.st1{fill:#9906F9;stroke:#9906F9;stroke-miterlimit:10;}
	.st2{fill:#A752F7;stroke:#7C05D8;stroke-miterlimit:10;}
</style>
<g>
	<path class="st0" d="M386.3,230.9V102.2H321V46.6h-30v55.7h-35.3V0h-157v124.6L0,174.6V485h485V230.9H386.3z M356.3,132.2V455
		H255.7V132.2H356.3z M225.7,30v425h-97V30H225.7z M30,193l68.7-34.8V455H30V193z M455,455h-68.7V260.9H455V455z"/>
</g>
<rect x="128.7" y="30" class="st1" width="97" height="425"/>
<rect x="255.7" y="132.2" class="st2" width="100.5" height="322.8"/>
<rect x="386.3" y="260.9" class="st1" width="68.7" height="194.1"/>
<polygon class="st2" points="30,193 98.7,158.2 98.7,455 30,455 "/>
</svg>
