<?xml version="1.0" encoding="utf-8"?>
<!-- Generator: Adobe Illustrator 21.0.0, SVG Export Plug-In . SVG Version: 6.00 Build 0)  -->
<svg version="1.1" id="Layer_1" xmlns="http://www.w3.org/2000/svg" xmlns:xlink="http://www.w3.org/1999/xlink" x="0px" y="0px"
	 viewBox="0 0 279.1 279.1" style="enable-background:new 0 0 279.1 279.1;" xml:space="preserve">
<style type="text/css">
	.st0{fill:#F9A216;}
	.st1{fill:#D86109;}
</style>
<g>
	<path class="st0" d="M276.3,109.8l-93.7-70.7c-2.5-1.9-5.9-1.9-8.4,0l-15.4,11.6l-15.4-11.6c-2.5-1.9-5.9-1.9-8.4,0l-15,11.3
		l-15-11.3c-2.5-1.9-5.9-1.9-8.4,0L2.8,109.8C1,111.1,0,113.2,0,115.4v119c0,3.9,3.1,7,7,7h38.5h39.2h109.7h38.5h39.2
		c3.9,0,7-3.1,7-7v-119C279.1,113.2,278.1,111.1,276.3,109.8L276.3,109.8z M265.1,227.4h-25.2v-112c0-2.2-1-4.3-2.8-5.6l-66.7-50.3
		l8-6l86.7,65.4V227.4z M201.4,227.4v-112c0-2.2-1-4.3-2.8-5.6l-67.1-50.6l7.6-5.7l86.7,65.4v108.5L201.4,227.4L201.4,227.4z
		 M112.2,227.4H91.7h-2.5v-50.8h22.9C112.2,176.6,112.2,227.4,112.2,227.4z M126.2,227.4v-57.8c0-3.9-3.1-7-7-7H82.2
		c-3.9,0-7,3.1-7,7v57.8H52.5H14V118.9l86.7-65.4l86.7,65.4v108.5H126.2z"/>
</g>
<polygon class="st1" points="14,118.9 100.7,53.5 187.4,118.9 187.4,227.4 126.2,227.4 126.2,169.6 119.2,162.6 82.2,162.6
	75.2,169.6 75.2,227.4 14,227.4 "/>
<path class="st0" d="M131.6,59.2l67.1,50.6c0,0,1.4,1.2,1.9,2.1c0.5,0.9,0.6,1.5,0.7,2c0.1,0.5,0.1,4.1,0.1,4.1l0,109.4l24.5,0
	V118.9l-86.7-65.4L131.6,59.2z"/>
<path class="st1" d="M170.4,59.5l66.4,50.3c0,0,1.4,1.2,1.9,2.1c0.5,0.9,0.6,1.5,0.7,2c0.1,0.5,0.1,4.1,0.1,4.1l0,109.4l25.5,0
	V118.9l-86.7-65.4L170.4,59.5z"/>
</svg>
