<?xml version="1.0" encoding="utf-8"?>
<!-- Generator: Adobe Illustrator 21.1.0, SVG Export Plug-In . SVG Version: 6.00 Build 0)  -->
<svg version="1.1" id="XINGU" xmlns="http://www.w3.org/2000/svg" xmlns:xlink="http://www.w3.org/1999/xlink" x="0px" y="0px"
	 viewBox="0 0 167 59" style="enable-background:new 0 0 167 59;" xml:space="preserve">
<style type="text/css">
	.st0{fill:#009933;stroke:#000000;stroke-width:0.5;stroke-miterlimit:10;}
</style>
<title>XINGU</title>
<path class="st0" d="M0.4,0.3L22.4,3l21.2,20.3L86,26.7v-5.5h3.4v5.5h31.8l12,4.4v-5.5h1.7v2.9l1.5,0.2V33c0,0,26.1,4.2,30.2,10.6
	c0.1,1,0.1,2,0,3.1c0,0-3.7,2.6-27.7,3h-3.8l-0.2,9.2h-1.4l-0.4-7.8h-3.9v1.5h-11v1.7h-12.5v-1.5h-5v1.4H67.4c0,0-39.4-17.3-49-18.4
	C18.2,35.9,0.4,0.3,0.4,0.3z"/>
</svg>
