<svg xmlns="http://www.w3.org/2000/svg" viewBox="0 0 166.3 58.43"><defs><style>.cls-1{fill:#0c1eb0;}</style></defs><title>xingu_allie</title><g id="Calque_2" data-name="Calque 2"><g id="XINGU"><path class="cls-1" d="M0,0,21.92,2.74,43.15,23l42.46,3.32V20.89H89v5.48h31.85l12,4.45V25.34h1.68v2.87l1.48.21v4.23s26.11,4.23,30.23,10.57a29.65,29.65,0,0,1,0,3.07s-3.7,2.64-27.69,3h-3.8l-.21,9.2h-1.37l-.42-7.82h-3.91V52.2h-11v1.69H105.27V52.41h-5v1.37H67S27.58,36.45,18,35.39C17.75,35.6,0,0,0,0Z"/></g></g></svg>
